<svg xmlns="http://www.w3.org/2000/svg" xml:space="preserve" width="1500" height="297" viewBox="0 0 1500 297" data-version="1" data-id="lg_HMlZoktsMCgzyp3l5I"><g id="outer-wrapper" data-padding="20" transform="matrix(1,0,0,1,0,0)"><g id="inner-wrapper" transform="matrix(0.9642857142857143,0,0,0.9642857142857143,10,5.303571428571416)"><rect width="560" height="54.24" x="86.90740740740739" y="-278.71188645661783" fill="none" rx="0" ry="0" transform="translate(400.5 478.46)"></rect><path fill="#fe5e02" d="M510.1674074074074 237.93811354338214V241.44811354338214H492.5074074074074V209.08811354338212H496.3874074074074V237.93811354338214ZM522.1674074074074 227.80811354338215L521.5474074074074 229.63811354338213H533.0174074074074L532.3874074074074 227.76811354338213L527.3474074074074 212.20811354338213Q526.7774074074074 214.27811354338212 522.1674074074074 227.80811354338215M520.4374074074074 232.94811354338214L517.5574074074074 241.44811354338214H513.3874074074074L524.6674074074074 209.08811354338212H530.0374074074074L541.1274074074074 241.44811354338214H536.9474074074074L534.1174074074074 232.94811354338214ZM571.6574074074074 209.08811354338212L560.3774074074074 241.44811354338214H555.4774074074073L544.5374074074074 209.08811354338212H548.7074074074073L552.9374074074074 221.90811354338211L557.9774074074073 237.93811354338214Q559.8474074074073 231.88811354338213 563.1574074074074 221.90811354338217L567.4774074074073 209.08811354338218ZM595.1274074074074 238.0381135433821V241.44811354338214H577.0774074074073V209.08811354338212H594.8874074074074V212.49811354338215H580.9674074074073V223.58811354338212H593.2574074074074V226.99811354338215H580.9674074074073V238.03811354338217ZM605.0174074074074 227.8081135433821V241.44811354338208H601.1274074074074V209.08811354338206H606.0274074074074L614.1374074074074 222.72811354338205L622.3474074074074 236.73811354338204Q622.1474074074074 232.08811354338206 622.1474074074074 222.76811354338201V209.088113543382H626.0374074074075V241.44811354338202H621.1474074074074L613.0274074074075 227.908113543382Q610.5874074074075 223.82811354338202 608.5174074074075 220.298113543382Q606.4574074074075 216.76811354338201 605.5874074074075 215.23811354338198L604.7774074074075 213.74811354338198Q605.0174074074075 218.73811354338198 605.0174074074075 227.80811354338198M643.2274074074074 241.44811354338196H633.4274074074074V209.08811354338195H643.0274074074075Q650.1874074074075 209.08811354338195 654.7674074074075 213.52811354338195T659.3474074074074 225.02811354338195Q659.3474074074074 232.03811354338194 655.1074074074074 236.73811354338193Q650.8574074074074 241.4481135433819 643.2274074074074 241.4481135433819M642.9874074074074 212.54811354338193H637.3674074074074V238.03811354338194H643.1774074074074Q649.1774074074074 238.03811354338194 652.2474074074074 234.3181135433819T655.3174074074075 225.0281135433819Q655.3174074074075 219.74811354338192 651.8874074074074 216.1481135433819T642.9874074074074 212.54811354338187M683.2174074074074 238.03811354338188V241.4481135433819H665.1674074074074V209.0881135433819H682.9774074074074V212.49811354338192H669.0574074074075V223.5881135433819H681.3474074074074V226.99811354338192H669.0574074074075V238.03811354338194ZM697.5574074074075 212.4481135433819H693.0974074074074V225.36811354338192H697.9874074074074Q701.3074074074075 225.36811354338192 703.0574074074075 223.5681135433819T704.8074074074075 218.92811354338193Q704.8074074074075 212.4481135433819 697.5574074074075 212.4481135433819M698.1374074074074 228.67811354338193H693.0974074074074V241.4481135433819H689.2074074074073V209.0881135433819H697.3174074074075Q702.9374074074074 209.0881135433819 705.8374074074075 211.72811354338188Q708.7474074074074 214.36811354338187 708.7474074074074 219.0281135433819Q708.6474074074074 222.3881135433819 706.9674074074074 224.73811354338187T702.2174074074074 228.04811354338187L710.7074074074075 241.44811354338185H706.0574074074075ZM744.8874074074074 209.08811354338195V212.49811354338198H736.1474074074074V241.44811354338196H732.2674074074074V212.49811354338198H723.5274074074074V209.08811354338195ZM767.5374074074074 238.03811354338194V241.44811354338196H749.4874074074073V209.08811354338195H767.2974074074074V212.49811354338198H753.3774074074074V223.58811354338195H765.6574074074074V226.99811354338198H753.3774074074074V238.038113543382ZM796.7274074074073 235.72811354338194V239.80811354338192Q793.7474074074073 241.8281135433819 788.5674074074074 241.8281135433819Q781.2674074074073 241.8281135433819 776.7074074074073 237.3381135433819T772.1474074074074 225.12811354338191Q772.1474074074074 217.8281135433819 776.7874074074073 213.24811354338192Q781.4174074074074 208.65811354338194 788.4274074074074 208.65811354338194Q793.4674074074073 208.65811354338194 796.6274074074073 210.38811354338196V214.36811354338198Q794.5174074074073 213.26811354338196 792.8374074074072 212.788113543382T788.4274074074073 212.30811354338198Q783.1874074074072 212.30811354338198 779.7074074074072 215.858113543382T776.2274074074072 225.12811354338197Q776.2274074074072 231.07811354338196 779.6874074074071 234.62811354338197T788.8574074074072 238.17811354338198Q793.4674074074072 238.17811354338198 796.7274074074072 235.728113543382M825.9074074074074 209.08811354338218V241.4481135433822H822.0274074074074V226.80811354338215H806.3274074074075V241.44811354338214H802.4374074074074V209.08811354338212H806.3274074074075V223.2981135433821H822.0274074074074V209.08811354338212ZM837.1774074074074 227.80811354338215V241.44811354338214H833.2974074074074V209.08811354338212H838.1874074074074L846.2974074074074 222.7281135433821L854.5074074074073 236.7381135433821Q854.3174074074074 232.08811354338212 854.3174074074074 222.76811354338207V209.08811354338206H858.2074074074073V241.44811354338208H853.3074074074074L845.1974074074074 227.90811354338206Q842.7474074074073 223.82811354338207 840.6874074074074 220.29811354338204Q838.6174074074074 216.76811354338207 837.7574074074073 215.23811354338204L836.9374074074074 213.74811354338203Q837.1774074074074 218.73811354338204 837.1774074074074 227.80811354338204M893.2574074074074 225.12811354338203Q893.2574074074074 232.75811354338202 889.3474074074074 237.28811354338205Q885.4274074074075 241.82811354338207 878.7574074074075 241.82811354338207Q872.1874074074075 241.82811354338207 868.1974074074075 237.26811354338207Q864.2174074074074 232.70811354338207 864.2174074074074 225.12811354338209Q864.2174074074074 217.4881135433821 868.1274074074074 212.9781135433821T878.7074074074075 208.46811354338212Q885.5274074074075 208.46811354338212 889.3874074074074 212.95811354338213Q893.2574074074074 217.44811354338214 893.2574074074074 225.12811354338214M868.2974074074075 225.12811354338214Q868.2974074074075 231.12811354338214 871.1474074074074 234.62811354338214Q874.0074074074075 238.12811354338214 878.7574074074075 238.12811354338214Q883.7074074074075 238.12811354338214 886.4174074074075 234.67811354338215Q889.1274074074075 231.21811354338217 889.1274074074075 225.12811354338214Q889.1274074074075 219.02811354338212 886.3874074074075 215.56811354338214Q883.6574074074075 212.11811354338215 878.7074074074076 212.11811354338215Q873.8174074074075 212.11811354338215 871.0574074074075 215.59811354338217T868.2974074074075 225.12811354338214M916.8674074074075 237.93811354338214V241.44811354338214H899.2074074074073V209.08811354338212H903.0974074074073V237.93811354338214ZM949.7474074074075 225.12811354338214Q949.7474074074075 232.75811354338214 945.8374074074076 237.28811354338217Q941.9274074074076 241.8281135433822 935.2574074074075 241.8281135433822Q928.6774074074075 241.8281135433822 924.6974074074076 237.26811354338219Q920.7074074074076 232.70811354338218 920.7074074074076 225.1281135433822Q920.7074074074076 217.4881135433822 924.6274074074075 212.97811354338222Q928.5374074074075 208.46811354338223 935.2074074074076 208.46811354338223Q942.0274074074076 208.46811354338223 945.8874074074075 212.95811354338224T949.7474074074075 225.12811354338226M924.7874074074075 225.12811354338226Q924.7874074074075 231.12811354338226 927.6474074074075 234.62811354338226T935.2574074074075 238.12811354338226Q940.1974074074076 238.12811354338226 942.9074074074075 234.67811354338227Q945.6274074074075 231.2181135433823 945.6274074074075 225.12811354338226Q945.6274074074075 219.02811354338223 942.8874074074075 215.56811354338225Q940.1474074074075 212.11811354338226 935.2074074074076 212.11811354338226Q930.3074074074076 212.11811354338226 927.5474074074076 215.59811354338228T924.7874074074076 225.12811354338226M980.9074074074074 238.76811354338219L980.9474074074074 238.90811354338217Q977.0674074074074 241.83811354338218 970.9174074074074 241.83811354338218Q963.4274074074074 241.83811354338218 958.8674074074074 237.39811354338218T954.3074074074075 225.22811354338216Q954.3074074074075 217.8881135433822 958.8474074074074 213.20811354338218T970.2974074074075 208.52811354338218Q976.0074074074075 208.52811354338218 979.7474074074075 210.73811354338216V214.90811354338217Q975.8174074074076 212.3181135433822 970.6274074074075 212.3181135433822Q965.2074074074076 212.3181135433822 961.7974074074075 215.84811354338217T958.3874074074075 225.22811354338216Q958.3874074074075 231.22811354338216 961.7474074074075 234.65811354338217Q965.1074074074075 238.09811354338217 971.0174074074075 238.09811354338217Q974.2774074074075 238.09811354338217 977.0674074074075 236.79811354338216V226.71811354338217H969.9574074074075V223.30811354338215H980.9474074074075V238.76811354338213ZM992.0474074074074 209.08811354338218V241.4481135433822H988.1574074074074V209.08811354338218ZM1017.7574074074074 238.03811354338217V241.4481135433822H999.7074074074073V209.08811354338218H1017.5174074074073V212.4981135433822H1003.5974074074073V223.58811354338218H1015.8874074074073V226.9981135433822H1003.5974074074073V238.03811354338222ZM1042.4874074074073 232.85811354338216Q1042.4874074074073 237.13811354338213 1039.5574074074075 239.45811354338218Q1036.6274074074076 241.78811354338217 1032.0274074074075 241.78811354338217Q1026.9374074074076 241.78811354338217 1023.3874074074075 239.72811354338216V235.54811354338216Q1026.8874074074074 238.18811354338214 1031.9274074074074 238.18811354338214Q1034.9474074074074 238.18811354338214 1036.6774074074074 236.84811354338217Q1038.4074074074074 235.49811354338215 1038.4074074074074 232.95811354338218Q1038.4074074074074 231.89811354338218 1037.9974074074075 231.0581135433822T1036.6574074074074 229.52811354338223Q1035.7174074074073 228.82811354338224 1034.8774074074076 228.37811354338226Q1034.0374074074075 227.91811354338228 1032.5974074074074 227.24811354338226Q1032.3074074074075 227.09811354338228 1031.7374074074075 226.85811354338227Q1029.6674074074076 225.94811354338225 1028.5874074074077 225.37811354338226Q1027.5074074074075 224.79811354338227 1026.0474074074077 223.66811354338228T1023.9074074074076 221.05811354338226Q1023.2374074074077 219.56811354338225 1023.2374074074077 217.59811354338228Q1023.2374074074077 213.4681135433823 1026.1874074074076 211.1381135433823Q1029.1474074074076 208.8181135433823 1033.6074074074077 208.8181135433823Q1037.7874074074075 208.8181135433823 1040.7074074074076 210.29811354338233V214.3781135433823Q1037.7874074074077 212.4581135433823 1033.7074074074076 212.4581135433823Q1030.7774074074077 212.4581135433823 1029.0474074074077 213.8281135433823T1027.3174074074077 217.40811354338229Q1027.3174074074077 218.55811354338226 1027.7774074074077 219.4681135433823Q1028.2274074074078 220.3781135433823 1029.3874074074079 221.17811354338227Q1030.5374074074077 221.9681135433823 1031.347407407408 222.37811354338226Q1032.1674074074078 222.77811354338223 1033.8974074074076 223.54811354338227Q1035.5274074074077 224.2681135433823 1036.3874074074079 224.67811354338227Q1037.2574074074078 225.0881135433823 1038.6274074074076 225.97811354338228Q1039.9874074074078 226.85811354338227 1040.6874074074076 227.6981135433823T1041.9374074074076 229.90811354338229T1042.4874074074078 232.85811354338227 "></path><rect width="217.651" height="20.34" x="258.08140740740737" y="-261.76188645661784" fill="none" rx="0" ry="0" transform="translate(400.5 538.56)"></rect><path fill="#fe5e02" d="M661.0074074074074 280.43811354338214H662.7374074074074L662.5974074074074 284.80811354338215H661.1574074074074ZM664.0474074074075 280.43811354338214H665.7774074074075L665.6374074074074 284.80811354338215H664.1974074074075ZM666.6574074074074 280.42811354338215H675.1574074074074L674.8874074074074 282.04811354338216H671.8674074074074V292.6181135433822H669.7374074074075V282.04811354338216H666.6574074074075ZM675.7774074074075 288.3581135433821Q675.7774074074075 287.14811354338207 676.1074074074074 286.2381135433821Q676.4474074074074 285.31811354338214 677.0274074074075 284.69811354338214Q677.6174074074074 284.07811354338213 678.4074074074074 283.7581135433821Q679.1974074074075 283.44811354338214 680.1174074074074 283.44811354338214Q680.9274074074074 283.44811354338214 681.4974074074074 283.6381135433822Q682.0574074074075 283.83811354338224 682.4174074074074 284.17811354338215Q682.7774074074075 284.5281135433822 682.9474074074074 284.9881135433821Q683.1274074074074 285.4581135433821 683.1274074074074 285.9981135433821Q683.1274074074074 286.64811354338207 682.7674074074074 287.2281135433821Q682.4074074074074 287.81811354338214 681.7274074074073 288.2581135433821Q681.0574074074074 288.69811354338214 680.0974074074074 288.9581135433821Q679.1474074074074 289.2181135433821 677.9574074074073 289.2381135433821Q678.0074074074074 289.65811354338206 678.1274074074074 290.01811354338207Q678.2474074074074 290.3881135433821 678.4674074074073 290.66811354338205Q678.6974074074074 290.948113543382 679.0574074074074 291.1081135433821Q679.4174074074074 291.27811354338206 679.9574074074073 291.27811354338206Q680.3474074074073 291.27811354338206 680.7974074074073 291.18811354338203T681.6274074074073 290.968113543382Q682.0774074074072 290.828113543382 682.5074074074073 290.64811354338195L683.0474074074073 291.91811354338193Q682.5874074074073 292.15811354338194 682.0474074074073 292.3381135433819Q681.5774074074072 292.49811354338186 680.9674074074073 292.62811354338186Q680.3474074074073 292.74811354338186 679.6674074074074 292.74811354338186Q678.6274074074073 292.74811354338186 677.8874074074074 292.4381135433819Q677.1474074074074 292.11811354338187 676.6774074074074 291.54811354338193Q676.2074074074073 290.9681135433819 675.9974074074073 290.15811354338194Q675.7774074074073 289.348113543382 675.7774074074073 288.358113543382M679.9574074074073 284.848113543382Q679.3574074074073 284.848113543382 678.9774074074073 285.12811354338197Q678.5874074074073 285.40811354338194 678.3574074074073 285.848113543382Q678.1174074074073 286.28811354338205 678.0174074074073 286.838113543382T677.9074074074074 287.948113543382Q678.7674074074073 287.90811354338206 679.3674074074073 287.718113543382Q679.9774074074073 287.52811354338195 680.3474074074073 287.248113543382Q680.7274074074073 286.968113543382 680.8974074074074 286.64811354338195T681.0674074074074 285.998113543382Q681.0674074074074 285.478113543382 680.7674074074073 285.15811354338194Q680.4574074074073 284.848113543382 679.9574074074073 284.848113543382M690.6174074074074 284.66811354338205L689.4674074074073 285.76811354338207Q689.1974074074074 285.4581135433821 688.9174074074074 285.2481135433821Q688.6374074074074 285.02811354338206 688.1674074074074 285.02811354338206Q687.8974074074074 285.02811354338206 687.5674074074074 285.1081135433821T686.9474074074074 285.5081135433821Q686.6574074074074 285.818113543382 686.4674074074073 286.42811354338204Q686.2774074074073 287.04811354338204 686.2774074074073 288.088113543382Q686.2774074074073 289.14811354338195 686.4674074074073 289.76811354338196T686.9574074074073 290.738113543382Q687.2574074074073 291.078113543382 687.5974074074073 291.17811354338204T688.2574074074073 291.27811354338206Q688.5174074074073 291.27811354338206 688.7874074074073 291.2281135433821Q689.0574074074073 291.18811354338214 689.3074074074073 291.1181135433821Q689.5574074074073 291.05811354338215 689.7474074074073 291.0081135433821Q689.9374074074074 290.94811354338214 690.0274074074073 290.91811354338205L690.5274074074073 292.208113543382Q690.4774074074073 292.228113543382 690.2874074074073 292.318113543382T689.7774074074073 292.498113543382Q689.4474074074074 292.588113543382 688.9974074074073 292.66811354338193T687.9874074074073 292.748113543382Q686.9474074074074 292.748113543382 686.2074074074073 292.43811354338203Q685.4674074074073 292.118113543382 684.9974074074073 291.54811354338204Q684.5174074074073 290.968113543382 684.2874074074074 290.15811354338206Q684.0674074074074 289.3481135433821 684.0674074074074 288.3581135433821Q684.0674074074074 287.16811354338205 684.3774074074074 286.2481135433821Q684.6974074074074 285.3381135433821 685.2574074074073 284.7081135433821Q685.8174074074074 284.0881135433821 686.5674074074074 283.76811354338207Q687.3274074074073 283.448113543382 688.1874074074074 283.448113543382Q689.0374074074074 283.448113543382 689.6174074074074 283.76811354338207Q690.2074074074073 284.0881135433821 690.6174074074074 284.66811354338205M693.8274074074073 279.578113543382V284.80811354338204Q694.3474074074073 284.1281135433821 695.0774074074073 283.818113543382Q695.8074074074074 283.51811354338207 696.6174074074074 283.51811354338207Q697.9974074074073 283.51811354338207 698.6174074074074 284.3481135433821Q699.2374074074073 285.18811354338214 699.2374074074073 286.6081135433821V292.6281135433821H697.1874074074074V286.7581135433821Q697.1874074074074 285.9981135433821 696.9174074074074 285.55811354338204T695.9974074074073 285.118113543382Q695.6274074074074 285.118113543382 695.2374074074073 285.318113543382T694.5374074074074 285.87811354338197Q694.2174074074073 286.248113543382 694.0174074074074 286.75811354338197Q693.8274074074075 287.25811354338197 693.8274074074075 287.868113543382V292.62811354338197H691.7674074074074V279.9381135433819ZM707.8774074074074 280.43811354338203V292.17811354338204Q707.8774074074074 293.2581135433821 707.5874074074073 293.978113543382Q707.2874074074073 294.708113543382 706.8274074074073 295.218113543382Q706.3674074074074 295.718113543382 705.7974074074074 296.04811354338204Q705.2374074074073 296.3681135433821 704.6974074074074 296.6381135433821L703.8474074074073 295.2181135433821Q704.5474074074073 294.8781135433821 704.9374074074074 294.4881135433821T705.5074074074073 293.7281135433821T705.7074074074073 293.01811354338207Q705.7374074074073 292.67811354338204 705.7374074074073 292.3881135433821V280.43811354338203ZM713.6574074074074 283.448113543382Q715.7274074074073 283.448113543382 716.6674074074074 284.66811354338205Q717.5974074074073 285.8881135433821 717.5974074074073 288.03811354338205Q717.5974074074073 289.03811354338205 717.3474074074073 289.91811354338205Q717.0974074074073 290.78811354338205 716.5874074074073 291.42811354338204Q716.0674074074074 292.068113543382 715.2974074074073 292.43811354338203T713.4974074074073 292.80811354338204T711.7274074074073 292.488113543382Q710.9774074074073 292.17811354338204 710.4874074074073 291.578113543382Q710.0074074074073 290.988113543382 709.7774074074073 290.13811354338196Q709.5574074074073 289.29811354338193 709.5574074074073 288.228113543382Q709.5574074074073 287.208113543382 709.8074074074073 286.328113543382Q710.0574074074073 285.458113543382 710.5674074074072 284.818113543382Q711.0874074074072 284.17811354338204 711.8574074074073 283.80811354338204Q712.6374074074073 283.448113543382 713.6574074074074 283.448113543382M713.4774074074073 284.958113543382Q712.9574074074073 284.958113543382 712.6274074074073 285.18811354338203Q712.2874074074073 285.42811354338204 712.0974074074073 285.848113543382Q711.9174074074074 286.26811354338196 711.8374074074073 286.838113543382Q711.7674074074073 287.40811354338206 711.7674074074073 288.04811354338204Q711.7674074074073 288.718113543382 711.8474074074073 289.30811354338204Q711.9274074074074 289.90811354338206 712.1474074074074 290.348113543382T712.7274074074073 291.03811354338205Q713.0974074074073 291.28811354338205 713.6774074074074 291.28811354338205Q714.1974074074074 291.28811354338205 714.5274074074073 291.05811354338204Q714.8674074074073 290.828113543382 715.0574074074073 290.39811354338207Q715.2474074074073 289.9781135433821 715.3174074074072 289.41811354338205T715.3874074074073 288.218113543382Q715.3874074074073 287.54811354338204 715.3074074074073 286.958113543382Q715.2274074074073 286.358113543382 715.0074074074073 285.90811354338206Q714.7974074074073 285.458113543382 714.4274074074074 285.208113543382T713.4774074074073 284.958113543382M726.6074074074073 283.65811354338206L726.5174074074073 288.9881135433821Q726.5174074074073 289.52811354338206 726.5974074074073 289.9781135433821L726.7774074074073 290.8681135433821Q726.8774074074074 291.30811354338215 726.9674074074073 291.7581135433821T727.0574074074073 292.7481135433821Q727.0574074074073 294.65811354338206 726.0874074074072 295.5981135433821Q725.1174074074072 296.52811354338206 723.4574074074073 296.52811354338206Q722.9174074074073 296.52811354338206 722.3774074074073 296.42811354338204T721.3774074074073 296.208113543382Q720.9274074074074 296.078113543382 720.5974074074073 295.958113543382Q720.2774074074073 295.828113543382 720.1674074074074 295.77811354338206L720.6674074074074 294.208113543382Q720.9274074074074 294.318113543382 721.2374074074073 294.42811354338204Q721.5574074074073 294.54811354338204 721.8874074074073 294.65811354338206T722.5774074074072 294.838113543382T723.2774074074073 294.90811354338206Q724.2874074074073 294.90811354338206 724.7374074074073 294.30811354338204T725.1874074074072 292.7481135433821Q725.1874074074072 291.8881135433821 724.8274074074072 290.9681135433821Q724.3274074074072 291.91811354338216 723.4874074074073 292.32811354338213Q722.6474074074073 292.7281135433821 721.7374074074073 292.7281135433821Q720.3074074074073 292.7281135433821 719.7074074074073 291.90811354338206Q719.1074074074072 291.078113543382 719.1074074074072 289.6381135433821V283.65811354338206H721.1574074074073V289.578113543382Q721.1574074074073 290.338113543382 721.4274074074073 290.76811354338207T722.3474074074072 291.198113543382Q722.6874074074072 291.198113543382 723.0774074074072 291.00811354338197Q723.4574074074073 290.8081135433819 723.7774074074073 290.458113543382Q724.0874074074072 290.108113543382 724.2974074074073 289.608113543382Q724.5074074074073 289.118113543382 724.5074074074073 288.53811354338194V283.65811354338194ZM738.6474074074074 280.3781135433821L737.7574074074073 281.54811354338204Q737.7074074074073 281.4881135433821 737.4274074074074 281.348113543382Q737.1474074074074 281.198113543382 736.8974074074074 281.198113543382Q736.7374074074073 281.198113543382 736.4974074074074 281.248113543382Q736.2674074074074 281.28811354338194 736.0474074074075 281.448113543382Q735.8374074074075 281.598113543382 735.6774074074074 281.8881135433821Q735.5274074074075 282.17811354338204 735.5274074074075 282.6381135433821Q735.5274074074075 282.8381135433821 735.5574074074075 283.0881135433821Q735.5874074074075 283.3481135433821 735.6774074074074 283.64811354338207H737.9074074074074L737.6574074074074 285.1081135433821H735.7774074074074V292.16811354338205Q735.7774074074074 293.2481135433821 735.4974074074074 293.968113543382Q735.2274074074074 294.698113543382 734.7774074074074 295.198113543382Q734.3274074074075 295.68811354338203 733.7774074074074 296.02811354338206Q733.2274074074073 296.3581135433821 732.6874074074074 296.6281135433821L731.8574074074074 295.2581135433821Q732.5274074074075 294.91811354338205 732.8974074074074 294.52811354338206Q733.2774074074075 294.14811354338207 733.4674074074074 293.7581135433821T733.6974074074075 293.0081135433821Q733.7274074074074 292.64811354338207 733.7274074074074 292.3581135433821V285.1081135433821H732.1074074074074V283.64811354338207H733.6774074074074Q733.6074074074074 283.3781135433821 733.5774074074075 283.0881135433821Q733.5474074074075 282.80811354338215 733.5474074074075 282.54811354338216Q733.5474074074075 281.82811354338213 733.8074074074075 281.2781135433822Q734.0674074074075 280.71811354338223 734.5074074074074 280.3581135433822Q734.9574074074073 279.9981135433822 735.5374074074074 279.80811354338226Q736.1274074074074 279.6181135433822 736.7574074074074 279.6181135433822Q737.4574074074073 279.6181135433822 737.9074074074074 279.83811354338224Q738.3574074074074 280.06811354338225 738.6474074074074 280.3781135433822M742.7074074074073 283.44811354338225Q744.7774074074074 283.44811354338225 745.7174074074073 284.6681135433823T746.6574074074074 288.0381135433823Q746.6574074074074 289.0381135433823 746.3974074074074 289.9181135433823Q746.1474074074074 290.7881135433823 745.6374074074074 291.42811354338227T744.3474074074074 292.43811354338226Q743.5774074074075 292.80811354338226 742.5474074074074 292.80811354338226Q741.5274074074074 292.80811354338226 740.7774074074074 292.4881135433822Q740.0274074074074 292.17811354338227 739.5474074074074 291.57811354338224Q739.0574074074074 290.9881135433822 738.8274074074073 290.1381135433822Q738.6074074074073 289.29811354338216 738.6074074074073 288.2281135433822Q738.6074074074073 287.20811354338224 738.8574074074073 286.32811354338224Q739.1074074074073 285.45811354338224 739.6274074074073 284.81811354338225Q740.1374074074073 284.17811354338227 740.9074074074073 283.80811354338226Q741.6874074074072 283.44811354338225 742.7074074074073 283.44811354338225M742.5274074074073 284.95811354338224Q742.0074074074073 284.95811354338224 741.6774074074073 285.18811354338226Q741.3474074074072 285.42811354338227 741.1574074074073 285.8481135433822T740.8974074074073 286.83811354338224Q740.8174074074072 287.4081135433823 740.8174074074072 288.04811354338227Q740.8174074074072 288.71811354338223 740.8974074074073 289.30811354338226Q740.9874074074073 289.9081135433823 741.1974074074074 290.3481135433822Q741.4174074074074 290.7881135433823 741.7874074074073 291.0381135433823T742.7274074074073 291.2881135433823Q743.2474074074073 291.2881135433823 743.5874074074072 291.05811354338226Q743.9174074074073 290.82811354338224 744.1074074074072 290.3981135433823Q744.2974074074073 289.97811354338234 744.3674074074072 289.4181135433823T744.4374074074072 288.21811354338223Q744.4374074074072 287.54811354338227 744.3574074074072 286.95811354338224Q744.2774074074073 286.3581135433822 744.0574074074073 285.9081135433823Q743.8474074074072 285.45811354338224 743.4774074074073 285.20811354338224T742.5274074074073 284.95811354338224M752.2474074074073 285.5281135433823Q751.9274074074074 285.5281135433823 751.6074074074073 285.69811354338225Q751.2774074074073 285.8581135433822 751.0274074074073 286.1381135433823T750.6174074074073 286.80811354338226Q750.4474074074074 287.20811354338224 750.4474074074074 287.68811354338226V292.6281135433823H748.3974074074073V288.08811354338235Q748.3974074074073 287.0081135433823 748.2574074074073 286.2781135433824Q748.1074074074073 285.5481135433824 747.9474074074074 285.09811354338245Q747.7474074074073 284.57811354338247 747.5174074074073 284.2581135433824L749.1374074074073 283.60811354338244Q749.2974074074073 283.8081135433825 749.4774074074073 284.08811354338246Q749.6274074074072 284.34811354338245 749.7674074074073 284.6881135433825T749.9974074074073 285.49811354338243Q750.3574074074073 284.4481135433825 751.0474074074073 283.98811354338244Q751.7274074074073 283.5381135433824 752.5974074074073 283.5381135433824Q753.0074074074073 283.5381135433824 753.3674074074073 283.6281135433824Q753.7274074074073 283.72811354338245 753.7074074074073 283.72811354338245L753.1374074074073 285.72811354338245Q753.1474074074073 285.72811354338245 752.9274074074074 285.6281135433824Q752.6974074074074 285.5281135433824 752.2474074074073 285.5281135433824M757.7874074074073 292.61811354338244L762.4674074074073 280.4281135433824H764.1574074074074L768.8574074074073 292.61811354338244H766.5674074074072L765.4574074074073 289.4281135433824H761.0674074074072L759.9074074074073 292.61811354338244ZM761.6374074074074 287.84811354338245H764.8974074074074Q764.3174074074074 286.22811354338245 763.9074074074074 284.8981135433824Q763.4974074074073 283.57811354338236 763.2774074074073 282.81811354338237Q763.0274074074073 283.6281135433823 762.6074074074073 284.94811354338236Q762.1974074074074 286.2581135433823 761.6374074074073 287.84811354338234M771.6274074074073 292.69811354338236Q770.6074074074073 292.69811354338236 770.1174074074073 292.1281135433823T769.6274074074073 290.67811354338227V279.93811354338226L771.6874074074074 279.55811354338226V290.4781135433822Q771.6874074074074 290.8981135433822 771.8474074074073 291.05811354338226T772.3174074074074 291.21811354338223Q772.4974074074073 291.21811354338223 772.6674074074074 291.19811354338225Q772.8374074074075 291.18811354338226 772.9774074074073 291.1481135433823Q773.1374074074074 291.10811354338233 773.2674074074074 291.07811354338224L773.5174074074074 292.3681135433822Q773.2874074074074 292.45811354338224 772.9974074074074 292.53811354338217Q772.7474074074074 292.6081135433822 772.4074074074074 292.6481135433822Q772.0574074074075 292.69811354338214 771.6274074074074 292.69811354338214M776.6374074074074 292.69811354338214Q775.6174074074074 292.69811354338214 775.1274074074074 292.1281135433821Q774.6474074074074 291.55811354338204 774.6474074074074 290.67811354338204V279.93811354338203L776.6974074074075 279.55811354338204V290.478113543382Q776.6974074074075 290.89811354338195 776.8574074074074 291.05811354338204T777.3274074074075 291.218113543382Q777.5074074074075 291.218113543382 777.6774074074076 291.198113543382Q777.8474074074076 291.18811354338203 777.9874074074075 291.14811354338207Q778.1574074074076 291.1081135433821 778.2774074074075 291.078113543382L778.5274074074075 292.368113543382Q778.2974074074075 292.458113543382 778.0074074074075 292.53811354338194Q777.7574074074075 292.608113543382 777.4174074074076 292.64811354338195Q777.0774074074077 292.6981135433819 776.6374074074076 292.6981135433819M780.1474074074076 290.40811354338194Q780.1674074074076 290.38811354338196 780.4374074074076 290.238113543382T781.3374074074077 290.088113543382T782.2574074074076 290.468113543382Q782.5474074074077 290.838113543382 782.5474074074077 291.41811354338205Q782.5474074074077 292.15811354338206 782.3374074074077 292.7481135433821Q782.1274074074076 293.3481135433821 781.7874074074077 293.82811354338213Q781.4474074074077 294.31811354338214 781.0074074074078 294.67811354338215T780.0774074074077 295.2681135433822L779.3074074074077 294.2281135433822Q780.0074074074078 293.70811354338224 780.2474074074078 293.17811354338227Q780.4974074074078 292.6581135433823 780.4974074074078 292.17811354338227Q780.4974074074078 291.6481135433823 780.3274074074077 291.19811354338225Q780.1674074074076 290.7481135433822 780.1474074074076 290.4081135433823M787.6974074074077 292.6181135433823L792.3774074074076 280.42811354338227H794.0674074074077L798.7674074074077 292.6181135433823H796.4774074074077L795.3574074074077 289.42811354338227H790.9674074074077L789.8174074074077 292.6181135433823ZM791.5474074074077 287.84811354338234H794.8074074074077Q794.2274074074078 286.22811354338234 793.8174074074077 284.8981135433823Q793.3974074074076 283.57811354338224 793.1874074074077 282.81811354338225Q792.9274074074077 283.6281135433822 792.5174074074077 284.94811354338225Q792.1074074074077 286.2581135433822 791.5474074074077 287.8481135433822 "></path><path fill="#fe5e02" d="M805.2574074074075 280.3781135433822L804.3674074074074 281.54811354338216Q804.3174074074075 281.4881135433822 804.0374074074075 281.3481135433821Q803.7574074074075 281.19811354338214 803.5074074074075 281.19811354338214Q803.3474074074074 281.19811354338214 803.1074074074075 281.2481135433821Q802.8774074074075 281.28811354338205 802.6574074074076 281.44811354338214Q802.4474074074076 281.5981135433821 802.2874074074075 281.8881135433822Q802.1374074074076 282.17811354338215 802.1374074074076 282.6381135433822Q802.1374074074076 282.83811354338224 802.1674074074076 283.08811354338224Q802.1974074074076 283.3481135433822 802.2874074074075 283.6481135433822H804.5174074074075L804.2674074074075 285.1081135433822H802.3874074074076V292.16811354338216Q802.3874074074076 293.2481135433822 802.1074074074077 293.9681135433821Q801.8374074074077 294.69811354338214 801.3874074074076 295.19811354338214Q800.9374074074076 295.68811354338214 800.3874074074076 296.0281135433822Q799.8374074074076 296.3581135433822 799.2974074074076 296.6281135433822L798.4674074074076 295.2581135433822Q799.1374074074076 294.91811354338216 799.5074074074076 294.5281135433822Q799.8874074074076 294.1481135433822 800.0774074074077 293.7581135433822T800.3074074074077 293.0081135433822Q800.3374074074077 292.6481135433822 800.3374074074077 292.3581135433822V285.1081135433822H798.7174074074076V283.6481135433822H800.2874074074076Q800.2174074074076 283.3781135433822 800.1874074074076 283.08811354338224Q800.1574074074076 282.80811354338226 800.1574074074076 282.54811354338227Q800.1574074074076 281.82811354338224 800.4174074074076 281.2781135433823Q800.6774074074076 280.71811354338234 801.1174074074077 280.35811354338233Q801.5674074074076 279.9981135433823 802.1474074074076 279.8081135433824Q802.7374074074075 279.6181135433823 803.3674074074077 279.6181135433823Q804.0674074074076 279.6181135433823 804.5174074074075 279.83811354338235Q804.9674074074076 280.06811354338237 805.2574074074075 280.3781135433823M811.3774074074076 280.3781135433823L810.4874074074075 281.54811354338227Q810.4374074074076 281.4881135433823 810.1574074074076 281.3481135433822Q809.8774074074076 281.19811354338225 809.6274074074076 281.19811354338225Q809.4674074074076 281.19811354338225 809.2274074074077 281.2481135433822Q808.9974074074076 281.28811354338217 808.7774074074077 281.44811354338225Q808.5674074074077 281.5981135433822 808.4074074074076 281.8881135433823Q808.2574074074078 282.17811354338227 808.2574074074078 282.6381135433823Q808.2574074074078 282.83811354338235 808.2874074074077 283.08811354338235Q808.3174074074077 283.34811354338234 808.4074074074076 283.6481135433823H810.6374074074076L810.3874074074076 285.10811354338233H808.5074074074078V292.1681135433823Q808.5074074074078 293.2481135433823 808.2274074074078 293.96811354338223Q807.9574074074078 294.69811354338225 807.5074074074078 295.19811354338225Q807.0574074074077 295.68811354338226 806.5074074074078 296.0281135433823Q805.9574074074077 296.35811354338233 805.4174074074077 296.6281135433823L804.5874074074077 295.2581135433823Q805.2574074074078 294.9181135433823 805.6274074074078 294.5281135433823Q806.0074074074078 294.1481135433823 806.1974074074078 293.7581135433823T806.4274074074078 293.0081135433823Q806.4574074074078 292.6481135433823 806.4574074074078 292.35811354338233V285.10811354338233H804.8374074074077V283.6481135433823H806.4074074074077Q806.3374074074077 283.3781135433823 806.3074074074077 283.08811354338235Q806.2774074074077 282.8081135433824 806.2774074074077 282.5481135433824Q806.2774074074077 281.82811354338236 806.5374074074077 281.2781135433824Q806.7974074074077 280.71811354338246 807.2374074074078 280.35811354338244Q807.6874074074077 279.99811354338243 808.2674074074077 279.8081135433825Q808.8574074074077 279.61811354338244 809.4874074074078 279.61811354338244Q810.1874074074077 279.61811354338244 810.6374074074076 279.83811354338246Q811.0874074074077 280.0681135433825 811.3774074074076 280.3781135433824M815.4274074074077 283.4481135433825Q817.4974074074078 283.4481135433825 818.4374074074077 284.6681135433825T819.3774074074076 288.0381135433825Q819.3774074074076 289.0381135433825 819.1174074074077 289.9181135433825Q818.8674074074077 290.7881135433825 818.3574074074077 291.4281135433825T817.0674074074077 292.4381135433825Q816.2974074074077 292.8081135433825 815.2674074074077 292.8081135433825Q814.2474074074078 292.8081135433825 813.4974074074078 292.48811354338244Q812.7474074074078 292.1781135433825 812.2674074074077 291.57811354338247Q811.7774074074077 290.98811354338244 811.5474074074077 290.1381135433824Q811.3274074074077 289.2981135433824 811.3274074074077 288.22811354338245Q811.3274074074077 287.20811354338247 811.5774074074077 286.32811354338247Q811.8274074074077 285.45811354338247 812.3474074074077 284.8181135433825Q812.8574074074077 284.1781135433825 813.6274074074076 283.8081135433825Q814.4074074074076 283.4481135433825 815.4274074074076 283.4481135433825M815.2474074074075 284.95811354338247Q814.7274074074076 284.95811354338247 814.3974074074076 285.1881135433825Q814.0674074074076 285.4281135433825 813.8774074074076 285.84811354338245T813.6174074074077 286.83811354338246Q813.5374074074076 287.4081135433825 813.5374074074076 288.0481135433825Q813.5374074074076 288.71811354338246 813.6174074074077 289.3081135433825Q813.7074074074076 289.9081135433825 813.9174074074076 290.34811354338245Q814.1374074074076 290.7881135433825 814.5074074074075 291.0381135433825T815.4474074074076 291.2881135433825Q815.9674074074076 291.2881135433825 816.3074074074076 291.0581135433825Q816.6374074074076 290.82811354338247 816.8274074074076 290.3981135433825Q817.0174074074075 289.97811354338256 817.0874074074076 289.4181135433825T817.1574074074076 288.21811354338246Q817.1574074074076 287.5481135433825 817.0774074074076 286.95811354338247Q816.9974074074075 286.35811354338244 816.7774074074075 285.9081135433825Q816.5674074074076 285.45811354338247 816.1974074074076 285.20811354338247T815.2474074074075 284.95811354338247M824.9674074074076 285.5281135433825Q824.6474074074076 285.5281135433825 824.3274074074077 285.6981135433825Q823.9974074074076 285.85811354338244 823.7474074074076 286.13811354338253T823.3374074074077 286.8081135433825Q823.1674074074076 287.20811354338247 823.1674074074076 287.6881135433825V292.62811354338254H821.1174074074077V288.0881135433826Q821.1174074074077 287.00811354338254 820.9774074074076 286.27811354338263Q820.8274074074077 285.5481135433826 820.6674074074076 285.0981135433827Q820.4674074074076 284.5781135433827 820.2374074074075 284.25811354338265L821.8574074074077 283.6081135433827Q822.0174074074076 283.8081135433827 822.1974074074076 284.0881135433827Q822.3474074074076 284.3481135433827 822.4874074074075 284.6881135433827T822.7174074074076 285.49811354338266Q823.0774074074077 284.4481135433827 823.7674074074076 283.98811354338267Q824.4474074074076 283.5381135433826 825.3174074074077 283.5381135433826Q825.7274074074077 283.5381135433826 826.0874074074077 283.62811354338265Q826.4474074074076 283.7281135433827 826.4274074074076 283.7281135433827L825.8574074074077 285.7281135433827Q825.8674074074077 285.7281135433827 825.6474074074076 285.62811354338265Q825.4174074074076 285.52811354338263 824.9674074074076 285.52811354338263M835.4874074074075 292.11811354338266L833.8774074074076 292.76811354338264Q833.8474074074077 292.74811354338266 833.7174074074076 292.5981135433827Q833.5974074074076 292.4481135433827 833.4374074074076 292.1781135433827Q833.2874074074076 291.90811354338274 833.1474074074076 291.4981135433828Q832.9974074074075 291.0981135433828 832.9674074074076 290.5581135433827Q832.6574074074076 291.63811354338276 831.9774074074076 292.1781135433827Q831.3074074074075 292.7281135433827 830.1574074074076 292.7281135433827Q829.3074074074075 292.7281135433827 828.6874074074076 292.41811354338273Q828.0674074074075 292.0981135433827 827.6574074074076 291.51811354338275Q827.2374074074075 290.9281135433827 827.0374074074075 290.1081135433828Q826.8474074074076 289.27811354338274 826.8474074074076 288.26811354338275Q826.8474074074076 287.2381135433828 827.1574074074076 286.3681135433828Q827.4774074074076 285.4981135433828 828.0374074074075 284.8681135433828Q828.6074074074075 284.2381135433828 829.3974074074076 283.87811354338277T831.1474074074076 283.51811354338275Q831.4674074074076 283.51811354338275 831.8374074074076 283.5481135433827Q832.2074074074076 283.5881135433827 832.5674074074076 283.63811354338276V279.5781135433828L834.6174074074077 279.9381135433828V288.28811354338285Q834.6174074074077 289.3681135433829 834.7474074074075 290.0781135433828Q834.8674074074077 290.78811354338285 835.0374074074076 291.2281135433828Q835.1974074074076 291.66811354338284 835.3274074074077 291.8681135433828Q835.4674074074076 292.0681135433828 835.4874074074077 292.1181135433828M830.4974074074076 291.27811354338274Q830.9474074074076 291.27811354338274 831.3274074074077 290.9681135433828T831.9774074074076 290.16811354338284Q832.2574074074075 289.66811354338284 832.4174074074076 289.03811354338285Q832.5674074074076 288.40811354338285 832.5674074074076 287.7481135433829V285.15811354338285Q832.3874074074076 285.0981135433829 832.0274074074075 285.02811354338286T831.3774074074076 284.9581135433828Q830.6974074074076 284.9581135433828 830.2574074074075 285.1881135433828Q829.8174074074076 285.42811354338284 829.5474074074076 285.8381135433828T829.1674074074076 286.8281135433828T829.0574074074076 288.0881135433828Q829.0574074074076 288.7181135433828 829.0974074074077 289.29811354338284Q829.1274074074076 289.8681135433829 829.2774074074076 290.30811354338283Q829.4374074074076 290.7481135433829 829.7274074074076 291.0081135433829Q830.0074074074075 291.27811354338286 830.4974074074075 291.27811354338286M844.0474074074076 284.03811354338285V288.28811354338285Q844.0474074074076 289.3681135433829 844.1874074074076 290.0981135433828Q844.3174074074076 290.8281135433828 844.4874074074075 291.27811354338274Q844.6774074074076 291.8181135433827 844.9174074074076 292.1181135433828L843.3174074074076 292.76811354338275Q843.0774074074076 292.53811354338274 842.8774074074076 292.2081135433828Q842.7174074074076 291.91811354338284 842.5774074074076 291.51811354338275Q842.4274074074076 291.1081135433828 842.3974074074076 290.5581135433827Q842.0874074074076 291.63811354338276 841.4174074074076 292.1781135433827Q840.7374074074075 292.7281135433827 839.5874074074076 292.7281135433827Q838.7374074074075 292.7281135433827 838.1174074074075 292.41811354338273Q837.4974074074075 292.0981135433827 837.0874074074076 291.51811354338275Q836.6674074074076 290.9281135433827 836.4774074074076 290.1081135433828Q836.2774074074075 289.27811354338274 836.2774074074075 288.26811354338275Q836.2774074074075 287.2381135433828 836.5874074074076 286.3681135433828Q836.9074074074076 285.4981135433828 837.4674074074076 284.8681135433828Q838.0374074074075 284.2381135433828 838.8274074074076 283.87811354338277Q839.6274074074076 283.51811354338275 840.5774074074076 283.51811354338275Q841.1174074074077 283.51811354338275 841.6974074074076 283.5981135433828Q842.2874074074075 283.67811354338284 842.7874074074075 283.76811354338275Q843.2974074074075 283.8581135433828 843.6474074074076 283.9381135433827T844.0474074074075 284.03811354338274M839.9274074074076 291.28811354338274Q840.3774074074075 291.28811354338274 840.7574074074075 290.9881135433828Q841.1374074074075 290.67811354338284 841.4174074074076 290.1881135433828Q841.6974074074076 289.6881135433828 841.8474074074076 289.04811354338284T841.9974074074075 287.7481135433829V285.15811354338285Q841.8174074074075 285.0981135433829 841.4574074074076 285.02811354338286T840.8074074074075 284.9581135433828Q840.1274074074075 284.9581135433828 839.6874074074076 285.1881135433828Q839.2474074074075 285.42811354338284 838.9774074074076 285.8381135433828T838.5974074074076 286.8281135433828T838.4874074074075 288.0881135433828Q838.4874074074075 288.7181135433828 838.5274074074075 289.29811354338284Q838.5574074074075 289.8681135433829 838.7174074074076 290.3181135433828Q838.8674074074075 290.76811354338287 839.1574074074076 291.02811354338286T839.9274074074076 291.28811354338285M846.2474074074075 292.1981135433828V279.92811354338284L848.2974074074075 279.5681135433828V285.05811354338283Q848.6274074074075 284.3181135433828 849.2074074074076 283.90811354338285Q849.7974074074075 283.5081135433829 850.7074074074076 283.5081135433829Q851.5574074074076 283.5081135433829 852.1774074074076 283.8181135433828Q852.7974074074076 284.1381135433829 853.2174074074076 284.7181135433828Q853.6274074074076 285.30811354338283 853.8274074074077 286.13811354338276Q854.0274074074076 286.9581135433828 854.0274074074076 287.9681135433828Q854.0274074074076 288.9981135433828 853.7074074074076 289.8681135433828Q853.3974074074076 290.7381135433828 852.8274074074077 291.3681135433828T851.4674074074076 292.3581135433828T849.7174074074076 292.7181135433828Q849.1774074074076 292.7181135433828 848.5674074074077 292.63811354338276T847.4374074074076 292.4681135433828Q846.8374074074077 292.3581135433828 846.2474074074076 292.1981135433828M850.3674074074077 284.9481135433828Q849.9174074074076 284.9481135433828 849.5374074074077 285.2481135433828Q849.1674074074076 285.5581135433827 848.8874074074076 286.0581135433827Q848.6074074074077 286.5681135433827 848.4474074074077 287.1981135433827Q848.2974074074077 287.8281135433827 848.2974074074077 288.48811354338267V291.0981135433827Q848.4574074074078 291.13811354338264 848.8174074074077 291.2081135433827T849.4874074074078 291.27811354338274Q850.1574074074077 291.27811354338274 850.6074074074077 291.0481135433827T851.3274074074077 290.39811354338275Q851.5974074074077 289.9881135433828 851.6974074074078 289.40811354338274Q851.8074074074077 288.8381135433827 851.8074074074077 288.14811354338275Q851.8074074074077 287.51811354338275 851.7774074074077 286.9481135433827Q851.7374074074078 286.36811354338266 851.5874074074078 285.91811354338273Q851.4274074074078 285.4681135433827 851.1474074074079 285.2081135433827Q850.8574074074078 284.9481135433827 850.3674074074079 284.9481135433827M857.5174074074077 292.6981135433827Q856.4874074074078 292.6981135433827 856.0074074074078 292.12811354338265Q855.5174074074077 291.5581135433826 855.5174074074077 290.6781135433826V279.9381135433826L857.5674074074078 279.5581135433826V290.47811354338256Q857.5674074074078 290.8981135433825 857.7274074074078 291.0581135433826Q857.8974074074079 291.2181135433826 858.1974074074078 291.2181135433826Q858.3774074074079 291.2181135433826 858.547407407408 291.1981135433826Q858.7174074074079 291.1881135433826 858.8674074074079 291.14811354338264Q859.027407407408 291.1081135433827 859.1574074074078 291.0781135433826L859.4074074074078 292.36811354338255Q859.1674074074078 292.4581135433826 858.8874074074079 292.5381135433825Q858.6274074074079 292.60811354338256 858.287407407408 292.6481135433825Q857.9474074074079 292.6981135433825 857.517407407408 292.6981135433825M868.047407407408 283.6581135433825L867.9574074074079 288.98811354338255Q867.9574074074079 289.5281135433825 868.037407407408 289.97811354338256T868.2174074074079 290.86811354338255T868.4074074074078 291.75811354338254T868.4974074074079 292.74811354338254Q868.4974074074079 294.6581135433825 867.5274074074078 295.59811354338257Q866.5474074074078 296.5281135433825 864.8974074074079 296.5281135433825Q864.3574074074079 296.5281135433825 863.8174074074079 296.4281135433825T862.8174074074079 296.20811354338247Q862.3574074074079 296.07811354338247 862.037407407408 295.95811354338247Q861.7074074074079 295.82811354338247 861.5974074074079 295.7781135433825L862.1074074074079 294.20811354338247Q862.3574074074079 294.3181135433825 862.6674074074078 294.4281135433825Q862.9874074074079 294.5481135433825 863.3174074074079 294.6581135433825Q863.6574074074078 294.7681135433825 864.0174074074079 294.83811354338246T864.7174074074078 294.9081135433825Q865.7274074074078 294.9081135433825 866.1774074074078 294.3081135433825T866.6274074074079 292.74811354338254Q866.6274074074079 291.88811354338253 866.2674074074077 290.9681135433826Q865.7574074074078 291.9181135433826 864.9174074074078 292.3281135433826Q864.0874074074078 292.72811354338256 863.1674074074078 292.72811354338256Q861.7474074074078 292.72811354338256 861.1374074074079 291.9081135433825Q860.5374074074077 291.07811354338247 860.5374074074077 289.63811354338253V283.6581135433825H862.5874074074078V289.57811354338247Q862.5874074074078 290.33811354338246 862.8574074074078 290.7681135433825T863.7774074074077 291.1981135433825Q864.1174074074078 291.1981135433825 864.5074074074078 291.0081135433824Q864.8974074074079 290.8081135433824 865.2074074074078 290.45811354338247Q865.5274074074077 290.10811354338244 865.7274074074078 289.60811354338244Q865.9374074074078 289.11811354338244 865.9374074074078 288.5381135433824V283.6581135433824ZM871.3774074074079 290.09811354338257Q872.0074074074079 290.09811354338257 872.3374074074079 290.4681135433826Q872.6674074074078 290.84811354338257 872.6674074074078 291.4481135433826Q872.6674074074078 292.01811354338264 872.3274074074079 292.4181135433826Q871.9874074074079 292.8081135433826 871.3174074074079 292.8081135433826Q870.6874074074078 292.8081135433826 870.3474074074079 292.4181135433826Q870.0074074074079 292.01811354338264 870.0074074074079 291.47811354338256Q870.0074074074079 290.9081135433825 870.3474074074079 290.49811354338254Q870.6874074074078 290.09811354338257 871.3774074074079 290.09811354338257M874.4574074074078 280.4381135433826H876.1774074074078L876.0374074074078 284.8081135433826H874.5974074074079ZM877.4974074074078 280.4381135433826H879.2274074074078L879.0774074074079 284.8081135433826H877.6374074074079ZM783.8014074074079 38.30911354338258Q784.0594074074078 38.30911354338258 784.3174074074078 38.20611354338257C785.1254074074078 37.84511354338258 786.1404074074078 36.93311354338255 787.1034074074078 34.800113543382565C789.5634074074078 31.480113543382572 792.8134074074078 26.700113543382543 793.9834074074079 23.10411354338254C794.3104074074079 22.107113543382525 794.3614074074078 21.09211354338254 794.1554074074079 20.232113543382525C793.8634074074079 18.9591135433825 793.0204074074079 18.202113543382552 791.9534074074079 18.099113543382543A34.4 34.4 0 0 0 794.1214074074078 11.133113543382535A6.36 6.36 0 0 0 793.8284074074079 7.7281135433825625C793.2094074074078 6.180113543382561 791.9364074074078 5.423113543382556 790.5604074074079 5.629113543382573L790.595407407408 5.40611354338256C790.8014074074079 4.184113543382551 790.6984074074079 2.980113543382572 790.3024074074078 2.000113543382554C789.4424074074079 -0.09788645661745932 787.4644074074079 -0.7518864566174557 785.5554074074079 0.48611354338254387Q784.1794074074079 1.3641135433825298 783.3194074074079 3.0661135433825564A37.8 37.8 0 0 0 780.7734074074078 11.219113543382548C780.8084074074079 9.912113543382532 780.7734074074078 8.65611354338256 780.6364074074079 7.590113543382529A5.16 5.16 0 0 0 779.5354074074079 4.907113543382536C778.3144074074079 3.410113543382522 776.5254074074079 3.393113543382526 775.287407407408 4.855113543382515Q774.392407407408 5.9221135433825225 774.1344074074079 7.521113543382512C773.5324074074078 11.305113543382504 774.2724074074079 17.0841135433825 774.960407407408 21.19511354338249C774.8404074074078 23.552113543382518 775.3384074074079 24.84211354338248 775.9064074074079 25.547113543382466Q776.3194074074079 26.011113543382464 776.8864074074079 26.097113543382477C777.179407407408 27.64511354338248 777.609407407408 29.348113543382453 778.2454074074079 30.9471135433825Q777.5404074074079 35.317113543382504 776.353407407408 41.26711354338249A27.5 27.5 0 0 1 773.7044074074079 34.26711354338249Q774.0484074074079 34.04411354338248 774.2544074074079 33.66511354338252C774.7714074074079 32.754113543382516 775.114407407408 31.154113543382493 774.547407407408 28.454113543382505C774.6164074074079 23.552113543382518 774.409407407408 16.68911354338252 773.051407407408 12.424113543382475A6.9 6.9 0 0 0 771.227407407408 9.534113543382489C769.507407407408 8.05411354338247 767.4434074074079 8.398113543382465 766.291407407408 10.359113543382477A6.36 6.36 0 0 0 765.517407407408 13.67911354338247C765.5864074074079 18.15111354338245 767.6154074074079 24.721113543382444 769.249407407408 29.331113543382457C769.593407407408 32.08311354338247 770.419407407408 33.45911354338244 771.210407407408 34.164113543382484Q771.675407407408 34.5601135433825 772.225407407408 34.62811354338248C772.569407407408 36.1251135433825 773.325407407408 38.84211354338248 774.719407407408 41.47411354338249Q775.235407407408 42.454113543382505 775.923407407408 43.4181135433825A367 367 0 0 1 768.527407407408 72.89811354338252A26 26 0 0 1 767.650407407408 68.63311354338254Q767.856407407408 68.49511354338256 768.0284074074079 68.28911354338254C768.544407407408 67.60111354338255 768.991407407408 66.32811354338253 768.785407407408 64.05811354338255C769.3014074074081 60.050113543382565 769.800407407408 54.42611354338254 769.0774074074079 50.814113543382575A5.16 5.16 0 0 0 767.873407407408 48.28511354338258C766.618407407408 46.9091135433826 764.898407407408 46.97811354338256 763.763407407408 48.457113543382604C763.247407407408 49.14511354338259 762.9034074074079 50.09111354338262 762.7994074074079 51.106113543382605C762.439407407408 54.78611354338261 763.4534074074079 60.342113543382595 764.3474074074079 64.26411354338262C764.3654074074079 66.55211354338263 764.9154074074079 67.77311354338264 765.5004074074079 68.4091135433826Q765.775407407408 68.7191135433826 766.136407407408 68.83911354338261C766.291407407408 70.21511354338259 766.704407407408 72.84711354338259 767.787407407408 75.34111354338262L766.687407407408 78.8321135433826A25.8 25.8 0 0 1 762.1634074074079 71.23011354338263Q762.438407407408 70.97211354338265 762.610407407408 70.54211354338264C763.006407407408 69.57911354338262 763.126407407408 67.96211354338266 762.1634074074079 65.34811354338262C761.527407407408 60.4981135433826 760.3404074074081 53.73811354338261 758.379407407408 49.69611354338264A6.9 6.9 0 0 0 756.143407407408 47.11611354338265C754.251407407408 45.89411354338267 752.256407407408 46.53111354338267 751.396407407408 48.62911354338263C751.0004074074079 49.59211354338265 750.880407407408 50.7961135433826 751.0864074074079 52.035113543382636C751.809407407408 56.45511354338265 754.7504074074079 62.64711354338266 757.037407407408 66.99911354338263V66.98211354338264C757.760407407408 69.66511354338263 758.7924074074081 70.90311354338263 759.687407407408 71.48811354338267Q760.185407407408 71.81511354338267 760.735407407408 71.79811354338267C761.045407407408 72.58811354338269 761.527407407408 73.72411354338266 762.2154074074081 75.01411354338268A22.4 22.4 0 0 0 766.171407407408 80.46611354338268A296 296 0 0 1 757.433407407408 104.0301135433827C756.986407407408 102.31011354338267 756.9174074074081 100.64211354338272 756.9174074074081 99.83411354338267L757.072407407408 99.73011354338269C757.5194074074079 99.21411354338267 757.949407407408 98.2681135433827 757.966407407408 96.49711354338268C758.6544074074079 93.43511354338267 759.4804074074079 89.10111354338267 759.187407407408 86.21111354338268A4.13 4.13 0 0 0 758.447407407408 84.14711354338266C757.5874074074079 82.99511354338267 756.2124074074079 82.94311354338265 755.249407407408 83.99211354338269Q754.5614074074081 84.78411354338266 754.285407407408 85.9701135433827C753.735407407408 88.80811354338272 754.113407407408 93.19411354338268 754.5094074074079 96.32511354338271C754.3374074074079 98.09611354338273 754.681407407408 99.07711354338272 755.094407407408 99.62711354338273Q755.197407407408 99.76511354338271 755.3864074074079 99.88511354338272C755.3864074074079 101.05511354338273 755.5414074074079 103.75511354338272 756.5214074074079 106.14611354338274Q755.6274074074079 108.26211354338272 754.6644074074079 110.34311354338274A24 24 0 0 1 752.1014074074079 103.77311354338275A1.7 1.7 0 0 0 752.497407407408 103.30811354338277C752.9614074074079 102.51711354338278 753.2714074074079 101.12411354338275 752.7724074074079 98.75011354338278V98.76711354338278C752.8414074074079 94.48411354338276 752.6694074074079 88.48211354338275 751.4824074074079 84.74911354338275C751.1384074074078 83.71711354338277 750.5874074074079 82.80611354338276 749.8994074074078 82.22111354338273C748.4034074074079 80.91411354338271 746.5974074074079 81.20611354338274 745.5994074074079 82.90911354338272A5.7 5.7 0 0 0 744.8944074074079 85.8331135433827C744.9464074074078 89.73711354338269 746.7004074074079 95.4651135433827 748.1284074074078 99.50711354338267C748.4204074074078 101.91511354338269 749.1604074074078 103.13611354338269 749.8484074074079 103.75511354338266C750.0704074074079 103.94511354338266 750.3364074074079 104.07511354338266 750.6224074074079 104.13411354338268C750.9144074074079 105.4411135433827 751.585407407408 107.88411354338268 752.8414074074078 110.2221135433827Q753.3224074074078 111.13411354338268 753.9074074074078 111.9771135433827Q752.6344074074078 114.72911354338271 751.2754074074078 117.51511354338271H751.2074074074078V117.61811354338272A203 203 0 0 1 738.8234074074078 139.42811354338272C738.6854074074079 137.88011354338272 738.7374074074078 136.4701135433827 738.8234074074078 135.67811354338272Q738.9954074074078 135.5921135433827 739.1674074074078 135.4551135433827C739.7864074074079 134.9051135433827 740.4224074074078 133.8041135433827 740.6294074074078 131.67111354338272C741.8334074074078 128.0591135433827 743.3124074074078 122.89911354338273 743.2954074074078 119.4241135433827C743.2954074074078 118.44411354338268 743.0544074074078 117.5321135433827 742.6244074074078 116.84411354338272C741.7124074074079 115.34811354338274 740.0784074074079 115.12411354338269 738.7884074074078 116.29411354338271Q737.8424074074078 117.15411354338272 737.4124074074078 118.56411354338269C736.3974074074079 121.91811354338267 736.3634074074079 127.2681135433827 736.5014074074079 131.06911354338268C736.0884074074079 133.1841135433827 736.3814074074078 134.40611354338267 736.8114074074078 135.11111354338266Q736.9994074074078 135.40311354338263 737.2754074074078 135.61011354338268C737.1894074074078 136.7801135433827 737.1034074074078 139.05011354338268 737.5154074074078 141.37211354338268L735.9674074074078 143.65911354338266L735.5374074074078 144.27911354338266A24 24 0 0 1 733.7834074074078 138.4991135433827Q734.0414074074079 138.32711354338267 734.1964074074078 138.06911354338268C734.7124074074079 137.2781135433827 735.0734074074078 135.9191135433827 734.7124074074079 133.5111135433827V133.5281135433827C735.0044074074078 129.2631135433827 735.1594074074078 123.24311354338266 734.1624074074078 119.4581135433827A5.7 5.7 0 0 0 732.6994074074078 116.84411354338272C731.2894074074078 115.46811354338274 729.4494074074078 115.6741135433827 728.3654074074078 117.32611354338275A5.7 5.7 0 0 0 727.5054074074078 120.19811354338276C727.3674074074079 124.10311354338273 728.8294074074079 129.91611354338278 730.0514074074079 134.04411354338276C730.2054074074078 136.45211354338278 730.8594074074078 137.70811354338275 731.5304074074078 138.34411354338278C731.7364074074078 138.54811354338278 731.9904074074077 138.69611354338275 732.2704074074078 138.77411354338278A25.8 25.8 0 0 0 734.5574074074077 145.72411354338277A227 227 0 0 0 722.1214074074078 166.34611354338278H726.1814074074077Q731.3924074074077 156.73111354338278 737.2064074074078 148.1481135433828C740.5944074074077 148.32011354338283 744.1204074074078 146.9781135433828 745.6344074074077 146.30811354338283Q745.9094074074078 146.51411354338285 746.2534074074078 146.6001135433828C747.0614074074078 146.77211354338283 748.3174074074078 146.63511354338283 750.1924074074078 145.56811354338282H750.1574074074078C753.8044074074078 144.43311354338283 758.8434074074078 142.64411354338284 761.6814074074077 140.58011354338282Q762.8854074074078 139.7031135433828 763.3844074074077 138.53411354338283C764.0724074074078 136.9171135433828 763.3154074074077 135.47211354338282 761.5954074074077 135.09411354338283Q760.3574074074078 134.83611354338285 758.9294074074078 135.31711354338285C755.6274074074078 136.45211354338284 751.2754074074078 139.53111354338284 748.2494074074077 141.85311354338285C746.3054074074078 142.76511354338282 745.4794074074077 143.72811354338285 745.1524074074077 144.46811354338286Q745.0664074074077 144.67411354338287 745.0664074074077 144.89811354338286C743.8624074074078 145.43111354338288 741.0414074074079 146.51411354338285 738.2384074074077 146.6181135433829L738.8744074074078 145.7061135433829L741.1964074074078 142.24911354338292A22.4 22.4 0 0 0 747.0104074074079 138.2591135433829Q747.3204074074079 138.36211354338292 747.6984074074078 138.3271135433829C748.4894074074078 138.2071135433829 749.6414074074078 137.67411354338287 751.0524074074078 136.04011354338292H751.0174074074077C754.0794074074079 133.77011354338293 758.2414074074078 130.3801135433829 760.2194074074077 127.50811354338293C760.7694074074078 126.70011354338294 761.0794074074079 125.82311354338293 761.1314074074078 125.0141135433829C761.2344074074078 123.26011354338289 760.0474074074077 122.14211354338289 758.2934074074078 122.36611354338288C757.4854074074078 122.46911354338289 756.6254074074077 122.83011354338288 755.8854074074077 123.44911354338291C753.1334074074077 125.61611354338288 750.0554074074078 129.9851135433829 747.9734074074078 133.18411354338292C746.4434074074078 134.68111354338293 745.9954074074078 135.86811354338295 745.9264074074077 136.67611354338294Q745.9264074074077 136.91611354338295 745.9954074074078 137.10611354338295A23.4 23.4 0 0 1 742.9854074074078 139.51411354338296C747.4574074074078 132.496113543383 751.4654074074078 125.23811354338295 755.0254074074078 117.94511354338294C757.3814074074078 116.91311354338296 759.3594074074078 115.50311354338294 760.4094074074078 114.69511354338294C760.6674074074078 114.83511354338293 760.9574074074078 114.90511354338292 761.2514074074078 114.90111354338296C762.1814074074077 114.84911354338294 763.5054074074078 114.38511354338294 765.2594074074077 112.69911354338296H765.2254074074078C768.8884074074078 110.48011354338297 773.8934074074077 107.14411354338296 776.4224074074077 104.13411354338297C777.1274074074078 103.29111354338295 777.5744074074078 102.34411354338295 777.7294074074077 101.43411354338298C778.0214074074078 99.49011354338296 776.8174074074078 98.11411354338298 774.8224074074078 98.16511354338297A5.7 5.7 0 0 0 772.0024074074079 99.128113543383C768.7164074074078 101.26111354338298 764.7954074074078 105.81911354338297 762.1464074074079 109.17311354338301C760.2544074074078 110.70411354338302 759.6174074074079 111.96011354338299 759.4634074074079 112.87111354338299A1.7 1.7 0 0 0 759.4804074074078 113.491113543383C758.7754074074078 114.041113543383 757.5534074074078 114.90111354338302 756.0744074074078 115.72611354338301Q758.6544074074078 110.27411354338301 760.9244074074079 104.890113543383A26 26 0 0 0 764.4344074074079 102.00011354338301Q764.7604074074079 102.104113543383 765.1214074074078 102.03511354338303C765.9304074074079 101.91511354338303 767.0654074074079 101.34711354338305 768.4414074074078 99.64511354338305C771.4514074074078 97.27111354338302 775.5274074074078 93.76211354338307 777.4544074074079 90.82111354338303Q778.2454074074078 89.54811354338301 778.3144074074078 88.27511354338304C778.3654074074078 86.50411354338303 777.1274074074079 85.40311354338303 775.3904074074078 85.69511354338306Q774.1174074074079 85.88511354338306 772.9824074074079 86.84811354338308C770.2824074074078 89.10111354338306 767.2894074074079 93.5731135433831 765.2764074074078 96.85811354338307C763.7804074074079 98.40611354338307 763.3504074074078 99.61011354338308 763.3164074074078 100.43611354338304Q763.3164074074078 100.65911354338306 763.3844074074078 100.86611354338305Q762.9204074074078 101.34711354338305 762.0944074074077 102.07011354338306A306 306 0 0 0 769.4044074074078 82.13511354338306C771.9844074074078 80.91411354338305 774.1004074074078 78.97011354338304 775.0974074074078 78.00711354338307Q775.4414074074077 78.09311354338308 775.7854074074078 78.04111354338306C776.6114074074078 77.90411354338306 777.7464074074078 77.33611354338308 779.1224074074078 75.63311354338305L779.0884074074078 75.66811354338307C782.1154074074077 73.27711354338305 786.2084074074078 69.7681135433831 788.1184074074077 66.81011354338307C788.6684074074078 65.98411354338305 788.9614074074077 65.09011354338304 788.9784074074078 64.28111354338307C789.0474074074077 62.492113543383084 787.8084074074077 61.40911354338306 786.0544074074078 61.68411354338309Q784.8154074074077 61.87411354338309 783.6464074074078 62.83611354338308C780.9634074074078 65.0901135433831 777.9704074074077 69.56211354338308 775.9574074074078 72.84611354338307C774.4444074074078 74.41211354338304 774.0144074074078 75.59911354338306 773.9794074074077 76.44211354338307Q773.9974074074078 76.64811354338309 774.0654074074077 76.87211354338308A22.4 22.4 0 0 1 770.0754074074077 80.03611354338307L771.3484074074078 75.96011354338304C772.3804074074078 74.68711354338302 773.1194074074078 73.46611354338302 773.6014074074078 72.45111354338303Q773.8594074074077 72.45111354338303 774.1174074074078 72.34811354338302C774.9434074074078 71.97011354338304 775.9574074074078 71.058113543383 776.9034074074077 68.92511354338302V68.94211354338302C779.3634074074077 65.62211354338302 782.6134074074077 60.84211354338299 783.7834074074078 57.24611354338299C784.1274074074078 56.249113543382975 784.1794074074078 55.23411354338299 783.9734074074078 54.374113543382975C783.5434074074078 52.51611354338297 781.9604074074077 51.725113543382975 780.2064074074078 52.48211354338298Q778.9674074074078 53.05011354338296 778.0214074074078 54.374113543382975Q777.2994074074078 55.44011354338295 776.5944074074077 56.85111354338295Q778.2624074074077 49.90211354338294 779.4664074074078 44.00211354338296A18.9 18.9 0 0 0 783.8014074074077 38.326113543382974M782.9064074074078 24.01611354338297L783.1304074074078 23.724113543382998L783.0274074074077 24.446113543382978L782.7174074074078 25.340113543382984ZM782.2874074074077 28.28211354338299Q782.3394074074077 29.10711354338298 782.5624074074077 29.640113543382995Q782.7004074074077 29.916113543383005 782.8724074074078 30.156113543383015Q782.4594074074078 30.706113543383026 781.8054074074078 31.360113543383022ZM781.4274074074077 33.648113543382976Q782.5114074074077 32.85711354338298 783.2504074074077 32.08311354338298L783.0444074074077 32.78811354338296C781.9094074074077 34.852113543382984 781.7884074074077 36.211113543382965 781.9944074074076 37.088113543382974Q782.0814074074076 37.48411354338299 782.3564074074077 37.77611354338296Q781.6334074074077 39.34111354338296 780.0164074074078 41.28511354338298Q780.8424074074078 37.10511354338297 781.4274074074077 33.648113543382976M778.7094074074078 28.024113543382953Q778.4344074074077 26.88811354338293 778.2284074074078 25.804113543382925Q778.4004074074078 25.719113543382946 778.5204074074077 25.581113543382912Q778.9164074074076 25.117113543382914 779.2084074074077 24.240113543382904L779.2604074074077 24.343113543382913Z "></path><rect width="55.446" height="38.42" x="339.1844074074074" y="-270.8018864566178" fill="none" rx="0" ry="0" transform="translate(263.01 389.65)"></rect><path fill="#fe5e02" d="M617.1074074074074 148.74811354338215H605.0374074074074V123.75811354338214H615.9874074074073V127.08811354338212H608.8074074074074V133.9881135433821H614.5874074074073V137.38811354338208H608.8074074074074V145.37811354338209H617.1074074074074ZM626.6974074074074 149.08811354338212Q625.2674074074073 149.08811354338212 623.8674074074074 148.7281135433821Q622.4774074074073 148.3681135433821 621.3874074074074 147.8481135433821Q620.2974074074074 147.31811354338214 619.7574074074074 146.77811354338212L621.5574074074074 143.5481135433821Q621.9374074074074 143.8481135433821 622.7374074074074 144.33811354338212Q623.5274074074074 144.83811354338212 624.5874074074075 145.20811354338213Q625.6374074074074 145.58811354338212 626.6974074074074 145.58811354338212Q628.4274074074074 145.58811354338212 629.5974074074074 144.76811354338213Q630.7774074074074 143.94811354338214 630.7774074074074 142.38811354338213Q630.7774074074074 141.0981135433821 630.0974074074074 140.24811354338215T628.3074074074074 138.74811354338215Q627.2074074074073 138.10811354338216 625.9274074074074 137.50811354338214Q624.6574074074074 136.91811354338216 623.4974074074073 136.16811354338216Q622.1674074074074 135.27811354338218 621.1874074074074 133.81811354338214Q620.1974074074074 132.35811354338216 620.1974074074074 130.04811354338216Q620.1974074074074 127.76811354338219 621.2374074074073 126.30811354338215T623.9874074074073 124.10811354338216Q625.7074074074073 123.37811354338214 627.7474074074073 123.37811354338214Q629.3774074074073 123.37811354338214 630.5374074074073 123.71811354338212Q631.6874074074074 124.05811354338209 632.4774074074073 124.53811354338211Q633.2574074074073 125.01811354338213 633.6974074074074 125.38811354338213L631.8974074074074 128.4781135433821Q631.3174074074074 127.8681135433821 630.1574074074074 127.33811354338212Q629.0074074074073 126.81811354338214 627.5774074074073 126.81811354338214Q625.9074074074074 126.81811354338214 624.9274074074074 127.57811354338213Q623.9374074074074 128.3481135433821 623.9374074074074 129.83811354338212Q623.9374074074074 131.1681135433821 624.8274074074073 132.0981135433821Q625.7074074074073 133.0381135433821 627.0874074074073 133.7981135433821Q628.4574074074073 134.56811354338208 629.9274074074074 135.3481135433821Q631.3874074074073 136.12811354338209 632.5074074074073 137.1881135433821Q633.4274074074074 137.9981135433821 634.0674074074072 139.2281135433821Q634.7174074074073 140.44811354338214 634.7174074074073 141.9781135433821Q634.7174074074073 144.2881135433821 633.6474074074073 145.88811354338213T630.7774074074073 148.2881135433821Q628.9674074074073 149.08811354338212 626.6974074074074 149.08811354338212M647.3274074074072 148.74811354338215H643.5574074074073V127.08811354338212H637.1674074074074V123.75811354338214H653.7874074074073V127.08811354338212H647.3274074074073ZM657.9374074074074 149.07811354338213Q656.9174074074074 149.07811354338213 656.2074074074073 148.37811354338214Q655.4874074074073 147.67811354338215 655.4874074074073 146.65811354338211Q655.4874074074073 145.6081135433821 656.1874074074072 144.90811354338211Q656.8874074074072 144.21811354338212 657.9374074074072 144.21811354338212Q659.0274074074073 144.21811354338212 659.7074074074072 144.90811354338211Q660.3874074074072 145.6081135433821 660.3874074074072 146.65811354338211Q660.3874074074072 147.6781135433821 659.6874074074072 148.37811354338214Q658.9974074074073 149.07811354338213 657.9374074074072 149.07811354338213 "></path><rect width="74.4" height="33.45" x="329.7074074074074" y="-268.31688645661785" fill="none" rx="0" ry="0" transform="translate(529.99 389.6)"></rect><path fill="#fe5e02" d="M877.0874074074075 147.30811354338215H862.2874074074074L869.5974074074074 138.15811354338217Q870.1974074074074 137.3881135433822 870.9474074074074 136.27811354338218Q871.7074074074073 135.16811354338216 872.2774074074074 133.96811354338217Q872.8574074074074 132.76811354338219 872.8574074074074 131.73811354338216Q872.8574074074074 130.10811354338216 871.9874074074073 129.21811354338217Q871.1074074074074 128.3281135433822 869.3674074074074 128.3281135433822Q868.1474074074074 128.3281135433822 867.3274074074073 128.85811354338216Q866.4974074074073 129.39811354338218 865.9774074074073 130.10811354338216T865.1574074074074 131.37811354338214L862.4074074074074 129.89811354338212Q862.9674074074073 128.82811354338213 863.8774074074074 127.74811354338215Q864.7774074074073 126.66811354338216 866.1374074074074 125.92811354338215T869.4574074074073 125.18811354338214Q871.7074074074073 125.18811354338214 873.2174074074073 125.98811354338216T875.4774074074073 128.17811354338215Q876.2374074074073 129.56811354338214 876.2374074074073 131.34811354338217Q876.2374074074073 133.24811354338215 875.2974074074073 135.22811354338216Q874.3674074074073 137.20811354338218 872.6774074074074 139.27811354338218L868.6574074074074 144.3781135433822H877.0874074074073ZM888.9074074074074 147.74811354338215Q886.7374074074074 147.74811354338215 885.2274074074074 146.85811354338216Q883.7274074074074 145.96811354338217 882.7774074074074 144.41811354338216T881.3974074074074 140.80811354338215T880.9674074074074 136.43811354338214Q880.9674074074074 134.03811354338217 881.3874074074074 131.99811354338215Q881.7974074074074 129.95811354338213 882.7174074074074 128.42811354338215Q883.6374074074074 126.90811354338217 885.1574074074075 126.04811354338216Q886.6874074074075 125.18811354338214 888.9074074074075 125.18811354338214Q891.8674074074075 125.18811354338214 893.5774074074075 126.63811354338213Q895.2974074074075 128.08811354338212 896.0474074074075 130.62811354338214Q896.8074074074075 133.15811354338211 896.8074074074075 136.43811354338214Q896.8074074074075 139.60811354338216 896.0174074074075 142.18811354338214Q895.2374074074075 144.75811354338214 893.5074074074075 146.25811354338214Q891.7774074074075 147.74811354338215 888.9074074074075 147.74811354338215M888.9074074074075 144.72811354338216Q890.2374074074075 144.72811354338216 891.0774074074075 144.01811354338219T892.3774074074074 142.09811354338217Q892.8374074074075 140.87811354338214 893.0174074074074 139.41811354338216Q893.1974074074074 137.94811354338214 893.1974074074074 136.43811354338214Q893.1974074074074 134.77811354338212 893.0174074074074 133.29811354338216T892.3774074074074 130.66811354338216T891.0774074074075 128.84811354338217T888.9074074074075 128.17811354338215Q887.5674074074075 128.17811354338215 886.7074074074075 128.84811354338217Q885.8574074074074 129.51811354338219 885.3974074074075 130.66811354338216T884.7574074074075 133.29811354338216T884.5774074074076 136.43811354338214Q884.5774074074076 137.94811354338214 884.7574074074075 139.41811354338216Q884.9374074074075 140.87811354338214 885.3974074074075 142.0781135433822T886.7074074074075 144.0081135433822Q887.5674074074075 144.72811354338222 888.9074074074075 144.72811354338222M915.3674074074075 147.3081135433822H900.5674074074076L907.8774074074075 138.15811354338223Q908.4674074074076 137.38811354338225 909.2274074074076 136.27811354338223Q909.9774074074076 135.16811354338222 910.5574074074076 133.96811354338223T911.1374074074076 131.7381135433822Q911.1374074074076 130.10811354338222 910.2574074074076 129.21811354338223Q909.3874074074076 128.32811354338224 907.6374074074076 128.32811354338224Q906.4274074074076 128.32811354338224 905.5974074074077 128.85811354338222Q904.7674074074076 129.39811354338224 904.2474074074076 130.10811354338222Q903.7374074074077 130.8181135433822 903.4374074074077 131.3781135433822L900.6874074074077 129.89811354338218Q901.2474074074076 128.8281135433822 902.1474074074077 127.7481135433822Q903.0574074074077 126.66811354338222 904.4174074074077 125.92811354338221T907.7274074074077 125.1881135433822Q909.9774074074077 125.1881135433822 911.4874074074077 125.98811354338221T913.7574074074076 128.1781135433822Q914.5074074074076 129.5681135433822 914.5074074074076 131.34811354338223Q914.5074074074076 133.2481135433822 913.5774074074077 135.22811354338222T910.9574074074077 139.27811354338223L906.9274074074077 144.37811354338226H915.3674074074078ZM925.7874074074075 147.7481135433822Q924.5774074074075 147.7481135433822 923.2674074074075 147.4981135433822Q921.9674074074076 147.2481135433822 920.8874074074075 146.79811354338221Q919.8074074074075 146.35811354338222 919.2174074074076 145.79811354338221L920.6074074074075 142.97811354338222Q921.3774074074075 143.57811354338224 922.7374074074075 144.14811354338224Q924.0974074074076 144.72811354338222 925.6374074074075 144.72811354338222Q926.9374074074075 144.72811354338222 928.0974074074076 144.38811354338225Q929.2474074074075 144.04811354338227 929.9774074074076 143.14811354338224Q930.6974074074076 142.2381135433822 930.6974074074076 140.61811354338226Q930.6974074074076 138.86811354338226 929.3274074074076 137.79811354338227Q927.9474074074076 136.73811354338227 925.6074074074075 136.73811354338227Q924.8974074074075 136.73811354338227 924.1574074074075 136.7781135433823Q923.4174074074075 136.8281135433823 922.8574074074075 136.91811354338228L928.3074074074076 128.44811354338225H920.1374074074076V125.54811354338227H934.1974074074076L928.0374074074076 134.3381135433823Q929.9574074074076 134.3981135433823 931.3674074074077 135.22811354338228T933.5474074074076 137.3981135433823Q934.3174074074076 138.74811354338232 934.3174074074076 140.3781135433823Q934.3174074074076 142.47811354338234 933.3174074074076 144.1481135433823Q932.3274074074076 145.8281135433823 930.4174074074076 146.78811354338228T925.7874074074076 147.74811354338226 "></path></g><rect width="560" height="297" x="470" y="0" id="space-saver" fill="transparent" stroke="transparent"></rect></g></svg>