<svg xmlns="http://www.w3.org/2000/svg" xml:space="preserve" width="1500" height="1500" viewBox="0 0 1500 1500" data-version="1" data-id="lg_HMlZoktsMCgzyp3l5I" x="0" y="0"><rect width="1500" height="1500" id="background" stroke="transparent" fill="#680031"></rect><g id="outer-wrapper" data-padding="20" transform="matrix(1.7857142857142858,0,0,1.7857142857142858,-589.2857142857144,-589.2857142857144)"><g id="inner-wrapper" transform="matrix(0.9642857142857143,0,0,0.9642857142857143,10,5.303571428571416)"><rect width="560" height="54.24" x="86.90740740740739" y="345.06589132115977" fill="none" rx="0" ry="0" transform="translate(400.5 478.46)"></rect><path fill="#fe5e02" d="M510.1674074074074 861.7158913211599V865.2258913211599H492.5074074074074V832.86589132116H496.3874074074074V861.7158913211599ZM522.1674074074074 851.58589132116L521.5474074074074 853.41589132116H533.0174074074074L532.3874074074074 851.54589132116L527.3474074074074 835.9858913211599Q526.7774074074074 838.05589132116 522.1674074074074 851.58589132116M520.4374074074074 856.7258913211599L517.5574074074074 865.2258913211599H513.3874074074074L524.6674074074074 832.86589132116H530.0374074074074L541.1274074074074 865.2258913211599H536.9474074074074L534.1174074074074 856.7258913211599ZM571.6574074074074 832.86589132116L560.3774074074074 865.2258913211599H555.4774074074073L544.5374074074074 832.86589132116H548.7074074074073L552.9374074074074 845.6858913211599L557.9774074074073 861.7158913211599Q559.8474074074073 855.66589132116 563.1574074074074 845.6858913211599L567.4774074074073 832.86589132116ZM595.1274074074074 861.8158913211599V865.2258913211599H577.0774074074073V832.86589132116H594.8874074074074V836.27589132116H580.9674074074073V847.36589132116H593.2574074074074V850.77589132116H580.9674074074073V861.81589132116ZM605.0174074074074 851.5858913211599V865.2258913211599H601.1274074074074V832.8658913211599H606.0274074074074L614.1374074074074 846.5058913211599L622.3474074074074 860.5158913211599Q622.1474074074074 855.8658913211599 622.1474074074074 846.5458913211598V832.8658913211598H626.0374074074075V865.2258913211599H621.1474074074074L613.0274074074075 851.6858913211598Q610.5874074074075 847.6058913211598 608.5174074074075 844.0758913211598Q606.4574074074075 840.5458913211598 605.5874074074075 839.0158913211599L604.7774074074075 837.5258913211599Q605.0174074074075 842.5158913211599 605.0174074074075 851.5858913211598M643.2274074074074 865.2258913211598H633.4274074074074V832.8658913211598H643.0274074074075Q650.1874074074075 832.8658913211598 654.7674074074075 837.3058913211598T659.3474074074074 848.8058913211598Q659.3474074074074 855.8158913211598 655.1074074074074 860.5158913211598Q650.8574074074074 865.2258913211597 643.2274074074074 865.2258913211597M642.9874074074074 836.3258913211598H637.3674074074074V861.8158913211598H643.1774074074074Q649.1774074074074 861.8158913211598 652.2474074074074 858.0958913211598T655.3174074074075 848.8058913211597Q655.3174074074075 843.5258913211597 651.8874074074074 839.9258913211597T642.9874074074074 836.3258913211597M683.2174074074074 861.8158913211597V865.2258913211597H665.1674074074074V832.8658913211598H682.9774074074074V836.2758913211597H669.0574074074075V847.3658913211598H681.3474074074074V850.7758913211597H669.0574074074075V861.8158913211598ZM697.5574074074075 836.2258913211597H693.0974074074074V849.1458913211598H697.9874074074074Q701.3074074074075 849.1458913211598 703.0574074074075 847.3458913211598T704.8074074074075 842.7058913211597Q704.8074074074075 836.2258913211597 697.5574074074075 836.2258913211597M698.1374074074074 852.4558913211597H693.0974074074074V865.2258913211597H689.2074074074073V832.8658913211598H697.3174074074075Q702.9374074074074 832.8658913211598 705.8374074074075 835.5058913211597Q708.7474074074074 838.1458913211598 708.7474074074074 842.8058913211597Q708.6474074074074 846.1658913211597 706.9674074074074 848.5158913211596T702.2174074074074 851.8258913211597L710.7074074074075 865.2258913211597H706.0574074074075ZM744.8874074074074 832.8658913211598V836.2758913211599H736.1474074074074V865.2258913211598H732.2674074074074V836.2758913211599H723.5274074074074V832.8658913211598ZM767.5374074074074 861.8158913211598V865.2258913211598H749.4874074074073V832.8658913211598H767.2974074074074V836.2758913211599H753.3774074074074V847.3658913211598H765.6574074074074V850.7758913211599H753.3774074074074V861.8158913211598ZM796.7274074074073 859.5058913211598V863.5858913211598Q793.7474074074073 865.6058913211598 788.5674074074074 865.6058913211598Q781.2674074074073 865.6058913211598 776.7074074074073 861.1158913211598T772.1474074074074 848.9058913211597Q772.1474074074074 841.6058913211598 776.7874074074073 837.0258913211597Q781.4174074074074 832.4358913211597 788.4274074074074 832.4358913211597Q793.4674074074073 832.4358913211597 796.6274074074073 834.1658913211597V838.1458913211598Q794.5174074074073 837.0458913211598 792.8374074074072 836.5658913211598T788.4274074074073 836.0858913211598Q783.1874074074072 836.0858913211598 779.7074074074072 839.6358913211598T776.2274074074072 848.9058913211597Q776.2274074074072 854.8558913211598 779.6874074074071 858.4058913211597T788.8574074074072 861.9558913211598Q793.4674074074072 861.9558913211598 796.7274074074072 859.5058913211599M825.9074074074074 832.86589132116V865.22589132116H822.0274074074074V850.58589132116H806.3274074074075V865.2258913211599H802.4374074074074V832.86589132116H806.3274074074075V847.0758913211599H822.0274074074074V832.86589132116ZM837.1774074074074 851.58589132116V865.2258913211599H833.2974074074074V832.86589132116H838.1874074074074L846.2974074074074 846.5058913211599L854.5074074074073 860.5158913211599Q854.3174074074074 855.86589132116 854.3174074074074 846.5458913211598V832.8658913211599H858.2074074074073V865.2258913211599H853.3074074074074L845.1974074074074 851.6858913211599Q842.7474074074073 847.6058913211599 840.6874074074074 844.0758913211598Q838.6174074074074 840.5458913211598 837.7574074074073 839.0158913211599L836.9374074074074 837.5258913211599Q837.1774074074074 842.5158913211599 837.1774074074074 851.5858913211598M893.2574074074074 848.9058913211599Q893.2574074074074 856.5358913211599 889.3474074074074 861.0658913211598Q885.4274074074075 865.6058913211599 878.7574074074075 865.6058913211599Q872.1874074074075 865.6058913211599 868.1974074074075 861.0458913211598Q864.2174074074074 856.4858913211599 864.2174074074074 848.90589132116Q864.2174074074074 841.2658913211599 868.1274074074074 836.7558913211599T878.7074074074075 832.2458913211599Q885.5274074074075 832.2458913211599 889.3874074074074 836.7358913211599Q893.2574074074074 841.2258913211599 893.2574074074074 848.90589132116M868.2974074074075 848.90589132116Q868.2974074074075 854.90589132116 871.1474074074074 858.40589132116Q874.0074074074075 861.90589132116 878.7574074074075 861.90589132116Q883.7074074074075 861.90589132116 886.4174074074075 858.4558913211599Q889.1274074074075 854.99589132116 889.1274074074075 848.90589132116Q889.1274074074075 842.80589132116 886.3874074074075 839.34589132116Q883.6574074074075 835.89589132116 878.7074074074076 835.89589132116Q873.8174074074075 835.89589132116 871.0574074074075 839.37589132116T868.2974074074075 848.90589132116M916.8674074074075 861.7158913211599V865.2258913211599H899.2074074074073V832.86589132116H903.0974074074073V861.7158913211599ZM949.7474074074075 848.90589132116Q949.7474074074075 856.53589132116 945.8374074074076 861.06589132116Q941.9274074074076 865.60589132116 935.2574074074075 865.60589132116Q928.6774074074075 865.60589132116 924.6974074074076 861.0458913211601Q920.7074074074076 856.48589132116 920.7074074074076 848.90589132116Q920.7074074074076 841.2658913211601 924.6274074074075 836.7558913211601Q928.5374074074075 832.2458913211601 935.2074074074076 832.2458913211601Q942.0274074074076 832.2458913211601 945.8874074074075 836.7358913211601T949.7474074074075 848.9058913211601M924.7874074074075 848.9058913211601Q924.7874074074075 854.9058913211601 927.6474074074075 858.4058913211601T935.2574074074075 861.9058913211601Q940.1974074074076 861.9058913211601 942.9074074074075 858.4558913211602Q945.6274074074075 854.9958913211601 945.6274074074075 848.9058913211601Q945.6274074074075 842.8058913211601 942.8874074074075 839.34589132116Q940.1474074074075 835.8958913211601 935.2074074074076 835.8958913211601Q930.3074074074076 835.8958913211601 927.5474074074076 839.3758913211601T924.7874074074076 848.9058913211601M980.9074074074074 862.5458913211601L980.9474074074074 862.6858913211599Q977.0674074074074 865.61589132116 970.9174074074074 865.61589132116Q963.4274074074074 865.61589132116 958.8674074074074 861.17589132116T954.3074074074075 849.00589132116Q954.3074074074075 841.66589132116 958.8474074074074 836.98589132116T970.2974074074075 832.3058913211601Q976.0074074074075 832.3058913211601 979.7474074074075 834.51589132116V838.6858913211599Q975.8174074074076 836.09589132116 970.6274074074075 836.09589132116Q965.2074074074076 836.09589132116 961.7974074074075 839.62589132116T958.3874074074075 849.00589132116Q958.3874074074075 855.00589132116 961.7474074074075 858.4358913211599Q965.1074074074075 861.87589132116 971.0174074074075 861.87589132116Q974.2774074074075 861.87589132116 977.0674074074075 860.57589132116V850.49589132116H969.9574074074075V847.08589132116H980.9474074074075V862.54589132116ZM992.0474074074074 832.86589132116V865.22589132116H988.1574074074074V832.86589132116ZM1017.7574074074074 861.81589132116V865.22589132116H999.7074074074073V832.86589132116H1017.5174074074073V836.2758913211601H1003.5974074074073V847.36589132116H1015.8874074074073V850.7758913211601H1003.5974074074073V861.81589132116ZM1042.4874074074073 856.63589132116Q1042.4874074074073 860.91589132116 1039.5574074074075 863.23589132116Q1036.6274074074076 865.56589132116 1032.0274074074075 865.56589132116Q1026.9374074074076 865.56589132116 1023.3874074074075 863.50589132116V859.32589132116Q1026.8874074074074 861.9658913211599 1031.9274074074074 861.9658913211599Q1034.9474074074074 861.9658913211599 1036.6774074074074 860.62589132116Q1038.4074074074074 859.27589132116 1038.4074074074074 856.73589132116Q1038.4074074074074 855.67589132116 1037.9974074074075 854.83589132116T1036.6574074074074 853.3058913211601Q1035.7174074074073 852.60589132116 1034.8774074074076 852.1558913211601Q1034.0374074074075 851.6958913211602 1032.5974074074074 851.0258913211601Q1032.3074074074075 850.8758913211601 1031.7374074074075 850.6358913211601Q1029.6674074074076 849.7258913211601 1028.5874074074077 849.1558913211601Q1027.5074074074075 848.57589132116 1026.0474074074077 847.4458913211602T1023.9074074074076 844.83589132116Q1023.2374074074077 843.34589132116 1023.2374074074077 841.3758913211601Q1023.2374074074077 837.2458913211601 1026.1874074074076 834.9158913211602Q1029.1474074074076 832.5958913211601 1033.6074074074077 832.5958913211601Q1037.7874074074075 832.5958913211601 1040.7074074074076 834.0758913211602V838.1558913211602Q1037.7874074074077 836.2358913211601 1033.7074074074076 836.2358913211601Q1030.7774074074077 836.2358913211601 1029.0474074074077 837.6058913211601T1027.3174074074077 841.1858913211602Q1027.3174074074077 842.33589132116 1027.7774074074077 843.2458913211601Q1028.2274074074078 844.1558913211602 1029.3874074074079 844.9558913211602Q1030.5374074074077 845.7458913211601 1031.347407407408 846.1558913211601Q1032.1674074074078 846.5558913211601 1033.8974074074076 847.32589132116Q1035.5274074074077 848.0458913211601 1036.3874074074079 848.4558913211602Q1037.2574074074078 848.8658913211601 1038.6274074074076 849.7558913211601Q1039.9874074074078 850.6358913211601 1040.6874074074076 851.4758913211601T1041.9374074074076 853.6858913211602T1042.4874074074078 856.6358913211601 "></path><rect width="217.651" height="20.34" x="258.08140740740737" y="362.01589132116" fill="none" rx="0" ry="0" transform="translate(400.5 538.56)"></rect><path fill="#fe5e02" d="M661.0074074074074 904.2158913211599H662.7374074074074L662.5974074074074 908.58589132116H661.1574074074074ZM664.0474074074075 904.2158913211599H665.7774074074075L665.6374074074074 908.58589132116H664.1974074074075ZM666.6574074074074 904.2058913211599H675.1574074074074L674.8874074074074 905.82589132116H671.8674074074074V916.39589132116H669.7374074074075V905.82589132116H666.6574074074075ZM675.7774074074075 912.13589132116Q675.7774074074075 910.92589132116 676.1074074074074 910.0158913211599Q676.4474074074074 909.09589132116 677.0274074074075 908.4758913211599Q677.6174074074074 907.85589132116 678.4074074074074 907.5358913211599Q679.1974074074075 907.2258913211599 680.1174074074074 907.2258913211599Q680.9274074074074 907.2258913211599 681.4974074074074 907.41589132116Q682.0574074074075 907.61589132116 682.4174074074074 907.9558913211599Q682.7774074074075 908.3058913211601 682.9474074074074 908.7658913211599Q683.1274074074074 909.2358913211599 683.1274074074074 909.7758913211599Q683.1274074074074 910.42589132116 682.7674074074074 911.0058913211599Q682.4074074074074 911.59589132116 681.7274074074073 912.0358913211599Q681.0574074074074 912.4758913211599 680.0974074074074 912.7358913211599Q679.1474074074074 912.9958913211599 677.9574074074073 913.0158913211599Q678.0074074074074 913.4358913211599 678.1274074074074 913.7958913211598Q678.2474074074074 914.16589132116 678.4674074074073 914.4458913211599Q678.6974074074074 914.7258913211599 679.0574074074074 914.88589132116Q679.4174074074074 915.0558913211598 679.9574074074073 915.0558913211598Q680.3474074074073 915.0558913211598 680.7974074074073 914.9658913211599T681.6274074074073 914.7458913211599Q682.0774074074072 914.6058913211598 682.5074074074073 914.4258913211597L683.0474074074073 915.6958913211597Q682.5874074074073 915.9358913211597 682.0474074074073 916.1158913211598Q681.5774074074072 916.2758913211596 680.9674074074073 916.4058913211597Q680.3474074074073 916.5258913211596 679.6674074074074 916.5258913211596Q678.6274074074073 916.5258913211596 677.8874074074074 916.2158913211597Q677.1474074074074 915.8958913211598 676.6774074074074 915.3258913211598Q676.2074074074073 914.7458913211597 675.9974074074073 913.9358913211597Q675.7774074074073 913.1258913211598 675.7774074074073 912.1358913211598M679.9574074074073 908.6258913211598Q679.3574074074073 908.6258913211598 678.9774074074073 908.9058913211597Q678.5874074074073 909.1858913211597 678.3574074074073 909.6258913211598Q678.1174074074073 910.0658913211598 678.0174074074073 910.6158913211598T677.9074074074074 911.7258913211599Q678.7674074074073 911.6858913211599 679.3674074074073 911.4958913211599Q679.9774074074073 911.3058913211598 680.3474074074073 911.0258913211599Q680.7274074074073 910.7458913211599 680.8974074074074 910.4258913211597T681.0674074074074 909.7758913211599Q681.0674074074074 909.2558913211599 680.7674074074073 908.9358913211597Q680.4574074074073 908.6258913211598 679.9574074074073 908.6258913211598M690.6174074074074 908.4458913211599L689.4674074074073 909.5458913211598Q689.1974074074074 909.2358913211599 688.9174074074074 909.0258913211599Q688.6374074074074 908.8058913211598 688.1674074074074 908.8058913211598Q687.8974074074074 908.8058913211598 687.5674074074074 908.88589132116T686.9474074074074 909.2858913211599Q686.6574074074074 909.5958913211598 686.4674074074073 910.2058913211599Q686.2774074074073 910.8258913211598 686.2774074074073 911.8658913211598Q686.2774074074073 912.9258913211597 686.4674074074073 913.5458913211598T686.9574074074073 914.5158913211599Q687.2574074074073 914.8558913211598 687.5974074074073 914.9558913211599T688.2574074074073 915.0558913211598Q688.5174074074073 915.0558913211598 688.7874074074073 915.0058913211599Q689.0574074074073 914.9658913211599 689.3074074074073 914.89589132116Q689.5574074074073 914.83589132116 689.7474074074073 914.7858913211599Q689.9374074074074 914.7258913211599 690.0274074074073 914.6958913211599L690.5274074074073 915.9858913211599Q690.4774074074073 916.0058913211599 690.2874074074073 916.0958913211598T689.7774074074073 916.2758913211599Q689.4474074074074 916.3658913211598 688.9974074074073 916.4458913211597T687.9874074074073 916.5258913211599Q686.9474074074074 916.5258913211599 686.2074074074073 916.2158913211599Q685.4674074074073 915.8958913211598 684.9974074074073 915.3258913211598Q684.5174074074073 914.7458913211599 684.2874074074074 913.9358913211599Q684.0674074074074 913.12589132116 684.0674074074074 912.13589132116Q684.0674074074074 910.9458913211599 684.3774074074074 910.0258913211599Q684.6974074074074 909.11589132116 685.2574074074073 908.4858913211599Q685.8174074074074 907.86589132116 686.5674074074074 907.5458913211598Q687.3274074074073 907.2258913211599 688.1874074074074 907.2258913211599Q689.0374074074074 907.2258913211599 689.6174074074074 907.5458913211598Q690.2074074074073 907.86589132116 690.6174074074074 908.4458913211599M693.8274074074073 903.3558913211598V908.5858913211598Q694.3474074074073 907.90589132116 695.0774074074073 907.5958913211598Q695.8074074074074 907.2958913211598 696.6174074074074 907.2958913211598Q697.9974074074073 907.2958913211598 698.6174074074074 908.12589132116Q699.2374074074073 908.9658913211599 699.2374074074073 910.38589132116V916.40589132116H697.1874074074074V910.5358913211599Q697.1874074074074 909.7758913211599 696.9174074074074 909.3358913211598T695.9974074074073 908.8958913211598Q695.6274074074074 908.8958913211598 695.2374074074073 909.0958913211598T694.5374074074074 909.6558913211597Q694.2174074074073 910.0258913211599 694.0174074074074 910.5358913211599Q693.8274074074075 911.0358913211599 693.8274074074075 911.6458913211598V916.4058913211597H691.7674074074074V903.7158913211597ZM707.8774074074074 904.2158913211599V915.9558913211599Q707.8774074074074 917.0358913211599 707.5874074074073 917.7558913211599Q707.2874074074073 918.4858913211599 706.8274074074073 918.9958913211599Q706.3674074074074 919.4958913211599 705.7974074074074 919.8258913211598Q705.2374074074073 920.14589132116 704.6974074074074 920.41589132116L703.8474074074073 918.9958913211599Q704.5474074074073 918.65589132116 704.9374074074074 918.2658913211599T705.5074074074073 917.5058913211599T705.7074074074073 916.7958913211598Q705.7374074074073 916.4558913211599 705.7374074074073 916.16589132116V904.2158913211599ZM713.6574074074074 907.2258913211599Q715.7274074074073 907.2258913211599 716.6674074074074 908.4458913211599Q717.5974074074073 909.66589132116 717.5974074074073 911.8158913211598Q717.5974074074073 912.8158913211598 717.3474074074073 913.6958913211599Q717.0974074074073 914.5658913211598 716.5874074074073 915.2058913211599Q716.0674074074074 915.8458913211598 715.2974074074073 916.2158913211599T713.4974074074073 916.5858913211598T711.7274074074073 916.2658913211599Q710.9774074074073 915.9558913211599 710.4874074074073 915.3558913211598Q710.0074074074073 914.7658913211599 709.7774074074073 913.9158913211597Q709.5574074074073 913.0758913211598 709.5574074074073 912.0058913211599Q709.5574074074073 910.9858913211599 709.8074074074073 910.1058913211598Q710.0574074074073 909.2358913211599 710.5674074074072 908.5958913211598Q711.0874074074072 907.9558913211599 711.8574074074073 907.5858913211598Q712.6374074074073 907.2258913211599 713.6574074074074 907.2258913211599M713.4774074074073 908.7358913211599Q712.9574074074073 908.7358913211599 712.6274074074073 908.9658913211599Q712.2874074074073 909.2058913211599 712.0974074074073 909.6258913211598Q711.9174074074074 910.0458913211598 711.8374074074073 910.6158913211598Q711.7674074074073 911.1858913211599 711.7674074074073 911.8258913211598Q711.7674074074073 912.4958913211599 711.8474074074073 913.0858913211598Q711.9274074074074 913.6858913211599 712.1474074074074 914.1258913211598T712.7274074074073 914.8158913211598Q713.0974074074073 915.0658913211598 713.6774074074074 915.0658913211598Q714.1974074074074 915.0658913211598 714.5274074074073 914.8358913211598Q714.8674074074073 914.6058913211598 715.0574074074073 914.17589132116Q715.2474074074073 913.7558913211599 715.3174074074072 913.1958913211599T715.3874074074073 911.9958913211599Q715.3874074074073 911.3258913211598 715.3074074074073 910.7358913211599Q715.2274074074073 910.1358913211598 715.0074074074073 909.6858913211599Q714.7974074074073 909.2358913211599 714.4274074074074 908.9858913211599T713.4774074074073 908.7358913211599M726.6074074074073 907.4358913211599L726.5174074074073 912.7658913211599Q726.5174074074073 913.3058913211598 726.5974074074073 913.7558913211599L726.7774074074073 914.64589132116Q726.8774074074074 915.08589132116 726.9674074074073 915.5358913211599T727.0574074074073 916.5258913211599Q727.0574074074073 918.4358913211599 726.0874074074072 919.37589132116Q725.1174074074072 920.3058913211598 723.4574074074073 920.3058913211598Q722.9174074074073 920.3058913211598 722.3774074074073 920.2058913211599T721.3774074074073 919.9858913211599Q720.9274074074074 919.8558913211598 720.5974074074073 919.7358913211599Q720.2774074074073 919.6058913211598 720.1674074074074 919.5558913211598L720.6674074074074 917.9858913211599Q720.9274074074074 918.0958913211598 721.2374074074073 918.2058913211599Q721.5574074074073 918.3258913211598 721.8874074074073 918.4358913211599T722.5774074074072 918.6158913211598T723.2774074074073 918.6858913211599Q724.2874074074073 918.6858913211599 724.7374074074073 918.0858913211598T725.1874074074072 916.5258913211599Q725.1874074074072 915.66589132116 724.8274074074072 914.7458913211599Q724.3274074074072 915.6958913211599 723.4874074074073 916.10589132116Q722.6474074074073 916.5058913211599 721.7374074074073 916.5058913211599Q720.3074074074073 916.5058913211599 719.7074074074073 915.6858913211599Q719.1074074074072 914.8558913211598 719.1074074074072 913.41589132116V907.4358913211599H721.1574074074073V913.3558913211598Q721.1574074074073 914.1158913211598 721.4274074074073 914.5458913211598T722.3474074074072 914.9758913211599Q722.6874074074072 914.9758913211599 723.0774074074072 914.7858913211599Q723.4574074074073 914.5858913211598 723.7774074074073 914.2358913211599Q724.0874074074072 913.8858913211598 724.2974074074073 913.3858913211598Q724.5074074074073 912.8958913211598 724.5074074074073 912.3158913211598V907.4358913211597ZM738.6474074074074 904.15589132116L737.7574074074073 905.3258913211598Q737.7074074074073 905.2658913211599 737.4274074074074 905.1258913211598Q737.1474074074074 904.9758913211599 736.8974074074074 904.9758913211599Q736.7374074074073 904.9758913211599 736.4974074074074 905.0258913211599Q736.2674074074074 905.0658913211598 736.0474074074075 905.2258913211599Q735.8374074074075 905.3758913211598 735.6774074074074 905.66589132116Q735.5274074074075 905.9558913211599 735.5274074074075 906.41589132116Q735.5274074074075 906.61589132116 735.5574074074075 906.86589132116Q735.5874074074075 907.12589132116 735.6774074074074 907.42589132116H737.9074074074074L737.6574074074074 908.88589132116H735.7774074074074V915.9458913211599Q735.7774074074074 917.0258913211599 735.4974074074074 917.7458913211599Q735.2274074074074 918.4758913211599 734.7774074074074 918.9758913211599Q734.3274074074075 919.4658913211599 733.7774074074074 919.8058913211598Q733.2274074074073 920.13589132116 732.6874074074074 920.40589132116L731.8574074074074 919.0358913211599Q732.5274074074075 918.6958913211599 732.8974074074074 918.3058913211598Q733.2774074074075 917.92589132116 733.4674074074074 917.5358913211599T733.6974074074075 916.7858913211599Q733.7274074074074 916.42589132116 733.7274074074074 916.13589132116V908.88589132116H732.1074074074074V907.42589132116H733.6774074074074Q733.6074074074074 907.15589132116 733.5774074074075 906.86589132116Q733.5474074074075 906.58589132116 733.5474074074075 906.32589132116Q733.5474074074075 905.60589132116 733.8074074074075 905.0558913211601Q734.0674074074075 904.4958913211601 734.5074074074074 904.13589132116Q734.9574074074073 903.7758913211601 735.5374074074074 903.58589132116Q736.1274074074074 903.39589132116 736.7574074074074 903.39589132116Q737.4574074074073 903.39589132116 737.9074074074074 903.61589132116Q738.3574074074074 903.84589132116 738.6474074074074 904.15589132116M742.7074074074073 907.2258913211601Q744.7774074074074 907.2258913211601 745.7174074074073 908.4458913211602T746.6574074074074 911.81589132116Q746.6574074074074 912.81589132116 746.3974074074074 913.6958913211602Q746.1474074074074 914.56589132116 745.6374074074074 915.2058913211602T744.3474074074074 916.2158913211601Q743.5774074074075 916.58589132116 742.5474074074074 916.58589132116Q741.5274074074074 916.58589132116 740.7774074074074 916.2658913211601Q740.0274074074074 915.9558913211602 739.5474074074074 915.35589132116Q739.0574074074074 914.7658913211601 738.8274074074073 913.91589132116Q738.6074074074073 913.07589132116 738.6074074074073 912.0058913211601Q738.6074074074073 910.9858913211601 738.8574074074073 910.10589132116Q739.1074074074073 909.2358913211601 739.6274074074073 908.59589132116Q740.1374074074073 907.9558913211602 740.9074074074073 907.58589132116Q741.6874074074072 907.2258913211601 742.7074074074073 907.2258913211601M742.5274074074073 908.7358913211601Q742.0074074074073 908.7358913211601 741.6774074074073 908.9658913211601Q741.3474074074072 909.2058913211602 741.1574074074073 909.62589132116T740.8974074074073 910.61589132116Q740.8174074074072 911.1858913211602 740.8174074074072 911.82589132116Q740.8174074074072 912.4958913211601 740.8974074074073 913.08589132116Q740.9874074074073 913.6858913211602 741.1974074074074 914.12589132116Q741.4174074074074 914.56589132116 741.7874074074073 914.81589132116T742.7274074074073 915.06589132116Q743.2474074074073 915.06589132116 743.5874074074072 914.83589132116Q743.9174074074073 914.60589132116 744.1074074074072 914.1758913211602Q744.2974074074073 913.7558913211601 744.3674074074072 913.1958913211602T744.4374074074072 911.9958913211601Q744.4374074074072 911.32589132116 744.3574074074072 910.7358913211601Q744.2774074074073 910.13589132116 744.0574074074073 909.6858913211602Q743.8474074074072 909.2358913211601 743.4774074074073 908.9858913211601T742.5274074074073 908.7358913211601M752.2474074074073 909.3058913211601Q751.9274074074074 909.3058913211601 751.6074074074073 909.4758913211601Q751.2774074074073 909.63589132116 751.0274074074073 909.9158913211602T750.6174074074073 910.58589132116Q750.4474074074074 910.9858913211601 750.4474074074074 911.4658913211601V916.4058913211602H748.3974074074073V911.8658913211602Q748.3974074074073 910.7858913211601 748.2574074074073 910.0558913211603Q748.1074074074073 909.3258913211603 747.9474074074074 908.8758913211602Q747.7474074074073 908.3558913211602 747.5174074074073 908.0358913211603L749.1374074074073 907.3858913211602Q749.2974074074073 907.5858913211603 749.4774074074073 907.8658913211602Q749.6274074074072 908.1258913211602 749.7674074074073 908.4658913211604T749.9974074074073 909.2758913211603Q750.3574074074073 908.2258913211604 751.0474074074073 907.7658913211603Q751.7274074074073 907.3158913211603 752.5974074074073 907.3158913211603Q753.0074074074073 907.3158913211603 753.3674074074073 907.4058913211602Q753.7274074074073 907.5058913211603 753.7074074074073 907.5058913211603L753.1374074074073 909.5058913211603Q753.1474074074073 909.5058913211603 752.9274074074074 909.4058913211602Q752.6974074074074 909.3058913211603 752.2474074074073 909.3058913211603M757.7874074074073 916.3958913211602L762.4674074074073 904.2058913211602H764.1574074074074L768.8574074074073 916.3958913211602H766.5674074074072L765.4574074074073 913.2058913211602H761.0674074074072L759.9074074074073 916.3958913211602ZM761.6374074074074 911.6258913211602H764.8974074074074Q764.3174074074074 910.0058913211603 763.9074074074074 908.6758913211602Q763.4974074074073 907.3558913211602 763.2774074074073 906.5958913211603Q763.0274074074073 907.4058913211602 762.6074074074073 908.7258913211601Q762.1974074074074 910.0358913211601 761.6374074074073 911.6258913211602M771.6274074074073 916.4758913211601Q770.6074074074073 916.4758913211601 770.1174074074073 915.9058913211602T769.6274074074073 914.4558913211602V903.7158913211601L771.6874074074074 903.33589132116V914.2558913211601Q771.6874074074074 914.67589132116 771.8474074074073 914.83589132116T772.3174074074074 914.9958913211601Q772.4974074074073 914.9958913211601 772.6674074074074 914.9758913211601Q772.8374074074075 914.9658913211601 772.9774074074073 914.9258913211602Q773.1374074074074 914.8858913211602 773.2674074074074 914.85589132116L773.5174074074074 916.14589132116Q773.2874074074074 916.2358913211601 772.9974074074074 916.31589132116Q772.7474074074074 916.38589132116 772.4074074074074 916.42589132116Q772.0574074074075 916.4758913211599 771.6274074074074 916.4758913211599M776.6374074074074 916.4758913211599Q775.6174074074074 916.4758913211599 775.1274074074074 915.90589132116Q774.6474074074074 915.3358913211598 774.6474074074074 914.4558913211599V903.7158913211599L776.6974074074075 903.3358913211598V914.2558913211599Q776.6974074074075 914.6758913211597 776.8574074074074 914.8358913211598T777.3274074074075 914.9958913211599Q777.5074074074075 914.9958913211599 777.6774074074076 914.9758913211599Q777.8474074074076 914.9658913211599 777.9874074074075 914.92589132116Q778.1574074074076 914.88589132116 778.2774074074075 914.8558913211598L778.5274074074075 916.1458913211598Q778.2974074074075 916.2358913211599 778.0074074074075 916.3158913211598Q777.7574074074075 916.3858913211598 777.4174074074076 916.4258913211597Q777.0774074074077 916.4758913211597 776.6374074074076 916.4758913211597M780.1474074074076 914.1858913211597Q780.1674074074076 914.1658913211597 780.4374074074076 914.0158913211599T781.3374074074077 913.8658913211598T782.2574074074076 914.2458913211599Q782.5474074074077 914.6158913211598 782.5474074074077 915.1958913211599Q782.5474074074077 915.9358913211599 782.3374074074077 916.5258913211599Q782.1274074074076 917.12589132116 781.7874074074077 917.60589132116Q781.4474074074077 918.09589132116 781.0074074074078 918.4558913211599T780.0774074074077 919.0458913211601L779.3074074074077 918.0058913211601Q780.0074074074078 917.4858913211601 780.2474074074078 916.9558913211602Q780.4974074074078 916.4358913211602 780.4974074074078 915.9558913211602Q780.4974074074078 915.4258913211602 780.3274074074077 914.9758913211601Q780.1674074074076 914.5258913211601 780.1474074074076 914.1858913211602M787.6974074074077 916.3958913211602L792.3774074074076 904.2058913211602H794.0674074074077L798.7674074074077 916.3958913211602H796.4774074074077L795.3574074074077 913.2058913211602H790.9674074074077L789.8174074074077 916.3958913211602ZM791.5474074074077 911.6258913211602H794.8074074074077Q794.2274074074078 910.0058913211601 793.8174074074077 908.6758913211602Q793.3974074074076 907.35589132116 793.1874074074077 906.59589132116Q792.9274074074077 907.40589132116 792.5174074074077 908.7258913211601Q792.1074074074077 910.0358913211601 791.5474074074077 911.62589132116 "></path><path fill="#fe5e02" d="M805.2574074074075 904.15589132116L804.3674074074074 905.3258913211598Q804.3174074074075 905.2658913211599 804.0374074074075 905.1258913211598Q803.7574074074075 904.9758913211599 803.5074074074075 904.9758913211599Q803.3474074074074 904.9758913211599 803.1074074074075 905.0258913211599Q802.8774074074075 905.0658913211598 802.6574074074076 905.2258913211599Q802.4474074074076 905.3758913211598 802.2874074074075 905.66589132116Q802.1374074074076 905.9558913211599 802.1374074074076 906.41589132116Q802.1374074074076 906.61589132116 802.1674074074076 906.86589132116Q802.1974074074076 907.12589132116 802.2874074074075 907.42589132116H804.5174074074075L804.2674074074075 908.88589132116H802.3874074074076V915.9458913211599Q802.3874074074076 917.0258913211599 802.1074074074077 917.7458913211599Q801.8374074074077 918.4758913211599 801.3874074074076 918.9758913211599Q800.9374074074076 919.4658913211599 800.3874074074076 919.8058913211598Q799.8374074074076 920.13589132116 799.2974074074076 920.40589132116L798.4674074074076 919.0358913211599Q799.1374074074076 918.6958913211599 799.5074074074076 918.3058913211598Q799.8874074074076 917.92589132116 800.0774074074077 917.5358913211599T800.3074074074077 916.7858913211599Q800.3374074074077 916.42589132116 800.3374074074077 916.13589132116V908.88589132116H798.7174074074076V907.42589132116H800.2874074074076Q800.2174074074076 907.15589132116 800.1874074074076 906.86589132116Q800.1574074074076 906.58589132116 800.1574074074076 906.32589132116Q800.1574074074076 905.60589132116 800.4174074074076 905.0558913211601Q800.6774074074076 904.4958913211601 801.1174074074077 904.13589132116Q801.5674074074076 903.7758913211601 802.1474074074076 903.58589132116Q802.7374074074075 903.39589132116 803.3674074074077 903.39589132116Q804.0674074074076 903.39589132116 804.5174074074075 903.61589132116Q804.9674074074076 903.84589132116 805.2574074074075 904.15589132116M811.3774074074076 904.15589132116L810.4874074074075 905.32589132116Q810.4374074074076 905.2658913211601 810.1574074074076 905.12589132116Q809.8774074074076 904.9758913211599 809.6274074074076 904.9758913211599Q809.4674074074076 904.9758913211599 809.2274074074077 905.0258913211599Q808.9974074074076 905.0658913211598 808.7774074074077 905.2258913211599Q808.5674074074077 905.37589132116 808.4074074074076 905.66589132116Q808.2574074074078 905.9558913211599 808.2574074074078 906.41589132116Q808.2574074074078 906.61589132116 808.2874074074077 906.86589132116Q808.3174074074077 907.12589132116 808.4074074074076 907.42589132116H810.6374074074076L810.3874074074076 908.88589132116H808.5074074074078V915.9458913211599Q808.5074074074078 917.0258913211601 808.2274074074078 917.7458913211599Q807.9574074074078 918.4758913211599 807.5074074074078 918.9758913211599Q807.0574074074077 919.4658913211599 806.5074074074078 919.8058913211601Q805.9574074074077 920.13589132116 805.4174074074077 920.40589132116L804.5874074074077 919.0358913211601Q805.2574074074078 918.6958913211599 805.6274074074078 918.3058913211601Q806.0074074074078 917.92589132116 806.1974074074078 917.5358913211601T806.4274074074078 916.7858913211601Q806.4574074074078 916.42589132116 806.4574074074078 916.13589132116V908.88589132116H804.8374074074077V907.42589132116H806.4074074074077Q806.3374074074077 907.15589132116 806.3074074074077 906.86589132116Q806.2774074074077 906.58589132116 806.2774074074077 906.32589132116Q806.2774074074077 905.60589132116 806.5374074074077 905.0558913211601Q806.7974074074077 904.4958913211601 807.2374074074078 904.1358913211602Q807.6874074074077 903.7758913211601 808.2674074074077 903.5858913211603Q808.8574074074077 903.3958913211602 809.4874074074078 903.3958913211602Q810.1874074074077 903.3958913211602 810.6374074074076 903.6158913211602Q811.0874074074077 903.8458913211603 811.3774074074076 904.1558913211602M815.4274074074077 907.2258913211601Q817.4974074074078 907.2258913211601 818.4374074074077 908.4458913211602T819.3774074074076 911.8158913211603Q819.3774074074076 912.8158913211603 819.1174074074077 913.6958913211602Q818.8674074074077 914.5658913211603 818.3574074074077 915.2058913211602T817.0674074074077 916.2158913211601Q816.2974074074077 916.5858913211603 815.2674074074077 916.5858913211603Q814.2474074074078 916.5858913211603 813.4974074074078 916.2658913211601Q812.7474074074078 915.9558913211602 812.2674074074077 915.3558913211602Q811.7774074074077 914.7658913211601 811.5474074074077 913.9158913211602Q811.3274074074077 913.07589132116 811.3274074074077 912.0058913211601Q811.3274074074077 910.9858913211601 811.5774074074077 910.1058913211602Q811.8274074074077 909.2358913211601 812.3474074074077 908.5958913211603Q812.8574074074077 907.9558913211602 813.6274074074076 907.5858913211603Q814.4074074074076 907.2258913211601 815.4274074074076 907.2258913211601M815.2474074074075 908.7358913211601Q814.7274074074076 908.7358913211601 814.3974074074076 908.9658913211601Q814.0674074074076 909.2058913211602 813.8774074074076 909.6258913211602T813.6174074074077 910.6158913211602Q813.5374074074076 911.1858913211602 813.5374074074076 911.8258913211603Q813.5374074074076 912.4958913211601 813.6174074074077 913.0858913211603Q813.7074074074076 913.6858913211602 813.9174074074076 914.1258913211602Q814.1374074074076 914.5658913211603 814.5074074074075 914.8158913211603T815.4474074074076 915.0658913211603Q815.9674074074076 915.0658913211603 816.3074074074076 914.8358913211603Q816.6374074074076 914.6058913211602 816.8274074074076 914.1758913211602Q817.0174074074075 913.7558913211603 817.0874074074076 913.1958913211602T817.1574074074076 911.9958913211601Q817.1574074074076 911.3258913211603 817.0774074074076 910.7358913211601Q816.9974074074075 910.1358913211602 816.7774074074075 909.6858913211602Q816.5674074074076 909.2358913211601 816.1974074074076 908.9858913211601T815.2474074074075 908.7358913211601M824.9674074074076 909.3058913211603Q824.6474074074076 909.3058913211603 824.3274074074077 909.4758913211601Q823.9974074074076 909.6358913211602 823.7474074074076 909.9158913211602T823.3374074074077 910.5858913211603Q823.1674074074076 910.9858913211601 823.1674074074076 911.4658913211601V916.4058913211602H821.1174074074077V911.8658913211602Q821.1174074074077 910.7858913211603 820.9774074074076 910.0558913211603Q820.8274074074077 909.3258913211603 820.6674074074076 908.8758913211605Q820.4674074074076 908.3558913211605 820.2374074074075 908.0358913211603L821.8574074074077 907.3858913211604Q822.0174074074076 907.5858913211605 822.1974074074076 907.8658913211605Q822.3474074074076 908.1258913211605 822.4874074074075 908.4658913211604T822.7174074074076 909.2758913211603Q823.0774074074077 908.2258913211604 823.7674074074076 907.7658913211603Q824.4474074074076 907.3158913211603 825.3174074074077 907.3158913211603Q825.7274074074077 907.3158913211603 826.0874074074077 907.4058913211604Q826.4474074074076 907.5058913211603 826.4274074074076 907.5058913211603L825.8574074074077 909.5058913211603Q825.8674074074077 909.5058913211603 825.6474074074076 909.4058913211604Q825.4174074074076 909.3058913211603 824.9674074074076 909.3058913211603M835.4874074074075 915.8958913211604L833.8774074074076 916.5458913211603Q833.8474074074077 916.5258913211603 833.7174074074076 916.3758913211605Q833.5974074074076 916.2258913211604 833.4374074074076 915.9558913211604Q833.2874074074076 915.6858913211604 833.1474074074076 915.2758913211605Q832.9974074074075 914.8758913211605 832.9674074074076 914.3358913211605Q832.6574074074076 915.4158913211604 831.9774074074076 915.9558913211604Q831.3074074074075 916.5058913211603 830.1574074074076 916.5058913211603Q829.3074074074075 916.5058913211603 828.6874074074076 916.1958913211604Q828.0674074074075 915.8758913211605 827.6574074074076 915.2958913211605Q827.2374074074075 914.7058913211604 827.0374074074075 913.8858913211604Q826.8474074074076 913.0558913211605 826.8474074074076 912.0458913211605Q826.8474074074076 911.0158913211606 827.1574074074076 910.1458913211604Q827.4774074074076 909.2758913211605 828.0374074074075 908.6458913211604Q828.6074074074075 908.0158913211606 829.3974074074076 907.6558913211604T831.1474074074076 907.2958913211605Q831.4674074074076 907.2958913211605 831.8374074074076 907.3258913211605Q832.2074074074076 907.3658913211605 832.5674074074076 907.4158913211604V903.3558913211605L834.6174074074077 903.7158913211606V912.0658913211605Q834.6174074074077 913.1458913211607 834.7474074074075 913.8558913211605Q834.8674074074077 914.5658913211605 835.0374074074076 915.0058913211606Q835.1974074074076 915.4458913211606 835.3274074074077 915.6458913211604Q835.4674074074076 915.8458913211605 835.4874074074077 915.8958913211604M830.4974074074076 915.0558913211605Q830.9474074074076 915.0558913211605 831.3274074074077 914.7458913211606T831.9774074074076 913.9458913211606Q832.2574074074075 913.4458913211606 832.4174074074076 912.8158913211605Q832.5674074074076 912.1858913211606 832.5674074074076 911.5258913211605V908.9358913211606Q832.3874074074076 908.8758913211607 832.0274074074075 908.8058913211605T831.3774074074076 908.7358913211606Q830.6974074074076 908.7358913211606 830.2574074074075 908.9658913211606Q829.8174074074076 909.2058913211606 829.5474074074076 909.6158913211605T829.1674074074076 910.6058913211605T829.0574074074076 911.8658913211605Q829.0574074074076 912.4958913211606 829.0974074074077 913.0758913211605Q829.1274074074076 913.6458913211607 829.2774074074076 914.0858913211605Q829.4374074074076 914.5258913211605 829.7274074074076 914.7858913211605Q830.0074074074075 915.0558913211605 830.4974074074075 915.0558913211605M844.0474074074076 907.8158913211605V912.0658913211605Q844.0474074074076 913.1458913211607 844.1874074074076 913.8758913211605Q844.3174074074076 914.6058913211605 844.4874074074075 915.0558913211605Q844.6774074074076 915.5958913211605 844.9174074074076 915.8958913211604L843.3174074074076 916.5458913211605Q843.0774074074076 916.3158913211605 842.8774074074076 915.9858913211606Q842.7174074074076 915.6958913211606 842.5774074074076 915.2958913211605Q842.4274074074076 914.8858913211604 842.3974074074076 914.3358913211605Q842.0874074074076 915.4158913211604 841.4174074074076 915.9558913211604Q840.7374074074075 916.5058913211603 839.5874074074076 916.5058913211603Q838.7374074074075 916.5058913211603 838.1174074074075 916.1958913211604Q837.4974074074075 915.8758913211605 837.0874074074076 915.2958913211605Q836.6674074074076 914.7058913211604 836.4774074074076 913.8858913211604Q836.2774074074075 913.0558913211605 836.2774074074075 912.0458913211605Q836.2774074074075 911.0158913211606 836.5874074074076 910.1458913211604Q836.9074074074076 909.2758913211605 837.4674074074076 908.6458913211604Q838.0374074074075 908.0158913211606 838.8274074074076 907.6558913211604Q839.6274074074076 907.2958913211605 840.5774074074076 907.2958913211605Q841.1174074074077 907.2958913211605 841.6974074074076 907.3758913211605Q842.2874074074075 907.4558913211606 842.7874074074075 907.5458913211605Q843.2974074074075 907.6358913211604 843.6474074074076 907.7158913211604T844.0474074074075 907.8158913211605M839.9274074074076 915.0658913211605Q840.3774074074075 915.0658913211605 840.7574074074075 914.7658913211606Q841.1374074074075 914.4558913211606 841.4174074074076 913.9658913211606Q841.6974074074076 913.4658913211606 841.8474074074076 912.8258913211605T841.9974074074075 911.5258913211605V908.9358913211606Q841.8174074074075 908.8758913211607 841.4574074074076 908.8058913211605T840.8074074074075 908.7358913211606Q840.1274074074075 908.7358913211606 839.6874074074076 908.9658913211606Q839.2474074074075 909.2058913211606 838.9774074074076 909.6158913211605T838.5974074074076 910.6058913211605T838.4874074074075 911.8658913211605Q838.4874074074075 912.4958913211606 838.5274074074075 913.0758913211605Q838.5574074074075 913.6458913211607 838.7174074074076 914.0958913211605Q838.8674074074075 914.5458913211605 839.1574074074076 914.8058913211605T839.9274074074076 915.0658913211605M846.2474074074075 915.9758913211606V903.7058913211606L848.2974074074075 903.3458913211605V908.8358913211605Q848.6274074074075 908.0958913211605 849.2074074074076 907.6858913211606Q849.7974074074075 907.2858913211605 850.7074074074076 907.2858913211605Q851.5574074074076 907.2858913211605 852.1774074074076 907.5958913211605Q852.7974074074076 907.9158913211606 853.2174074074076 908.4958913211606Q853.6274074074076 909.0858913211605 853.8274074074077 909.9158913211604Q854.0274074074076 910.7358913211606 854.0274074074076 911.7458913211606Q854.0274074074076 912.7758913211605 853.7074074074076 913.6458913211604Q853.3974074074076 914.5158913211606 852.8274074074077 915.1458913211604T851.4674074074076 916.1358913211604T849.7174074074076 916.4958913211606Q849.1774074074076 916.4958913211606 848.5674074074077 916.4158913211604T847.4374074074076 916.2458913211606Q846.8374074074077 916.1358913211604 846.2474074074076 915.9758913211606M850.3674074074077 908.7258913211606Q849.9174074074076 908.7258913211606 849.5374074074077 909.0258913211605Q849.1674074074076 909.3358913211605 848.8874074074076 909.8358913211605Q848.6074074074077 910.3458913211605 848.4474074074077 910.9758913211604Q848.2974074074077 911.6058913211605 848.2974074074077 912.2658913211603V914.8758913211605Q848.4574074074078 914.9158913211604 848.8174074074077 914.9858913211604T849.4874074074078 915.0558913211605Q850.1574074074077 915.0558913211605 850.6074074074077 914.8258913211605T851.3274074074077 914.1758913211604Q851.5974074074077 913.7658913211606 851.6974074074078 913.1858913211604Q851.8074074074077 912.6158913211605 851.8074074074077 911.9258913211604Q851.8074074074077 911.2958913211605 851.7774074074077 910.7258913211604Q851.7374074074078 910.1458913211604 851.5874074074078 909.6958913211604Q851.4274074074078 909.2458913211603 851.1474074074079 908.9858913211604Q850.8574074074078 908.7258913211604 850.3674074074079 908.7258913211604M857.5174074074077 916.4758913211604Q856.4874074074078 916.4758913211604 856.0074074074078 915.9058913211604Q855.5174074074077 915.3358913211603 855.5174074074077 914.4558913211604V903.7158913211604L857.5674074074078 903.3358913211603V914.2558913211603Q857.5674074074078 914.6758913211602 857.7274074074078 914.8358913211603Q857.8974074074079 914.9958913211603 858.1974074074078 914.9958913211603Q858.3774074074079 914.9958913211603 858.547407407408 914.9758913211604Q858.7174074074079 914.9658913211604 858.8674074074079 914.9258913211604Q859.027407407408 914.8858913211604 859.1574074074078 914.8558913211602L859.4074074074078 916.1458913211602Q859.1674074074078 916.2358913211604 858.8874074074079 916.3158913211603Q858.6274074074079 916.3858913211602 858.287407407408 916.4258913211602Q857.9474074074079 916.4758913211601 857.517407407408 916.4758913211601M868.047407407408 907.4358913211602L867.9574074074079 912.7658913211603Q867.9574074074079 913.3058913211603 868.037407407408 913.7558913211603T868.2174074074079 914.6458913211602T868.4074074074078 915.5358913211603T868.4974074074079 916.5258913211603Q868.4974074074079 918.4358913211602 867.5274074074078 919.3758913211602Q866.5474074074078 920.3058913211603 864.8974074074079 920.3058913211603Q864.3574074074079 920.3058913211603 863.8174074074079 920.2058913211602T862.8174074074079 919.9858913211601Q862.3574074074079 919.8558913211602 862.037407407408 919.7358913211601Q861.7074074074079 919.6058913211602 861.5974074074079 919.5558913211603L862.1074074074079 917.9858913211601Q862.3574074074079 918.0958913211603 862.6674074074078 918.2058913211602Q862.9874074074079 918.3258913211603 863.3174074074079 918.4358913211602Q863.6574074074078 918.5458913211603 864.0174074074079 918.6158913211602T864.7174074074078 918.6858913211602Q865.7274074074078 918.6858913211602 866.1774074074078 918.0858913211603T866.6274074074079 916.5258913211603Q866.6274074074079 915.6658913211602 866.2674074074077 914.7458913211603Q865.7574074074078 915.6958913211604 864.9174074074078 916.1058913211602Q864.0874074074078 916.5058913211603 863.1674074074078 916.5058913211603Q861.7474074074078 916.5058913211603 861.1374074074079 915.6858913211602Q860.5374074074077 914.8558913211602 860.5374074074077 913.4158913211602V907.4358913211602H862.5874074074078V913.3558913211602Q862.5874074074078 914.1158913211602 862.8574074074078 914.5458913211603T863.7774074074077 914.9758913211601Q864.1174074074078 914.9758913211601 864.5074074074078 914.7858913211601Q864.8974074074079 914.58589132116 865.2074074074078 914.2358913211601Q865.5274074074077 913.8858913211602 865.7274074074078 913.3858913211602Q865.9374074074078 912.8958913211602 865.9374074074078 912.31589132116V907.4358913211602ZM871.3774074074079 913.8758913211602Q872.0074074074079 913.8758913211602 872.3374074074079 914.2458913211603Q872.6674074074078 914.6258913211602 872.6674074074078 915.2258913211604Q872.6674074074078 915.7958913211603 872.3274074074079 916.1958913211604Q871.9874074074079 916.5858913211603 871.3174074074079 916.5858913211603Q870.6874074074078 916.5858913211603 870.3474074074079 916.1958913211604Q870.0074074074079 915.7958913211603 870.0074074074079 915.2558913211603Q870.0074074074079 914.6858913211602 870.3474074074079 914.2758913211603Q870.6874074074078 913.8758913211602 871.3774074074079 913.8758913211602M874.4574074074078 904.2158913211604H876.1774074074078L876.0374074074078 908.5858913211603H874.5974074074079ZM877.4974074074078 904.2158913211604H879.2274074074078L879.0774074074079 908.5858913211603H877.6374074074079ZM783.8014074074079 662.0868913211602Q784.0594074074078 662.0868913211602 784.3174074074078 661.9838913211603C785.1254074074078 661.6228913211603 786.1404074074078 660.7108913211603 787.1034074074078 658.5778913211602C789.5634074074078 655.2578913211603 792.8134074074078 650.4778913211603 793.9834074074079 646.8818913211603C794.3104074074079 645.8848913211602 794.3614074074078 644.8698913211603 794.1554074074079 644.0098913211602C793.8634074074079 642.7368913211602 793.0204074074079 641.9798913211603 791.9534074074079 641.8768913211602A34.4 34.4 0 0 0 794.1214074074078 634.9108913211603A6.36 6.36 0 0 0 793.8284074074079 631.5058913211603C793.2094074074078 629.9578913211603 791.9364074074078 629.2008913211603 790.5604074074079 629.4068913211603L790.595407407408 629.1838913211602C790.8014074074079 627.9618913211602 790.6984074074079 626.7578913211603 790.3024074074078 625.7778913211603C789.4424074074079 623.6798913211603 787.4644074074079 623.0258913211603 785.5554074074079 624.2638913211603Q784.1794074074079 625.1418913211603 783.3194074074079 626.8438913211603A37.8 37.8 0 0 0 780.7734074074078 634.9968913211603C780.8084074074079 633.6898913211603 780.7734074074078 632.4338913211602 780.6364074074079 631.3678913211602A5.16 5.16 0 0 0 779.5354074074079 628.6848913211602C778.3144074074079 627.1878913211602 776.5254074074079 627.1708913211603 775.287407407408 628.6328913211603Q774.392407407408 629.6998913211603 774.1344074074079 631.2988913211602C773.5324074074078 635.0828913211602 774.2724074074079 640.8618913211602 774.960407407408 644.9728913211602C774.8404074074078 647.3298913211602 775.3384074074079 648.6198913211601 775.9064074074079 649.3248913211602Q776.3194074074079 649.7888913211602 776.8864074074079 649.8748913211602C777.179407407408 651.4228913211603 777.609407407408 653.1258913211602 778.2454074074079 654.7248913211602Q777.5404074074079 659.0948913211603 776.353407407408 665.0448913211602A27.5 27.5 0 0 1 773.7044074074079 658.0448913211602Q774.0484074074079 657.8218913211601 774.2544074074079 657.4428913211602C774.7714074074079 656.5318913211602 775.114407407408 654.9318913211603 774.547407407408 652.2318913211602C774.6164074074079 647.3298913211602 774.409407407408 640.4668913211602 773.051407407408 636.2018913211602A6.9 6.9 0 0 0 771.227407407408 633.3118913211601C769.507407407408 631.8318913211601 767.4434074074079 632.1758913211602 766.291407407408 634.1368913211602A6.36 6.36 0 0 0 765.517407407408 637.4568913211601C765.5864074074079 641.9288913211601 767.6154074074079 648.4988913211602 769.249407407408 653.1088913211602C769.593407407408 655.8608913211601 770.419407407408 657.2368913211601 771.210407407408 657.9418913211603Q771.675407407408 658.3378913211602 772.225407407408 658.4058913211602C772.569407407408 659.9028913211603 773.325407407408 662.6198913211601 774.719407407408 665.2518913211602Q775.235407407408 666.2318913211602 775.923407407408 667.1958913211602A367 367 0 0 1 768.527407407408 696.6758913211602A26 26 0 0 1 767.650407407408 692.4108913211603Q767.856407407408 692.2728913211603 768.0284074074079 692.0668913211603C768.544407407408 691.3788913211603 768.991407407408 690.1058913211602 768.785407407408 687.8358913211603C769.3014074074081 683.8278913211602 769.800407407408 678.2038913211602 769.0774074074079 674.5918913211603A5.16 5.16 0 0 0 767.873407407408 672.0628913211604C766.618407407408 670.6868913211604 764.898407407408 670.7558913211603 763.763407407408 672.2348913211604C763.247407407408 672.9228913211603 762.9034074074079 673.8688913211604 762.7994074074079 674.8838913211603C762.439407407408 678.5638913211603 763.4534074074079 684.1198913211604 764.3474074074079 688.0418913211604C764.3654074074079 690.3298913211604 764.9154074074079 691.5508913211604 765.5004074074079 692.1868913211604Q765.775407407408 692.4968913211603 766.136407407408 692.6168913211603C766.291407407408 693.9928913211603 766.704407407408 696.6248913211602 767.787407407408 699.1188913211604L766.687407407408 702.6098913211604A25.8 25.8 0 0 1 762.1634074074079 695.0078913211603Q762.438407407408 694.7498913211604 762.610407407408 694.3198913211604C763.006407407408 693.3568913211603 763.126407407408 691.7398913211604 762.1634074074079 689.1258913211603C761.527407407408 684.2758913211603 760.3404074074081 677.5158913211603 758.379407407408 673.4738913211604A6.9 6.9 0 0 0 756.143407407408 670.8938913211604C754.251407407408 669.6718913211604 752.256407407408 670.3088913211604 751.396407407408 672.4068913211604C751.0004074074079 673.3698913211604 750.880407407408 674.5738913211603 751.0864074074079 675.8128913211604C751.809407407408 680.2328913211604 754.7504074074079 686.4248913211604 757.037407407408 690.7768913211603V690.7598913211604C757.760407407408 693.4428913211603 758.7924074074081 694.6808913211603 759.687407407408 695.2658913211603Q760.185407407408 695.5928913211603 760.735407407408 695.5758913211604C761.045407407408 696.3658913211605 761.527407407408 697.5018913211604 762.2154074074081 698.7918913211604A22.4 22.4 0 0 0 766.171407407408 704.2438913211604A296 296 0 0 1 757.433407407408 727.8078913211605C756.986407407408 726.0878913211604 756.9174074074081 724.4198913211604 756.9174074074081 723.6118913211603L757.072407407408 723.5078913211604C757.5194074074079 722.9918913211604 757.949407407408 722.0458913211604 757.966407407408 720.2748913211603C758.6544074074079 717.2128913211604 759.4804074074079 712.8788913211604 759.187407407408 709.9888913211604A4.13 4.13 0 0 0 758.447407407408 707.9248913211604C757.5874074074079 706.7728913211604 756.2124074074079 706.7208913211604 755.249407407408 707.7698913211605Q754.5614074074081 708.5618913211604 754.285407407408 709.7478913211604C753.735407407408 712.5858913211605 754.113407407408 716.9718913211605 754.5094074074079 720.1028913211604C754.3374074074079 721.8738913211605 754.681407407408 722.8548913211605 755.094407407408 723.4048913211604Q755.197407407408 723.5428913211604 755.3864074074079 723.6628913211605C755.3864074074079 724.8328913211604 755.5414074074079 727.5328913211604 756.5214074074079 729.9238913211605Q755.6274074074079 732.0398913211604 754.6644074074079 734.1208913211605A24 24 0 0 1 752.1014074074079 727.5508913211604A1.7 1.7 0 0 0 752.497407407408 727.0858913211605C752.9614074074079 726.2948913211605 753.2714074074079 724.9018913211605 752.7724074074079 722.5278913211605V722.5448913211605C752.8414074074079 718.2618913211604 752.6694074074079 712.2598913211605 751.4824074074079 708.5268913211605C751.1384074074078 707.4948913211605 750.5874074074079 706.5838913211605 749.8994074074078 705.9988913211605C748.4034074074079 704.6918913211605 746.5974074074079 704.9838913211604 745.5994074074079 706.6868913211604A5.7 5.7 0 0 0 744.8944074074079 709.6108913211604C744.9464074074078 713.5148913211603 746.7004074074079 719.2428913211604 748.1284074074078 723.2848913211603C748.4204074074078 725.6928913211605 749.1604074074078 726.9138913211605 749.8484074074079 727.5328913211604C750.0704074074079 727.7228913211604 750.3364074074079 727.8528913211603 750.6224074074079 727.9118913211604C750.9144074074079 729.2188913211604 751.585407407408 731.6618913211604 752.8414074074078 733.9998913211605Q753.3224074074078 734.9118913211604 753.9074074074078 735.7548913211604Q752.6344074074078 738.5068913211604 751.2754074074078 741.2928913211604H751.2074074074078V741.3958913211604A203 203 0 0 1 738.8234074074078 763.2058913211604C738.6854074074079 761.6578913211604 738.7374074074078 760.2478913211604 738.8234074074078 759.4558913211604Q738.9954074074078 759.3698913211604 739.1674074074078 759.2328913211604C739.7864074074079 758.6828913211605 740.4224074074078 757.5818913211604 740.6294074074078 755.4488913211604C741.8334074074078 751.8368913211605 743.3124074074078 746.6768913211604 743.2954074074078 743.2018913211605C743.2954074074078 742.2218913211605 743.0544074074078 741.3098913211604 742.6244074074078 740.6218913211604C741.7124074074079 739.1258913211605 740.0784074074079 738.9018913211604 738.7884074074078 740.0718913211604Q737.8424074074078 740.9318913211605 737.4124074074078 742.3418913211603C736.3974074074079 745.6958913211604 736.3634074074079 751.0458913211604 736.5014074074079 754.8468913211605C736.0884074074079 756.9618913211605 736.3814074074078 758.1838913211604 736.8114074074078 758.8888913211604Q736.9994074074078 759.1808913211603 737.2754074074078 759.3878913211604C737.1894074074078 760.5578913211605 737.1034074074078 762.8278913211605 737.5154074074078 765.1498913211603L735.9674074074078 767.4368913211604L735.5374074074078 768.0568913211604A24 24 0 0 1 733.7834074074078 762.2768913211604Q734.0414074074079 762.1048913211604 734.1964074074078 761.8468913211605C734.7124074074079 761.0558913211604 735.0734074074078 759.6968913211604 734.7124074074079 757.2888913211605V757.3058913211604C735.0044074074078 753.0408913211604 735.1594074074078 747.0208913211604 734.1624074074078 743.2358913211604A5.7 5.7 0 0 0 732.6994074074078 740.6218913211604C731.2894074074078 739.2458913211605 729.4494074074078 739.4518913211605 728.3654074074078 741.1038913211605A5.7 5.7 0 0 0 727.5054074074078 743.9758913211605C727.3674074074079 747.8808913211604 728.8294074074079 753.6938913211604 730.0514074074079 757.8218913211605C730.2054074074078 760.2298913211605 730.8594074074078 761.4858913211605 731.5304074074078 762.1218913211605C731.7364074074078 762.3258913211605 731.9904074074077 762.4738913211604 732.2704074074078 762.5518913211605A25.8 25.8 0 0 0 734.5574074074077 769.5018913211604A227 227 0 0 0 722.1214074074078 790.1238913211605H726.1814074074077Q731.3924074074077 780.5088913211605 737.2064074074078 771.9258913211605C740.5944074074077 772.0978913211605 744.1204074074078 770.7558913211606 745.6344074074077 770.0858913211605Q745.9094074074078 770.2918913211606 746.2534074074078 770.3778913211605C747.0614074074078 770.5498913211605 748.3174074074078 770.4128913211605 750.1924074074078 769.3458913211605H750.1574074074078C753.8044074074078 768.2108913211605 758.8434074074078 766.4218913211605 761.6814074074077 764.3578913211605Q762.8854074074078 763.4808913211605 763.3844074074077 762.3118913211606C764.0724074074078 760.6948913211605 763.3154074074077 759.2498913211605 761.5954074074077 758.8718913211605Q760.3574074074078 758.6138913211605 758.9294074074078 759.0948913211605C755.6274074074078 760.2298913211605 751.2754074074078 763.3088913211606 748.2494074074077 765.6308913211606C746.3054074074078 766.5428913211606 745.4794074074077 767.5058913211606 745.1524074074077 768.2458913211606Q745.0664074074077 768.4518913211606 745.0664074074077 768.6758913211606C743.8624074074078 769.2088913211605 741.0414074074079 770.2918913211606 738.2384074074077 770.3958913211607L738.8744074074078 769.4838913211606L741.1964074074078 766.0268913211606A22.4 22.4 0 0 0 747.0104074074079 762.0368913211606Q747.3204074074079 762.1398913211606 747.6984074074078 762.1048913211606C748.4894074074078 761.9848913211606 749.6414074074078 761.4518913211606 751.0524074074078 759.8178913211607H751.0174074074077C754.0794074074079 757.5478913211607 758.2414074074078 754.1578913211606 760.2194074074077 751.2858913211606C760.7694074074078 750.4778913211607 761.0794074074079 749.6008913211606 761.1314074074078 748.7918913211606C761.2344074074078 747.0378913211606 760.0474074074077 745.9198913211605 758.2934074074078 746.1438913211606C757.4854074074078 746.2468913211605 756.6254074074077 746.6078913211607 755.8854074074077 747.2268913211606C753.1334074074077 749.3938913211606 750.0554074074078 753.7628913211606 747.9734074074078 756.9618913211607C746.4434074074078 758.4588913211606 745.9954074074078 759.6458913211607 745.9264074074077 760.4538913211607Q745.9264074074077 760.6938913211607 745.9954074074078 760.8838913211607A23.4 23.4 0 0 1 742.9854074074078 763.2918913211606C747.4574074074078 756.2738913211607 751.4654074074078 749.0158913211607 755.0254074074078 741.7228913211607C757.3814074074078 740.6908913211607 759.3594074074078 739.2808913211607 760.4094074074078 738.4728913211607C760.6674074074078 738.6128913211606 760.9574074074078 738.6828913211607 761.2514074074078 738.6788913211607C762.1814074074077 738.6268913211607 763.5054074074078 738.1628913211607 765.2594074074077 736.4768913211607H765.2254074074078C768.8884074074078 734.2578913211607 773.8934074074077 730.9218913211607 776.4224074074077 727.9118913211607C777.1274074074078 727.0688913211607 777.5744074074078 726.1218913211607 777.7294074074077 725.2118913211607C778.0214074074078 723.2678913211607 776.8174074074078 721.8918913211608 774.8224074074078 721.9428913211607A5.7 5.7 0 0 0 772.0024074074079 722.9058913211607C768.7164074074078 725.0388913211607 764.7954074074078 729.5968913211607 762.1464074074079 732.9508913211607C760.2544074074078 734.4818913211607 759.6174074074079 735.7378913211608 759.4634074074079 736.6488913211607A1.7 1.7 0 0 0 759.4804074074078 737.2688913211607C758.7754074074078 737.8188913211607 757.5534074074078 738.6788913211608 756.0744074074078 739.5038913211607Q758.6544074074078 734.0518913211607 760.9244074074079 728.6678913211607A26 26 0 0 0 764.4344074074079 725.7778913211607Q764.7604074074079 725.8818913211608 765.1214074074078 725.8128913211608C765.9304074074079 725.6928913211607 767.0654074074079 725.1248913211607 768.4414074074078 723.4228913211607C771.4514074074078 721.0488913211607 775.5274074074078 717.5398913211608 777.4544074074079 714.5988913211607Q778.2454074074078 713.3258913211607 778.3144074074078 712.0528913211608C778.3654074074078 710.2818913211607 777.1274074074079 709.1808913211607 775.3904074074078 709.4728913211608Q774.1174074074079 709.6628913211607 772.9824074074079 710.6258913211608C770.2824074074078 712.8788913211608 767.2894074074079 717.3508913211608 765.2764074074078 720.6358913211608C763.7804074074079 722.1838913211608 763.3504074074078 723.3878913211609 763.3164074074078 724.2138913211608Q763.3164074074078 724.4368913211608 763.3844074074078 724.6438913211607Q762.9204074074078 725.1248913211607 762.0944074074077 725.8478913211608A306 306 0 0 0 769.4044074074078 705.9128913211607C771.9844074074078 704.6918913211607 774.1004074074078 702.7478913211608 775.0974074074078 701.7848913211608Q775.4414074074077 701.8708913211608 775.7854074074078 701.8188913211608C776.6114074074078 701.6818913211607 777.7464074074078 701.1138913211607 779.1224074074078 699.4108913211608L779.0884074074078 699.4458913211608C782.1154074074077 697.0548913211608 786.2084074074078 693.5458913211608 788.1184074074077 690.5878913211608C788.6684074074078 689.7618913211608 788.9614074074077 688.8678913211608 788.9784074074078 688.0588913211608C789.0474074074077 686.2698913211608 787.8084074074077 685.1868913211608 786.0544074074078 685.4618913211608Q784.8154074074077 685.6518913211607 783.6464074074078 686.6138913211607C780.9634074074078 688.8678913211609 777.9704074074077 693.3398913211608 775.9574074074078 696.6238913211607C774.4444074074078 698.1898913211608 774.0144074074078 699.3768913211608 773.9794074074077 700.2198913211607Q773.9974074074078 700.4258913211609 774.0654074074077 700.6498913211608A22.4 22.4 0 0 1 770.0754074074077 703.8138913211608L771.3484074074078 699.7378913211608C772.3804074074078 698.4648913211607 773.1194074074078 697.2438913211607 773.6014074074078 696.2288913211607Q773.8594074074077 696.2288913211607 774.1174074074078 696.1258913211607C774.9434074074078 695.7478913211608 775.9574074074078 694.8358913211607 776.9034074074077 692.7028913211607V692.7198913211607C779.3634074074077 689.3998913211608 782.6134074074077 684.6198913211607 783.7834074074078 681.0238913211607C784.1274074074078 680.0268913211607 784.1794074074078 679.0118913211606 783.9734074074078 678.1518913211607C783.5434074074078 676.2938913211607 781.9604074074077 675.5028913211606 780.2064074074078 676.2598913211607Q778.9674074074078 676.8278913211607 778.0214074074078 678.1518913211607Q777.2994074074078 679.2178913211607 776.5944074074077 680.6288913211606Q778.2624074074077 673.6798913211607 779.4664074074078 667.7798913211607A18.9 18.9 0 0 0 783.8014074074077 662.1038913211607M782.9064074074078 647.7938913211607L783.1304074074078 647.5018913211607L783.0274074074077 648.2238913211606L782.7174074074078 649.1178913211606ZM782.2874074074077 652.0598913211606Q782.3394074074077 652.8848913211607 782.5624074074077 653.4178913211607Q782.7004074074077 653.6938913211607 782.8724074074078 653.9338913211607Q782.4594074074078 654.4838913211607 781.8054074074078 655.1378913211607ZM781.4274074074077 657.4258913211606Q782.5114074074077 656.6348913211607 783.2504074074077 655.8608913211607L783.0444074074077 656.5658913211607C781.9094074074077 658.6298913211607 781.7884074074077 659.9888913211607 781.9944074074076 660.8658913211607Q782.0814074074076 661.2618913211606 782.3564074074077 661.5538913211607Q781.6334074074077 663.1188913211606 780.0164074074078 665.0628913211607Q780.8424074074078 660.8828913211607 781.4274074074077 657.4258913211606M778.7094074074078 651.8018913211606Q778.4344074074077 650.6658913211606 778.2284074074078 649.5818913211606Q778.4004074074078 649.4968913211607 778.5204074074077 649.3588913211606Q778.9164074074076 648.8948913211607 779.2084074074077 648.0178913211606L779.2604074074077 648.1208913211606Z "></path><rect width="55.446" height="38.42" x="339.1844074074074" y="352.9758913211599" fill="none" rx="0" ry="0" transform="translate(263.01 389.65)"></rect><path fill="#fe5e02" d="M617.1074074074074 772.5258913211599H605.0374074074074V747.5358913211599H615.9874074074073V750.8658913211598H608.8074074074074V757.7658913211599H614.5874074074073V761.1658913211597H608.8074074074074V769.1558913211597H617.1074074074074ZM626.6974074074074 772.8658913211598Q625.2674074074073 772.8658913211598 623.8674074074074 772.5058913211599Q622.4774074074073 772.1458913211598 621.3874074074074 771.6258913211598Q620.2974074074074 771.0958913211598 619.7574074074074 770.5558913211598L621.5574074074074 767.3258913211598Q621.9374074074074 767.6258913211598 622.7374074074074 768.1158913211598Q623.5274074074074 768.6158913211598 624.5874074074075 768.9858913211599Q625.6374074074074 769.3658913211598 626.6974074074074 769.3658913211598Q628.4274074074074 769.3658913211598 629.5974074074074 768.5458913211598Q630.7774074074074 767.7258913211599 630.7774074074074 766.1658913211598Q630.7774074074074 764.8758913211598 630.0974074074074 764.0258913211599T628.3074074074074 762.5258913211599Q627.2074074074073 761.8858913211599 625.9274074074074 761.2858913211599Q624.6574074074074 760.6958913211599 623.4974074074073 759.9458913211599Q622.1674074074074 759.0558913211598 621.1874074074074 757.5958913211598Q620.1974074074074 756.1358913211599 620.1974074074074 753.8258913211598Q620.1974074074074 751.5458913211598 621.2374074074073 750.0858913211598T623.9874074074073 747.8858913211599Q625.7074074074073 747.1558913211599 627.7474074074073 747.1558913211599Q629.3774074074073 747.1558913211599 630.5374074074073 747.4958913211599Q631.6874074074074 747.8358913211598 632.4774074074073 748.3158913211598Q633.2574074074073 748.7958913211598 633.6974074074074 749.1658913211598L631.8974074074074 752.2558913211599Q631.3174074074074 751.6458913211598 630.1574074074074 751.1158913211598Q629.0074074074073 750.5958913211598 627.5774074074073 750.5958913211598Q625.9074074074074 750.5958913211598 624.9274074074074 751.3558913211598Q623.9374074074074 752.1258913211598 623.9374074074074 753.6158913211598Q623.9374074074074 754.9458913211598 624.8274074074073 755.8758913211598Q625.7074074074073 756.8158913211598 627.0874074074073 757.5758913211598Q628.4574074074073 758.3458913211598 629.9274074074074 759.1258913211598Q631.3874074074073 759.9058913211597 632.5074074074073 760.9658913211598Q633.4274074074074 761.7758913211599 634.0674074074072 763.0058913211599Q634.7174074074073 764.2258913211599 634.7174074074073 765.7558913211599Q634.7174074074073 768.0658913211598 633.6474074074073 769.6658913211598T630.7774074074073 772.0658913211598Q628.9674074074073 772.8658913211598 626.6974074074074 772.8658913211598M647.3274074074072 772.5258913211599H643.5574074074073V750.8658913211598H637.1674074074074V747.5358913211599H653.7874074074073V750.8658913211598H647.3274074074073ZM657.9374074074074 772.8558913211598Q656.9174074074074 772.8558913211598 656.2074074074073 772.1558913211599Q655.4874074074073 771.4558913211599 655.4874074074073 770.4358913211598Q655.4874074074073 769.3858913211598 656.1874074074072 768.6858913211598Q656.8874074074072 767.9958913211599 657.9374074074072 767.9958913211599Q659.0274074074073 767.9958913211599 659.7074074074072 768.6858913211598Q660.3874074074072 769.3858913211598 660.3874074074072 770.4358913211598Q660.3874074074072 771.4558913211598 659.6874074074072 772.1558913211599Q658.9974074074073 772.8558913211598 657.9374074074072 772.8558913211598 "></path><rect width="74.4" height="33.45" x="329.7074074074074" y="355.46089132115986" fill="none" rx="0" ry="0" transform="translate(529.99 389.6)"></rect><path fill="#fe5e02" d="M877.0874074074075 771.08589132116H862.2874074074074L869.5974074074074 761.9358913211599Q870.1974074074074 761.16589132116 870.9474074074074 760.0558913211601Q871.7074074074073 758.9458913211599 872.2774074074074 757.74589132116Q872.8574074074074 756.5458913211601 872.8574074074074 755.51589132116Q872.8574074074074 753.88589132116 871.9874074074073 752.99589132116Q871.1074074074074 752.10589132116 869.3674074074074 752.10589132116Q868.1474074074074 752.10589132116 867.3274074074073 752.63589132116Q866.4974074074073 753.17589132116 865.9774074074073 753.88589132116T865.1574074074074 755.15589132116L862.4074074074074 753.67589132116Q862.9674074074073 752.60589132116 863.8774074074074 751.52589132116Q864.7774074074073 750.4458913211599 866.1374074074074 749.7058913211599T869.4574074074073 748.9658913211599Q871.7074074074073 748.9658913211599 873.2174074074073 749.76589132116T875.4774074074073 751.9558913211599Q876.2374074074073 753.34589132116 876.2374074074073 755.12589132116Q876.2374074074073 757.02589132116 875.2974074074073 759.00589132116Q874.3674074074073 760.98589132116 872.6774074074074 763.0558913211601L868.6574074074074 768.15589132116H877.0874074074073ZM888.9074074074074 771.52589132116Q886.7374074074074 771.52589132116 885.2274074074074 770.63589132116Q883.7274074074074 769.74589132116 882.7774074074074 768.1958913211599T881.3974074074074 764.58589132116T880.9674074074074 760.2158913211599Q880.9674074074074 757.81589132116 881.3874074074074 755.77589132116Q881.7974074074074 753.7358913211599 882.7174074074074 752.2058913211599Q883.6374074074074 750.6858913211599 885.1574074074075 749.82589132116Q886.6874074074075 748.9658913211599 888.9074074074075 748.9658913211599Q891.8674074074075 748.9658913211599 893.5774074074075 750.41589132116Q895.2974074074075 751.86589132116 896.0474074074075 754.40589132116Q896.8074074074075 756.9358913211599 896.8074074074075 760.2158913211599Q896.8074074074075 763.38589132116 896.0174074074075 765.9658913211599Q895.2374074074075 768.53589132116 893.5074074074075 770.03589132116Q891.7774074074075 771.52589132116 888.9074074074075 771.52589132116M888.9074074074075 768.50589132116Q890.2374074074075 768.50589132116 891.0774074074075 767.7958913211601T892.3774074074074 765.87589132116Q892.8374074074075 764.65589132116 893.0174074074074 763.1958913211599Q893.1974074074074 761.7258913211599 893.1974074074074 760.2158913211599Q893.1974074074074 758.55589132116 893.0174074074074 757.07589132116T892.3774074074074 754.4458913211599T891.0774074074075 752.62589132116T888.9074074074075 751.9558913211599Q887.5674074074075 751.9558913211599 886.7074074074075 752.62589132116Q885.8574074074074 753.2958913211601 885.3974074074075 754.4458913211599T884.7574074074075 757.07589132116T884.5774074074076 760.2158913211599Q884.5774074074076 761.7258913211599 884.7574074074075 763.1958913211599Q884.9374074074075 764.65589132116 885.3974074074075 765.85589132116T886.7074074074075 767.7858913211601Q887.5674074074075 768.5058913211601 888.9074074074075 768.5058913211601M915.3674074074075 771.08589132116H900.5674074074076L907.8774074074075 761.93589132116Q908.4674074074076 761.1658913211601 909.2274074074076 760.0558913211601Q909.9774074074076 758.94589132116 910.5574074074076 757.7458913211601T911.1374074074076 755.5158913211601Q911.1374074074076 753.88589132116 910.2574074074076 752.9958913211601Q909.3874074074076 752.10589132116 907.6374074074076 752.10589132116Q906.4274074074076 752.10589132116 905.5974074074077 752.63589132116Q904.7674074074076 753.1758913211601 904.2474074074076 753.88589132116Q903.7374074074077 754.59589132116 903.4374074074077 755.15589132116L900.6874074074077 753.67589132116Q901.2474074074076 752.60589132116 902.1474074074077 751.5258913211601Q903.0574074074077 750.44589132116 904.4174074074077 749.70589132116T907.7274074074077 748.96589132116Q909.9774074074077 748.96589132116 911.4874074074077 749.7658913211601T913.7574074074076 751.95589132116Q914.5074074074076 753.34589132116 914.5074074074076 755.12589132116Q914.5074074074076 757.0258913211601 913.5774074074077 759.0058913211601T910.9574074074077 763.0558913211601L906.9274074074077 768.1558913211601H915.3674074074078ZM925.7874074074075 771.5258913211601Q924.5774074074075 771.5258913211601 923.2674074074075 771.2758913211601Q921.9674074074076 771.0258913211601 920.8874074074075 770.57589132116Q919.8074074074075 770.13589132116 919.2174074074076 769.57589132116L920.6074074074075 766.7558913211601Q921.3774074074075 767.35589132116 922.7374074074075 767.9258913211601Q924.0974074074076 768.5058913211601 925.6374074074075 768.5058913211601Q926.9374074074075 768.5058913211601 928.0974074074076 768.1658913211601Q929.2474074074075 767.82589132116 929.9774074074076 766.9258913211601Q930.6974074074076 766.0158913211601 930.6974074074076 764.3958913211601Q930.6974074074076 762.6458913211601 929.3274074074076 761.57589132116Q927.9474074074076 760.5158913211601 925.6074074074075 760.5158913211601Q924.8974074074075 760.5158913211601 924.1574074074075 760.5558913211601Q923.4174074074075 760.6058913211601 922.8574074074075 760.6958913211602L928.3074074074076 752.2258913211601H920.1374074074076V749.32589132116H934.1974074074076L928.0374074074076 758.1158913211601Q929.9574074074076 758.1758913211602 931.3674074074077 759.0058913211601T933.5474074074076 761.1758913211602Q934.3174074074076 762.5258913211601 934.3174074074076 764.1558913211602Q934.3174074074076 766.2558913211601 933.3174074074076 767.9258913211602Q932.3274074074076 769.6058913211601 930.4174074074076 770.56589132116T925.7874074074076 771.5258913211601 "></path></g><rect width="560" height="297" x="470" y="601.5" id="space-saver" fill="transparent" stroke="transparent"></rect></g></svg>