<svg xmlns="http://www.w3.org/2000/svg" xml:space="preserve" width="1500" height="1500" viewBox="0 0 1500 1500" data-version="1" data-id="lg_HMlZoktsMCgzyp3l5I" x="0" y="0"><rect width="1500" height="1500" id="background" stroke="transparent" fill="#1a1a1a"></rect><g id="outer-wrapper" data-padding="20" transform="matrix(6.024096385542169,0,0,6.024096385542169,-3768.0722891566265,-3768.0722891566265)"><g id="inner-wrapper" transform="matrix(0.7222222222222222,0,0,0.7222222222222222,10.000000000000004,23.055555555555557)"><path fill="#797979" d="M1050.217062736654 961.7435750818438Q1050.475062736654 961.7435750818438 1050.7330627366541 961.6405750818437C1051.541062736654 961.2795750818439 1052.556062736654 960.3675750818438 1053.5190627366542 958.2345750818438C1055.9790627366542 954.9145750818439 1059.2290627366542 950.1345750818438 1060.399062736654 946.5385750818438C1060.726062736654 945.5415750818438 1060.777062736654 944.5265750818437 1060.571062736654 943.6665750818438C1060.2790627366542 942.3935750818437 1059.436062736654 941.6365750818438 1058.369062736654 941.5335750818438A34.4 34.4 0 0 0 1060.5370627366542 934.5675750818438A6.36 6.36 0 0 0 1060.244062736654 931.1625750818438C1059.6250627366542 929.6145750818438 1058.3520627366543 928.8575750818438 1056.976062736654 929.0635750818437L1057.0110627366541 928.8405750818438C1057.2170627366543 927.6185750818438 1057.1140627366542 926.4145750818439 1056.7180627366542 925.4345750818438C1055.8580627366541 923.3365750818438 1053.880062736654 922.6825750818438 1051.9710627366542 923.9205750818437Q1050.5950627366542 924.7985750818438 1049.735062736654 926.5005750818437A37.8 37.8 0 0 0 1047.1890627366543 934.6535750818438C1047.224062736654 933.3465750818438 1047.1890627366543 932.0905750818438 1047.052062736654 931.0245750818438A5.16 5.16 0 0 0 1045.9510627366542 928.3415750818438C1044.7300627366542 926.8445750818437 1042.9410627366542 926.8275750818437 1041.7030627366541 928.2895750818437Q1040.8080627366542 929.3565750818437 1040.5500627366541 930.9555750818438C1039.9480627366543 934.7395750818437 1040.688062736654 940.5185750818437 1041.3760627366541 944.6295750818438C1041.2560627366543 946.9865750818437 1041.7540627366543 948.2765750818437 1042.3220627366543 948.9815750818436Q1042.7350627366543 949.4455750818437 1043.3020627366543 949.5315750818437C1043.5950627366542 951.0795750818437 1044.0250627366543 952.7825750818437 1044.6610627366542 954.3815750818437Q1043.9560627366543 958.7515750818437 1042.7690627366542 964.7015750818437A27.5 27.5 0 0 1 1040.1200627366543 957.7015750818437Q1040.4640627366543 957.4785750818437 1040.6700627366542 957.0995750818438C1041.1870627366543 956.1885750818437 1041.5300627366541 954.5885750818437 1040.9630627366541 951.8885750818438C1041.0320627366543 946.9865750818437 1040.8250627366542 940.1235750818437 1039.4670627366543 935.8585750818437A6.9 6.9 0 0 0 1037.6430627366542 932.9685750818437C1035.9230627366542 931.4885750818437 1033.8590627366543 931.8325750818437 1032.7070627366543 933.7935750818438A6.36 6.36 0 0 0 1031.9330627366544 937.1135750818437C1032.0020627366544 941.5855750818437 1034.0310627366543 948.1555750818436 1035.6650627366544 952.7655750818437C1036.0090627366544 955.5175750818437 1036.8350627366544 956.8935750818437 1037.6260627366544 957.5985750818437Q1038.0910627366543 957.9945750818438 1038.6410627366542 958.0625750818438C1038.9850627366543 959.5595750818437 1039.7410627366544 962.2765750818437 1041.1350627366544 964.9085750818438Q1041.6510627366542 965.8885750818438 1042.3390627366543 966.8525750818437A367 367 0 0 1 1034.9430627366544 996.3325750818437A26 26 0 0 1 1034.0660627366542 992.0675750818438Q1034.2720627366543 991.9295750818437 1034.4440627366544 991.7235750818438C1034.9600627366544 991.0355750818437 1035.4070627366543 989.7625750818438 1035.2010627366544 987.4925750818438C1035.7170627366543 983.4845750818438 1036.2160627366543 977.8605750818438 1035.4930627366543 974.2485750818438A5.16 5.16 0 0 0 1034.2890627366542 971.7195750818438C1033.0340627366543 970.3435750818438 1031.3140627366543 970.4125750818438 1030.1790627366543 971.8915750818438C1029.6630627366542 972.5795750818438 1029.3190627366544 973.5255750818438 1029.2150627366543 974.5405750818438C1028.8550627366542 978.2205750818439 1029.8690627366543 983.7765750818438 1030.7630627366543 987.6985750818438C1030.7810627366543 989.9865750818439 1031.3310627366543 991.2075750818439 1031.9160627366543 991.8435750818438Q1032.1910627366542 992.1535750818439 1032.5520627366543 992.2735750818438C1032.7070627366543 993.6495750818438 1033.1200627366543 996.2815750818438 1034.2030627366544 998.7755750818438L1033.1030627366542 1002.2665750818438A25.8 25.8 0 0 1 1028.5790627366544 994.6645750818439Q1028.8540627366542 994.4065750818438 1029.0260627366542 993.9765750818439C1029.4220627366544 993.0135750818438 1029.5420627366543 991.3965750818438 1028.5790627366544 988.7825750818438C1027.9430627366542 983.9325750818439 1026.7560627366543 977.1725750818439 1024.7950627366542 973.1305750818439A6.9 6.9 0 0 0 1022.5590627366544 970.5505750818438C1020.6670627366543 969.3285750818438 1018.6720627366543 969.9655750818439 1017.8120627366543 972.0635750818439C1017.4160627366543 973.0265750818439 1017.2960627366542 974.2305750818439 1017.5020627366544 975.4695750818439C1018.2250627366543 979.8895750818439 1021.1660627366543 986.0815750818439 1023.4530627366544 990.4335750818439V990.4165750818438C1024.1760627366543 993.0995750818438 1025.2080627366543 994.3375750818439 1026.1030627366542 994.9225750818439Q1026.6010627366543 995.2495750818439 1027.1510627366542 995.2325750818438C1027.4610627366542 996.0225750818439 1027.9430627366542 997.1585750818439 1028.6310627366543 998.448575081844A22.4 22.4 0 0 0 1032.5870627366544 1003.900575081844A296 296 0 0 1 1023.8490627366543 1027.464575081844C1023.4020627366543 1025.7445750818438 1023.3330627366543 1024.0765750818439 1023.3330627366543 1023.2685750818439L1023.4880627366542 1023.1645750818439C1023.9350627366543 1022.6485750818439 1024.3650627366542 1021.7025750818439 1024.3820627366542 1019.9315750818439C1025.0700627366543 1016.8695750818439 1025.8960627366544 1012.535575081844 1025.6030627366542 1009.6455750818438A4.13 4.13 0 0 0 1024.8630627366542 1007.5815750818439C1024.0030627366543 1006.429575081844 1022.6280627366543 1006.3775750818438 1021.6650627366544 1007.4265750818439Q1020.9770627366543 1008.2185750818439 1020.7010627366543 1009.4045750818439C1020.1510627366542 1012.2425750818439 1020.5290627366543 1016.6285750818439 1020.9250627366544 1019.7595750818439C1020.7530627366543 1021.530575081844 1021.0970627366544 1022.511575081844 1021.5100627366543 1023.061575081844Q1021.6130627366542 1023.1995750818439 1021.8020627366543 1023.3195750818439C1021.8020627366543 1024.489575081844 1021.9570627366543 1027.189575081844 1022.9370627366543 1029.580575081844Q1022.0430627366543 1031.696575081844 1021.0800627366542 1033.777575081844A24 24 0 0 1 1018.5170627366542 1027.207575081844A1.7 1.7 0 0 0 1018.9130627366542 1026.742575081844C1019.3770627366542 1025.951575081844 1019.6870627366543 1024.558575081844 1019.1880627366543 1022.1845750818441V1022.201575081844C1019.2570627366542 1017.918575081844 1019.0850627366542 1011.916575081844 1017.8980627366542 1008.183575081844C1017.5540627366543 1007.1515750818439 1017.0030627366542 1006.240575081844 1016.3150627366542 1005.655575081844C1014.8190627366541 1004.3485750818439 1013.0130627366541 1004.640575081844 1012.0150627366542 1006.3435750818439A5.7 5.7 0 0 0 1011.3100627366541 1009.2675750818439C1011.3620627366543 1013.1715750818439 1013.1160627366542 1018.899575081844 1014.5440627366542 1022.9415750818439C1014.8360627366542 1025.3495750818438 1015.5760627366542 1026.5705750818438 1016.2640627366542 1027.189575081844C1016.4860627366542 1027.379575081844 1016.7520627366541 1027.5095750818439 1017.0380627366542 1027.5685750818438C1017.3300627366541 1028.8755750818439 1018.0010627366541 1031.3185750818438 1019.2570627366542 1033.656575081844Q1019.7380627366542 1034.5685750818438 1020.3230627366542 1035.411575081844Q1019.0500627366541 1038.1635750818439 1017.6910627366542 1040.949575081844H1017.6230627366541V1041.052575081844A203 203 0 0 1 1005.2390627366541 1062.862575081844C1005.1010627366541 1061.314575081844 1005.1530627366541 1059.9045750818439 1005.2390627366541 1059.112575081844Q1005.4110627366541 1059.026575081844 1005.583062736654 1058.889575081844C1006.2020627366542 1058.339575081844 1006.8380627366541 1057.238575081844 1007.045062736654 1055.1055750818439C1008.2490627366541 1051.493575081844 1009.728062736654 1046.333575081844 1009.7110627366541 1042.8585750818438C1009.7110627366541 1041.8785750818438 1009.4700627366541 1040.966575081844 1009.0400627366541 1040.2785750818439C1008.1280627366541 1038.782575081844 1006.4940627366541 1038.5585750818439 1005.2040627366541 1039.728575081844Q1004.258062736654 1040.5885750818438 1003.8280627366541 1041.998575081844C1002.813062736654 1045.352575081844 1002.7790627366542 1050.7025750818439 1002.9170627366541 1054.5035750818438C1002.5040627366541 1056.618575081844 1002.7970627366541 1057.8405750818438 1003.227062736654 1058.545575081844Q1003.4150627366541 1058.8375750818439 1003.6910627366541 1059.044575081844C1003.6050627366541 1060.214575081844 1003.5190627366541 1062.484575081844 1003.9310627366541 1064.806575081844L1002.3830627366541 1067.093575081844L1001.9530627366541 1067.7135750818438A24 24 0 0 1 1000.199062736654 1061.9335750818439Q1000.457062736654 1061.7615750818438 1000.612062736654 1061.5035750818438C1001.1280627366541 1060.7125750818439 1001.4890627366541 1059.353575081844 1001.1280627366541 1056.9455750818438V1056.9625750818439C1001.420062736654 1052.697575081844 1001.5750627366541 1046.6775750818438 1000.5780627366541 1042.892575081844A5.7 5.7 0 0 0 999.1150627366541 1040.2785750818439C997.7050627366541 1038.902575081844 995.8650627366541 1039.1085750818438 994.7810627366541 1040.7605750818439A5.7 5.7 0 0 0 993.921062736654 1043.632575081844C993.7830627366541 1047.537575081844 995.2450627366541 1053.350575081844 996.467062736654 1057.478575081844C996.621062736654 1059.886575081844 997.275062736654 1061.142575081844 997.9460627366541 1061.7785750818439C998.152062736654 1061.982575081844 998.406062736654 1062.130575081844 998.6860627366541 1062.208575081844A25.8 25.8 0 0 0 1000.973062736654 1069.158575081844A227 227 0 0 0 988.537062736654 1089.780575081844H992.597062736654Q997.808062736654 1080.165575081844 1003.622062736654 1071.582575081844C1007.0100627366539 1071.754575081844 1010.536062736654 1070.412575081844 1012.050062736654 1069.742575081844Q1012.325062736654 1069.948575081844 1012.669062736654 1070.034575081844C1013.477062736654 1070.206575081844 1014.7330627366541 1070.069575081844 1016.6080627366541 1069.002575081844H1016.573062736654C1020.220062736654 1067.867575081844 1025.259062736654 1066.078575081844 1028.0970627366542 1064.014575081844Q1029.301062736654 1063.137575081844 1029.8000627366541 1061.968575081844C1030.488062736654 1060.351575081844 1029.731062736654 1058.906575081844 1028.011062736654 1058.528575081844Q1026.773062736654 1058.270575081844 1025.345062736654 1058.751575081844C1022.0430627366541 1059.886575081844 1017.691062736654 1062.965575081844 1014.665062736654 1065.2875750818441C1012.721062736654 1066.1995750818442 1011.895062736654 1067.1625750818441 1011.568062736654 1067.9025750818441Q1011.482062736654 1068.108575081844 1011.482062736654 1068.332575081844C1010.278062736654 1068.865575081844 1007.457062736654 1069.948575081844 1004.654062736654 1070.0525750818442L1005.2900627366541 1069.1405750818442L1007.612062736654 1065.683575081844A22.4 22.4 0 0 0 1013.4260627366541 1061.693575081844Q1013.736062736654 1061.7965750818441 1014.1140627366541 1061.761575081844C1014.9050627366541 1061.6415750818442 1016.0570627366541 1061.108575081844 1017.468062736654 1059.4745750818443H1017.433062736654C1020.4950627366541 1057.2045750818443 1024.657062736654 1053.8145750818442 1026.6350627366542 1050.942575081844C1027.1850627366541 1050.134575081844 1027.495062736654 1049.2575750818442 1027.547062736654 1048.4485750818442C1027.650062736654 1046.694575081844 1026.4630627366541 1045.576575081844 1024.709062736654 1045.800575081844C1023.901062736654 1045.903575081844 1023.041062736654 1046.2645750818442 1022.301062736654 1046.8835750818441C1019.5490627366539 1049.050575081844 1016.471062736654 1053.4195750818442 1014.3890627366541 1056.618575081844C1012.8590627366541 1058.115575081844 1012.411062736654 1059.3025750818442 1012.342062736654 1060.1105750818442Q1012.342062736654 1060.3505750818442 1012.411062736654 1060.540575081844A23.4 23.4 0 0 1 1009.401062736654 1062.9485750818442C1013.873062736654 1055.9305750818442 1017.881062736654 1048.6725750818441 1021.441062736654 1041.3795750818442C1023.797062736654 1040.3475750818443 1025.775062736654 1038.9375750818442 1026.825062736654 1038.1295750818442C1027.083062736654 1038.269575081844 1027.373062736654 1038.339575081844 1027.667062736654 1038.3355750818441C1028.5970627366542 1038.2835750818442 1029.921062736654 1037.819575081844 1031.6750627366541 1036.1335750818441H1031.641062736654C1035.304062736654 1033.9145750818443 1040.3090627366541 1030.578575081844 1042.8380627366541 1027.5685750818443C1043.543062736654 1026.7255750818442 1043.990062736654 1025.778575081844 1044.145062736654 1024.8685750818443C1044.437062736654 1022.9245750818442 1043.2330627366541 1021.5485750818442 1041.238062736654 1021.5995750818443A5.7 5.7 0 0 0 1038.418062736654 1022.5625750818442C1035.132062736654 1024.6955750818443 1031.2110627366542 1029.2535750818442 1028.562062736654 1032.6075750818443C1026.670062736654 1034.1385750818442 1026.033062736654 1035.3945750818443 1025.879062736654 1036.3055750818442A1.7 1.7 0 0 0 1025.8960627366541 1036.9255750818443C1025.1910627366542 1037.4755750818442 1023.969062736654 1038.3355750818441 1022.4900627366541 1039.1605750818442Q1025.070062736654 1033.7085750818442 1027.340062736654 1028.3245750818442A26 26 0 0 0 1030.850062736654 1025.4345750818443Q1031.176062736654 1025.538575081844 1031.5370627366542 1025.4695750818441C1032.3460627366542 1025.3495750818443 1033.4810627366542 1024.7815750818443 1034.8570627366541 1023.0795750818443C1037.8670627366541 1020.7055750818442 1041.9430627366542 1017.1965750818442 1043.870062736654 1014.2555750818442Q1044.661062736654 1012.9825750818443 1044.730062736654 1011.7095750818443C1044.7810627366541 1009.9385750818442 1043.543062736654 1008.8375750818443 1041.806062736654 1009.1295750818442Q1040.533062736654 1009.3195750818443 1039.398062736654 1010.2825750818442C1036.698062736654 1012.5355750818443 1033.705062736654 1017.0075750818444 1031.692062736654 1020.2925750818442C1030.196062736654 1021.8405750818442 1029.766062736654 1023.0445750818443 1029.7320627366541 1023.8705750818442Q1029.7320627366541 1024.0935750818444 1029.8000627366541 1024.3005750818443Q1029.3360627366542 1024.7815750818443 1028.5100627366542 1025.5045750818442A306 306 0 0 0 1035.820062736654 1005.5695750818443C1038.400062736654 1004.3485750818443 1040.516062736654 1002.4045750818443 1041.513062736654 1001.4415750818443Q1041.857062736654 1001.5275750818444 1042.201062736654 1001.4755750818442C1043.027062736654 1001.3385750818443 1044.162062736654 1000.7705750818443 1045.538062736654 999.0675750818443L1045.504062736654 999.1025750818443C1048.531062736654 996.7115750818443 1052.624062736654 993.2025750818443 1054.534062736654 990.2445750818442C1055.084062736654 989.4185750818442 1055.377062736654 988.5245750818442 1055.394062736654 987.7155750818442C1055.4630627366541 985.9265750818442 1054.224062736654 984.8435750818443 1052.470062736654 985.1185750818443Q1051.2310627366542 985.3085750818443 1050.062062736654 986.2705750818443C1047.379062736654 988.5245750818443 1044.386062736654 992.9965750818443 1042.373062736654 996.2805750818443C1040.860062736654 997.8465750818443 1040.430062736654 999.0335750818442 1040.395062736654 999.8765750818443Q1040.413062736654 1000.0825750818443 1040.481062736654 1000.3065750818444A22.4 22.4 0 0 1 1036.491062736654 1003.4705750818443L1037.764062736654 999.3945750818443C1038.796062736654 998.1215750818442 1039.535062736654 996.9005750818442 1040.017062736654 995.8855750818443Q1040.275062736654 995.8855750818443 1040.533062736654 995.7825750818442C1041.359062736654 995.4045750818443 1042.373062736654 994.4925750818443 1043.319062736654 992.3595750818442V992.3765750818443C1045.779062736654 989.0565750818442 1049.029062736654 984.2765750818442 1050.199062736654 980.6805750818442C1050.543062736654 979.6835750818442 1050.595062736654 978.6685750818442 1050.389062736654 977.8085750818442C1049.959062736654 975.9505750818441 1048.3760627366541 975.1595750818442 1046.622062736654 975.9165750818443Q1045.383062736654 976.4845750818442 1044.437062736654 977.8085750818442Q1043.715062736654 978.8745750818441 1043.010062736654 980.2855750818442Q1044.678062736654 973.3365750818441 1045.882062736654 967.4365750818442A18.9 18.9 0 0 0 1050.217062736654 961.7605750818442M1049.322062736654 947.4505750818441L1049.546062736654 947.1585750818442L1049.443062736654 947.8805750818442L1049.133062736654 948.7745750818442ZM1048.703062736654 951.7165750818442Q1048.755062736654 952.5415750818443 1048.978062736654 953.0745750818442Q1049.116062736654 953.3505750818442 1049.288062736654 953.5905750818442Q1048.875062736654 954.1405750818442 1048.221062736654 954.7945750818442ZM1047.843062736654 957.0825750818442Q1048.927062736654 956.2915750818443 1049.6660627366539 955.5175750818441L1049.460062736654 956.2225750818442C1048.325062736654 958.2865750818441 1048.204062736654 959.6455750818442 1048.4100627366538 960.5225750818443Q1048.4970627366538 960.9185750818442 1048.7720627366539 961.2105750818441Q1048.049062736654 962.7755750818442 1046.432062736654 964.7195750818441Q1047.258062736654 960.5395750818442 1047.843062736654 957.0825750818442M1045.125062736654 951.4585750818442Q1044.8500627366539 950.3225750818442 1044.644062736654 949.2385750818441Q1044.816062736654 949.1535750818441 1044.9360627366539 949.0155750818442Q1045.3320627366538 948.5515750818441 1045.624062736654 947.6745750818441L1045.6760627366539 947.7775750818441Z "></path></g><rect width="72" height="166" x="714" y="667" id="space-saver" fill="transparent" stroke="transparent"></rect></g></svg>