<svg xmlns="http://www.w3.org/2000/svg" xml:space="preserve" width="1500" height="166" viewBox="0 0 1500 166" data-version="1" data-id="lg_HMlZoktsMCgzyp3l5I"><g id="outer-wrapper" data-padding="20" transform="matrix(1,0,0,1,0,0)"><g id="inner-wrapper" transform="matrix(0.7222222222222222,0,0,0.7222222222222222,10.000000000000004,23.055555555555557)"><path fill="#fe5e02" d="M1050.217062736654 38.205113543382254Q1050.475062736654 38.205113543382254 1050.7330627366541 38.102113543382245C1051.541062736654 37.741113543382255 1052.556062736654 36.82911354338222 1053.5190627366542 34.69611354338224C1055.9790627366542 31.376113543382246 1059.2290627366542 26.596113543382216 1060.399062736654 23.000113543382213C1060.726062736654 22.0031135433822 1060.777062736654 20.988113543382212 1060.571062736654 20.1281135433822C1060.2790627366542 18.855113543382174 1059.436062736654 18.098113543382226 1058.369062736654 17.995113543382217A34.4 34.4 0 0 0 1060.5370627366542 11.02911354338221A6.36 6.36 0 0 0 1060.244062736654 7.6241135433822365C1059.6250627366542 6.076113543382235 1058.3520627366543 5.31911354338223 1056.976062736654 5.525113543382247L1057.0110627366541 5.302113543382234C1057.2170627366543 4.080113543382254 1057.1140627366542 2.876113543382246 1056.7180627366542 1.8961135433822278C1055.8580627366541 -0.20188645661778537 1053.880062736654 -0.8558864566177817 1051.9710627366542 0.3821135433822178Q1050.5950627366542 1.2601135433822037 1049.735062736654 2.962113543382202A37.8 37.8 0 0 0 1047.1890627366543 11.115113543382222C1047.224062736654 9.808113543382206 1047.1890627366543 8.552113543382234 1047.052062736654 7.486113543382203A5.16 5.16 0 0 0 1045.9510627366542 4.80311354338221C1044.7300627366542 3.306113543382196 1042.9410627366542 3.2891135433822 1041.7030627366541 4.751113543382189Q1040.8080627366542 5.818113543382196 1040.5500627366541 7.417113543382186C1039.9480627366543 11.201113543382178 1040.688062736654 16.980113543382174 1041.3760627366541 21.091113543382164C1041.2560627366543 23.448113543382192 1041.7540627366543 24.738113543382156 1042.3220627366543 25.44311354338214Q1042.7350627366543 25.90711354338214 1043.3020627366543 25.99311354338215C1043.5950627366542 27.541113543382153 1044.0250627366543 29.244113543382127 1044.6610627366542 30.843113543382174Q1043.9560627366543 35.21311354338218 1042.7690627366542 41.16311354338217A27.5 27.5 0 0 1 1040.1200627366543 34.16311354338217Q1040.4640627366543 33.940113543382154 1040.6700627366542 33.56111354338219C1041.1870627366543 32.65011354338219 1041.5300627366541 31.050113543382167 1040.9630627366541 28.35011354338218C1041.0320627366543 23.448113543382192 1040.8250627366542 16.585113543382192 1039.4670627366543 12.32011354338215A6.9 6.9 0 0 0 1037.6430627366542 9.430113543382163C1035.9230627366542 7.950113543382145 1033.8590627366543 8.294113543382139 1032.7070627366543 10.255113543382151A6.36 6.36 0 0 0 1031.9330627366544 13.575113543382145C1032.0020627366544 18.047113543382125 1034.0310627366543 24.617113543382118 1035.6650627366544 29.22711354338213C1036.0090627366544 31.97911354338214 1036.8350627366544 33.35511354338212 1037.6260627366544 34.06011354338216Q1038.0910627366543 34.45611354338217 1038.6410627366542 34.52411354338216C1038.9850627366543 36.02111354338217 1039.7410627366544 38.738113543382156 1041.1350627366544 41.37011354338216Q1041.6510627366542 42.35011354338218 1042.3390627366543 43.31411354338218A367 367 0 0 1 1034.9430627366544 72.7941135433822A26 26 0 0 1 1034.0660627366542 68.52911354338221Q1034.2720627366543 68.39111354338223 1034.4440627366544 68.18511354338222C1034.9600627366544 67.49711354338223 1035.4070627366543 66.2241135433822 1035.2010627366544 63.95411354338222C1035.7170627366543 59.94611354338224 1036.2160627366543 54.322113543382216 1035.4930627366543 50.71011354338225A5.16 5.16 0 0 0 1034.2890627366542 48.18111354338225C1033.0340627366543 46.80511354338228 1031.3140627366543 46.87411354338224 1030.1790627366543 48.35311354338228C1029.6630627366542 49.04111354338227 1029.3190627366544 49.98711354338229 1029.2150627366543 51.00211354338228C1028.8550627366542 54.682113543382286 1029.8690627366543 60.23811354338227 1030.7630627366543 64.1601135433823C1030.7810627366543 66.4481135433823 1031.3310627366543 67.66911354338231 1031.9160627366543 68.30511354338228Q1032.1910627366542 68.61511354338228 1032.5520627366543 68.73511354338228C1032.7070627366543 70.11111354338226 1033.1200627366543 72.74311354338226 1034.2030627366544 75.23711354338229L1033.1030627366542 78.72811354338228A25.8 25.8 0 0 1 1028.5790627366544 71.1261135433823Q1028.8540627366542 70.86811354338232 1029.0260627366542 70.43811354338231C1029.4220627366544 69.47511354338229 1029.5420627366543 67.85811354338233 1028.5790627366544 65.2441135433823C1027.9430627366542 60.394113543382275 1026.7560627366543 53.634113543382284 1024.7950627366542 49.59211354338231A6.9 6.9 0 0 0 1022.5590627366544 47.01211354338233C1020.6670627366543 45.79011354338235 1018.6720627366543 46.42711354338235 1017.8120627366543 48.525113543382304C1017.4160627366543 49.488113543382326 1017.2960627366542 50.69211354338228 1017.5020627366544 51.93111354338231C1018.2250627366543 56.351113543382326 1021.1660627366543 62.54311354338233 1023.4530627366544 66.89511354338231V66.87811354338231C1024.1760627366543 69.5611135433823 1025.2080627366543 70.7991135433823 1026.1030627366542 71.38411354338234Q1026.6010627366543 71.71111354338234 1027.1510627366542 71.69411354338234C1027.4610627366542 72.48411354338236 1027.9430627366542 73.62011354338233 1028.6310627366543 74.91011354338235A22.4 22.4 0 0 0 1032.5870627366544 80.36211354338235A296 296 0 0 1 1023.8490627366543 103.92611354338237C1023.4020627366543 102.20611354338234 1023.3330627366543 100.5381135433824 1023.3330627366543 99.73011354338234L1023.4880627366542 99.62611354338236C1023.9350627366543 99.11011354338234 1024.3650627366542 98.16411354338237 1024.3820627366542 96.39311354338236C1025.0700627366543 93.33111354338234 1025.8960627366544 88.99711354338234 1025.6030627366542 86.10711354338235A4.13 4.13 0 0 0 1024.8630627366542 84.04311354338233C1024.0030627366543 82.89111354338235 1022.6280627366543 82.83911354338233 1021.6650627366544 83.88811354338236Q1020.9770627366543 84.68011354338233 1020.7010627366543 85.86611354338237C1020.1510627366542 88.70411354338239 1020.5290627366543 93.09011354338236 1020.9250627366544 96.22111354338239C1020.7530627366543 97.9921135433824 1021.0970627366544 98.9731135433824 1021.5100627366543 99.52311354338241Q1021.6130627366542 99.66111354338238 1021.8020627366543 99.78111354338239C1021.8020627366543 100.9511135433824 1021.9570627366543 103.6511135433824 1022.9370627366543 106.04211354338241Q1022.0430627366543 108.1581135433824 1021.0800627366542 110.23911354338242A24 24 0 0 1 1018.5170627366542 103.66911354338242A1.7 1.7 0 0 0 1018.9130627366542 103.20411354338245C1019.3770627366542 102.41311354338245 1019.6870627366543 101.02011354338242 1019.1880627366543 98.64611354338246V98.66311354338245C1019.2570627366542 94.38011354338244 1019.0850627366542 88.37811354338243 1017.8980627366542 84.64511354338242C1017.5540627366543 83.61311354338244 1017.0030627366542 82.70211354338244 1016.3150627366542 82.1171135433824C1014.8190627366541 80.81011354338239 1013.0130627366541 81.10211354338242 1012.0150627366542 82.80511354338239A5.7 5.7 0 0 0 1011.3100627366541 85.72911354338237C1011.3620627366543 89.63311354338236 1013.1160627366542 95.36111354338237 1014.5440627366542 99.40311354338235C1014.8360627366542 101.81111354338236 1015.5760627366542 103.03211354338237 1016.2640627366542 103.65111354338234C1016.4860627366542 103.84111354338233 1016.7520627366541 103.97111354338233 1017.0380627366542 104.03011354338236C1017.3300627366541 105.33711354338237 1018.0010627366541 107.78011354338236 1019.2570627366542 110.11811354338238Q1019.7380627366542 111.03011354338236 1020.3230627366542 111.87311354338237Q1019.0500627366541 114.62511354338238 1017.6910627366542 117.41111354338238H1017.6230627366541V117.5141135433824A203 203 0 0 1 1005.2390627366541 139.3241135433824C1005.1010627366541 137.7761135433824 1005.1530627366541 136.36611354338237 1005.2390627366541 135.5741135433824Q1005.4110627366541 135.48811354338238 1005.583062736654 135.35111354338238C1006.2020627366542 134.80111354338237 1006.8380627366541 133.70011354338237 1007.045062736654 131.5671135433824C1008.2490627366541 127.95511354338237 1009.728062736654 122.7951135433824 1009.7110627366541 119.32011354338238C1009.7110627366541 118.34011354338236 1009.4700627366541 117.42811354338238 1009.0400627366541 116.74011354338239C1008.1280627366541 115.24411354338241 1006.4940627366541 115.02011354338237 1005.2040627366541 116.19011354338238Q1004.258062736654 117.0501135433824 1003.8280627366541 118.46011354338236C1002.813062736654 121.81411354338235 1002.7790627366542 127.16411354338237 1002.9170627366541 130.96511354338236C1002.5040627366541 133.08011354338237 1002.7970627366541 134.30211354338235 1003.227062736654 135.00711354338233Q1003.4150627366541 135.2991135433823 1003.6910627366541 135.50611354338236C1003.6050627366541 136.67611354338237 1003.5190627366541 138.94611354338235 1003.9310627366541 141.26811354338236L1002.3830627366541 143.55511354338233L1001.9530627366541 144.17511354338234A24 24 0 0 1 1000.199062736654 138.39511354338237Q1000.457062736654 138.22311354338234 1000.612062736654 137.96511354338236C1001.1280627366541 137.17411354338236 1001.4890627366541 135.81511354338238 1001.1280627366541 133.40711354338237V133.42411354338236C1001.420062736654 129.15911354338238 1001.5750627366541 123.13911354338234 1000.5780627366541 119.35411354338237A5.7 5.7 0 0 0 999.1150627366541 116.74011354338239C997.7050627366541 115.36411354338242 995.8650627366541 115.57011354338238 994.7810627366541 117.22211354338242A5.7 5.7 0 0 0 993.921062736654 120.09411354338243C993.7830627366541 123.9991135433824 995.2450627366541 129.81211354338245 996.467062736654 133.94011354338244C996.621062736654 136.34811354338245 997.275062736654 137.60411354338243 997.9460627366541 138.24011354338245C998.152062736654 138.44411354338246 998.406062736654 138.59211354338242 998.6860627366541 138.67011354338246A25.8 25.8 0 0 0 1000.973062736654 145.62011354338244A227 227 0 0 0 988.537062736654 166.24211354338246H992.597062736654Q997.808062736654 156.62711354338245 1003.622062736654 148.04411354338248C1007.0100627366539 148.2161135433825 1010.536062736654 146.87411354338246 1012.050062736654 146.2041135433825Q1012.325062736654 146.41011354338252 1012.669062736654 146.49611354338248C1013.477062736654 146.6681135433825 1014.7330627366541 146.5311135433825 1016.6080627366541 145.4641135433825H1016.573062736654C1020.220062736654 144.3291135433825 1025.259062736654 142.54011354338252 1028.0970627366542 140.4761135433825Q1029.301062736654 139.5991135433825 1029.8000627366541 138.4301135433825C1030.488062736654 136.81311354338249 1029.731062736654 135.3681135433825 1028.011062736654 134.9901135433825Q1026.773062736654 134.73211354338252 1025.345062736654 135.21311354338252C1022.0430627366541 136.3481135433825 1017.691062736654 139.42711354338252 1014.665062736654 141.74911354338252C1012.721062736654 142.6611135433825 1011.895062736654 143.62411354338252 1011.568062736654 144.36411354338253Q1011.482062736654 144.57011354338255 1011.482062736654 144.79411354338254C1010.278062736654 145.32711354338255 1007.457062736654 146.41011354338252 1004.654062736654 146.51411354338256L1005.2900627366541 145.6021135433826L1007.612062736654 142.1451135433826A22.4 22.4 0 0 0 1013.4260627366541 138.15511354338258Q1013.736062736654 138.2581135433826 1014.1140627366541 138.22311354338257C1014.9050627366541 138.10311354338256 1016.0570627366541 137.57011354338255 1017.468062736654 135.9361135433826H1017.433062736654C1020.4950627366541 133.6661135433826 1024.657062736654 130.27611354338256 1026.6350627366542 127.4041135433826C1027.1850627366541 126.59611354338261 1027.495062736654 125.7191135433826 1027.547062736654 124.91011354338258C1027.650062736654 123.15611354338256 1026.4630627366541 122.03811354338256 1024.709062736654 122.26211354338255C1023.901062736654 122.36511354338256 1023.041062736654 122.72611354338255 1022.301062736654 123.34511354338258C1019.5490627366539 125.51211354338255 1016.471062736654 129.88111354338258 1014.3890627366541 133.0801135433826C1012.8590627366541 134.5771135433826 1012.411062736654 135.76411354338262 1012.342062736654 136.5721135433826Q1012.342062736654 136.81211354338262 1012.411062736654 137.00211354338262A23.4 23.4 0 0 1 1009.401062736654 139.41011354338264C1013.873062736654 132.39211354338266 1017.881062736654 125.13411354338263 1021.441062736654 117.84111354338262C1023.797062736654 116.80911354338264 1025.775062736654 115.39911354338261 1026.825062736654 114.59111354338262C1027.083062736654 114.7311135433826 1027.373062736654 114.8011135433826 1027.667062736654 114.79711354338264C1028.5970627366542 114.74511354338262 1029.921062736654 114.28111354338262 1031.6750627366541 112.59511354338264H1031.641062736654C1035.304062736654 110.37611354338264 1040.3090627366541 107.04011354338263 1042.8380627366541 104.03011354338264C1043.543062736654 103.18711354338262 1043.990062736654 102.24011354338262 1044.145062736654 101.33011354338265C1044.437062736654 99.38611354338263 1043.2330627366541 98.01011354338266 1041.238062736654 98.06111354338265A5.7 5.7 0 0 0 1038.418062736654 99.02411354338267C1035.132062736654 101.15711354338265 1031.2110627366542 105.71511354338264 1028.562062736654 109.06911354338268C1026.670062736654 110.60011354338269 1026.033062736654 111.85611354338266 1025.879062736654 112.76711354338266A1.7 1.7 0 0 0 1025.8960627366541 113.38711354338267C1025.1910627366542 113.93711354338268 1023.969062736654 114.7971135433827 1022.4900627366541 115.62211354338268Q1025.070062736654 110.17011354338268 1027.340062736654 104.78611354338267A26 26 0 0 0 1030.850062736654 101.89611354338268Q1031.176062736654 102.00011354338267 1031.5370627366542 101.93111354338271C1032.3460627366542 101.8111135433827 1033.4810627366542 101.24311354338272 1034.8570627366541 99.54111354338272C1037.8670627366541 97.1671135433827 1041.9430627366542 93.65811354338274 1043.870062736654 90.71711354338271Q1044.661062736654 89.44411354338268 1044.730062736654 88.17111354338272C1044.7810627366541 86.4001135433827 1043.543062736654 85.2991135433827 1041.806062736654 85.59111354338273Q1040.533062736654 85.78111354338273 1039.398062736654 86.74411354338275C1036.698062736654 88.99711354338274 1033.705062736654 93.46911354338278 1031.692062736654 96.75411354338274C1030.196062736654 98.30211354338275 1029.766062736654 99.50611354338275 1029.7320627366541 100.33211354338272Q1029.7320627366541 100.55511354338273 1029.8000627366541 100.76211354338272Q1029.3360627366542 101.24311354338272 1028.5100627366542 101.96611354338273A306 306 0 0 0 1035.820062736654 82.03111354338273C1038.400062736654 80.81011354338273 1040.516062736654 78.86611354338271 1041.513062736654 77.90311354338274Q1041.857062736654 77.98911354338276 1042.201062736654 77.93711354338274C1043.027062736654 77.80011354338274 1044.162062736654 77.23211354338275 1045.538062736654 75.52911354338272L1045.504062736654 75.56411354338275C1048.531062736654 73.17311354338273 1052.624062736654 69.66411354338277 1054.534062736654 66.70611354338274C1055.084062736654 65.88011354338272 1055.377062736654 64.98611354338271 1055.394062736654 64.17711354338275C1055.4630627366541 62.38811354338276 1054.224062736654 61.30511354338273 1052.470062736654 61.580113543382765Q1051.2310627366542 61.77011354338276 1050.062062736654 62.73211354338275C1047.379062736654 64.98611354338277 1044.386062736654 69.45811354338275 1042.373062736654 72.74211354338274C1040.860062736654 74.30811354338272 1040.430062736654 75.49511354338273 1040.395062736654 76.33811354338275Q1040.413062736654 76.54411354338276 1040.481062736654 76.76811354338275A22.4 22.4 0 0 1 1036.491062736654 79.93211354338274L1037.764062736654 75.85611354338272C1038.796062736654 74.5831135433827 1039.535062736654 73.36211354338269 1040.017062736654 72.3471135433827Q1040.275062736654 72.3471135433827 1040.533062736654 72.2441135433827C1041.359062736654 71.86611354338271 1042.373062736654 70.95411354338268 1043.319062736654 68.8211135433827V68.83811354338269C1045.779062736654 65.5181135433827 1049.029062736654 60.73811354338267 1050.199062736654 57.14211354338266C1050.543062736654 56.14511354338265 1050.595062736654 55.13011354338266 1050.389062736654 54.27011354338265C1049.959062736654 52.412113543382645 1048.3760627366541 51.62111354338265 1046.622062736654 52.37811354338265Q1045.383062736654 52.94611354338264 1044.437062736654 54.27011354338265Q1043.715062736654 55.33611354338262 1043.010062736654 56.747113543382625Q1044.678062736654 49.79811354338261 1045.882062736654 43.898113543382635A18.9 18.9 0 0 0 1050.217062736654 38.22211354338265M1049.322062736654 23.912113543382645L1049.546062736654 23.620113543382672L1049.443062736654 24.342113543382652L1049.133062736654 25.236113543382658ZM1048.703062736654 28.178113543382665Q1048.755062736654 29.003113543382653 1048.978062736654 29.53611354338267Q1049.116062736654 29.81211354338268 1049.288062736654 30.05211354338269Q1048.875062736654 30.6021135433827 1048.221062736654 31.256113543382696ZM1047.843062736654 33.54411354338265Q1048.927062736654 32.75311354338265 1049.6660627366539 31.979113543382653L1049.460062736654 32.68411354338264C1048.325062736654 34.74811354338266 1048.204062736654 36.10711354338264 1048.4100627366538 36.98411354338265Q1048.4970627366538 37.38011354338266 1048.7720627366539 37.672113543382636Q1048.049062736654 39.237113543382634 1046.432062736654 41.18111354338265Q1047.258062736654 37.001113543382644 1047.843062736654 33.54411354338265M1045.125062736654 27.920113543382627Q1044.8500627366539 26.784113543382603 1044.644062736654 25.7001135433826Q1044.816062736654 25.61511354338262 1044.9360627366539 25.477113543382586Q1045.3320627366538 25.013113543382588 1045.624062736654 24.136113543382578L1045.6760627366539 24.239113543382587Z "></path></g><rect width="72" height="166" x="714" y="0" id="space-saver" fill="transparent" stroke="transparent"></rect></g></svg>